SplineFontDB: 3.2
FontName: Condescend2Italic
FullName: Condescend2 Italic
FamilyName: Condescend2
Weight: Regular
Copyright: Copyright (c) 2022, FontFish
UComments: "2022-12-30: Created with FontForge (http://fontforge.org)"
FontLog: "Began 2022-12-30+AAoACgAK-Completed as of 2023-01-01 :+AAoA-E, H, I, J, L, O+AAoA-a to v+AAoA-comma [,]"
Version: 001.000
ItalicAngle: -10
UnderlinePosition: -100
UnderlineWidth: 50
Ascent: 720
Descent: 280
InvalidEm: 0
LayerCount: 2
Layer: 0 0 "Back" 1
Layer: 1 0 "Fore" 0
XUID: [1021 63 -208442010 3809248]
FSType: 0
OS2Version: 0
OS2_WeightWidthSlopeOnly: 0
OS2_UseTypoMetrics: 1
CreationTime: 1672435746
ModificationTime: 1674142996
PfmFamily: 17
TTFWeight: 400
TTFWidth: 5
LineGap: 90
VLineGap: 0
OS2TypoAscent: 0
OS2TypoAOffset: 1
OS2TypoDescent: 0
OS2TypoDOffset: 1
OS2TypoLinegap: 90
OS2WinAscent: 0
OS2WinAOffset: 1
OS2WinDescent: 0
OS2WinDOffset: 1
HheadAscent: 0
HheadAOffset: 1
HheadDescent: 0
HheadDOffset: 1
OS2Vendor: 'PfEd'
MarkAttachClasses: 1
DEI: 91125
LangName: 1033
Encoding: UnicodeBmp
Compacted: 1
UnicodeInterp: none
NameList: AGL For New Fonts
DisplaySize: -36
AntiAlias: 1
FitToEm: 0
WinInfo: 0 20 8
BeginPrivate: 0
EndPrivate
Grid
-1000 765 m 0
 2000 765 l 1024
-1000 600 m 0
 2000 600 l 1024
  Named: "caps"
-1000 390 m 0
 2000 390 l 1024
  Named: "x"
EndSplineSet
TeXData: 1 0 0 262144 131072 87381 408945 1048576 87381 783286 444596 497025 792723 393216 433062 380633 303038 157286 324010 404750 52429 2506097 1059062 262144
AnchorClass2: "accent_below_cap"""  "accent_above_cap"""  "accent_below"""  "accent_above"""  "above""" 
BeginChars: 65550 194

StartChar: n
Encoding: 110 110 0
Width: 465
Flags: HW
LayerCount: 2
Back
SplineSet
389 285 m 2
 335 65 l 1
 425 130 l 1
 445 105 l 1
 350 15 322 -10 287 -10 c 0
 262 -10 257 22 265 57 c 2
 322 292 l 18
 328 317 319 335 305 335 c 1
 265 335 155 235 128 100 c 1
 136 215 l 1
 186 325 285 400 350 400 c 0
 390 400 406 355 389 285 c 2
40 0 m 1
 105 325 l 1
 95 325 l 1
 25 288 l 1
 12 318 l 1
 100 383 130 400 155 400 c 0
 173 400 178 380 170 350 c 2
 136 215 l 1
 151 215 l 1
 108 0 l 1
 40 0 l 1
894 285 m 2
 840 65 l 1
 930 130 l 1
 950 105 l 1
 855 15 827 -10 792 -10 c 0
 767 -10 762 22 770 57 c 2
 837 335 l 17
 831 335 l 1
 771 335 660 235 633 100 c 1
 641 215 l 1
 693 325 795 400 860 400 c 0
 900 400 912 360 894 285 c 2
545 0 m 1
 610 325 l 1
 600 325 l 1
 530 288 l 1
 517 318 l 1
 605 383 635 400 660 400 c 0
 678 400 683 380 675 350 c 2
 641 215 l 1
 656 215 l 1
 613 0 l 1
 545 0 l 1
-116 285 m 2
 -160 65 l 1
 -70 130 l 1
 -50 105 l 1
 -145 15 -173 -10 -208 -10 c 0
 -233 -10 -237 20 -230 55 c 2
 -185 280 l 2
 -178 315 -185 335 -205 335 c 3
 -245 335 -343 245 -370 110 c 1
 -363 220 l 1
 -318 330 -220 400 -155 400 c 0
 -115 400 -102 355 -116 285 c 2
-460 0 m 1
 -395 325 l 1
 -405 325 l 1
 -475 288 l 1
 -488 318 l 1
 -400 383 -370 400 -345 400 c 0
 -327 400 -322 380 -330 350 c 2
 -363 220 l 1
 -348 220 l 1
 -392 0 l 1
 -460 0 l 1
EndSplineSet
Fore
SplineSet
394 285 m 2
 340 65 l 1
 430 130 l 1
 450 105 l 1
 355 15 327 -10 292 -10 c 0
 267 -10 262 22 270 57 c 2
 327 292 l 18
 332 314 324 337 310 337 c 1
 273 337 162 245 136 117 c 1
 142 219 l 1
 192 329 290 400 350 400 c 0
 390 400 411 355 394 285 c 2
45 0 m 1
 110 325 l 1
 100 325 l 1
 30 288 l 1
 17 318 l 1
 105 383 135 400 160 400 c 0
 178 400 183 380 175 350 c 2
 142 219 l 1
 156 215 l 1
 112 0 l 1
 45 0 l 1
EndSplineSet
EndChar

StartChar: m
Encoding: 109 109 1
Width: 682
Flags: HW
LayerCount: 2
Back
SplineSet
380 305 m 2
 361 232 l 1
 367 220 l 1
 323 0 l 1
 254 0 l 1
 314 292 l 1
 319 316 311 337 297 337 c 1
 262 337 157 245 132 120 c 1
 138 224 l 1
 188 329 278 400 337 400 c 0
 372 400 396 365 380 305 c 2
604 285 m 2
 550 65 l 1
 640 130 l 1
 660 105 l 1
 565 15 537 -10 502 -10 c 0
 477 -10 472 22 480 57 c 2
 537 292 l 18
 542 314 534 337 520 337 c 1
 483 337 371 240 346 115 c 1
 361 232 l 1
 416 337 501 400 560 400 c 0
 600 400 621 355 604 285 c 2
40 0 m 1
 105 325 l 1
 95 325 l 1
 25 288 l 1
 12 318 l 1
 100 383 130 400 155 400 c 0
 173 400 178 380 170 350 c 2
 138 224 l 1
 151 215 l 1
 108 0 l 1
 40 0 l 1
-126 285 m 2
 -180 65 l 1
 -90 130 l 1
 -70 105 l 1
 -165 15 -193 -10 -228 -10 c 0
 -253 -10 -258 22 -250 57 c 2
 -193 292 l 18
 -188 314 -196 337 -210 337 c 1
 -247 337 -358 245 -384 115 c 1
 -378 219 l 1
 -328 329 -230 400 -170 400 c 0
 -130 400 -109 355 -126 285 c 2
-475 0 m 1
 -410 325 l 1
 -420 325 l 1
 -490 288 l 1
 -503 318 l 1
 -415 383 -385 400 -360 400 c 0
 -342 400 -337 380 -345 350 c 2
 -378 219 l 1
 -364 215 l 1
 -407 0 l 1
 -475 0 l 1
-341 285 m 2
 -395 65 l 1
 -305 130 l 1
 -285 105 l 1
 -380 15 -408 -10 -443 -10 c 0
 -468 -10 -473 22 -465 57 c 2
 -408 292 l 18
 -403 314 -411 337 -425 337 c 1
 -462 337 -573 245 -599 115 c 1
 -593 219 l 1
 -543 329 -445 400 -385 400 c 0
 -345 400 -324 355 -341 285 c 2
-690 0 m 1
 -625 325 l 1
 -635 325 l 1
 -705 288 l 1
 -718 318 l 1
 -630 383 -600 400 -575 400 c 0
 -557 400 -552 380 -560 350 c 2
 -593 219 l 1
 -579 215 l 1
 -622 0 l 1
 -690 0 l 1
EndSplineSet
Fore
SplineSet
385 305 m 2
 367 235 l 1
 372 220 l 1
 327 0 l 1
 259 0 l 1
 319 292 l 1
 324 316 316 337 302 337 c 1
 267 337 162 245 137 122 c 1
 143 224 l 1
 193 329 283 400 342 400 c 0
 377 400 401 365 385 305 c 2
609 285 m 2
 557 65 l 1
 647 130 l 1
 667 105 l 1
 572 15 544 -10 509 -10 c 0
 484 -10 479 22 487 57 c 2
 542 292 l 18
 547 314 539 337 525 337 c 1
 488 337 377 245 351 117 c 1
 367 235 l 1
 422 340 506 400 565 400 c 0
 605 400 626 355 609 285 c 2
45 0 m 1
 110 325 l 1
 100 325 l 1
 30 288 l 1
 17 318 l 1
 105 383 135 400 160 400 c 0
 178 400 183 380 175 350 c 2
 143 224 l 1
 156 215 l 1
 112 0 l 1
 45 0 l 1
EndSplineSet
EndChar

StartChar: o
Encoding: 111 111 2
Width: 380
Flags: HW
LayerCount: 2
Back
SplineSet
565 160 m 0
 565 85 593 35 633 35 c 0
 688 35 735 135 735 230 c 0
 735 305 707 355 667 355 c 0
 612 355 565 255 565 160 c 0
485 138 m 0
 485 268 587 400 692 400 c 0
 764 400 815 342 815 252 c 0
 815 122 713 -10 608 -10 c 0
 536 -10 485 48 485 138 c 0
1178.77734375 160 m 0
 1175.984375 80 1196.23828125 30 1236.23828125 30 c 0
 1290.23828125 30 1337.90429688 135 1341.22265625 230 c 0
 1344.015625 310 1323.76171875 360 1283.76171875 360 c 0
 1229.76171875 360 1182.09570312 255 1178.77734375 160 c 0
1098.14941406 142 m 0
 1102.58398438 269 1198.15917969 400 1303.15917969 400 c 0
 1373.15917969 400 1424.99414062 338 1421.85058594 248 c 0
 1417.41601562 121 1321.84082031 -10 1216.84082031 -10 c 0
 1146.84082031 -10 1095.00585938 52 1098.14941406 142 c 0
1180 160 m 0
 1180 80 1202 30 1242 30 c 0
 1296 30 1340 135 1340 230 c 0
 1340 310 1318 360 1278 360 c 0
 1224 360 1180 255 1180 160 c 0
1100 142 m 0
 1100 269 1191 400 1296 400 c 0
 1366 400 1420 338 1420 248 c 0
 1420 121 1329 -10 1224 -10 c 0
 1154 -10 1100 52 1100 142 c 0
1548 160 m 0
 1548 75 1570 29 1610 29 c 0
 1665 29 1710 135 1710 230 c 0
 1710 315 1688 361 1648 361 c 0
 1593 361 1548 255 1548 160 c 0
1470 142 m 0
 1470 269 1559 400 1664 400 c 0
 1734 400 1788 338 1788 248 c 0
 1788 121 1699 -10 1594 -10 c 0
 1524 -10 1470 52 1470 142 c 0
1953 160 m 0
 1953 75 1977 28 2022 28 c 0
 2077 28 2125 135 2125 230 c 0
 2125 315 2101 362 2056 362 c 0
 2001 362 1953 255 1953 160 c 0
1882 142 m 0
 1882 267 1967 400 2072 400 c 0
 2142 400 2196 338 2196 248 c 0
 2196 123 2111 -10 2006 -10 c 0
 1936 -10 1882 52 1882 142 c 0
-318.993164062 168.08984375 m 0
 -321.611328125 93.134765625 -292.548828125 37.0869140625 -252.573242188 35.6904296875 c 0
 -197.607421875 33.771484375 -144.322265625 126.96875 -141.006835938 221.91015625 c 0
 -138.388671875 296.865234375 -167.451171875 352.913085938 -207.426757812 354.309570312 c 0
 -262.392578125 356.228515625 -315.677734375 263.03125 -318.993164062 168.08984375 c 0
-393.8203125 145.6875 m 0
 -389.458007812 270.611328125 -287.805664062 402.143554688 -182.870117188 398.479492188 c 0
 -112.913085938 396.036132812 -63.0380859375 334.2578125 -66.1796875 244.3125 c 0
 -70.5419921875 119.388671875 -172.194335938 -12.1435546875 -277.129882812 -8.4794921875 c 0
 -347.086914062 -6.0361328125 -396.961914062 55.7421875 -393.8203125 145.6875 c 0
-766 210 m 0
 -783 105 -758 28 -706 28 c 0
 -656 28 -613 85 -598 180 c 0
 -581 285 -606 362 -658 362 c 0
 -708 362 -751 305 -766 210 c 0
-835 192 m 0
 -817 305 -731 400 -646 400 c 0
 -562 400 -511 310 -529 198 c 0
 -547 85 -633 -10 -718 -10 c 0
 -802 -10 -853 80 -835 192 c 0
-1247 210 m 0
 -1247 105 -1198 28 -1128 28 c 0
 -1061 28 -1017 85 -1017 180 c 0
 -1017 285 -1066 362 -1136 362 c 0
 -1203 362 -1247 305 -1247 210 c 0
-1336 192 m 0
 -1336 305 -1241 400 -1128 400 c 0
 -1016 400 -928 310 -928 198 c 0
 -928 85 -1023 -10 -1136 -10 c 0
 -1248 -10 -1336 80 -1336 192 c 0
EndSplineSet
Fore
SplineSet
110 145 m 0
 110 75 128 30 168 30 c 0
 222 30 270 145 270 245 c 0
 270 315 252 360 212 360 c 0
 158 360 110 245 110 145 c 0
30 135 m 0
 30 265 122 400 227 400 c 0
 297 400 350 338 350 255 c 0
 350 125 258 -10 153 -10 c 0
 83 -10 30 52 30 135 c 0
EndSplineSet
EndChar

StartChar: i
Encoding: 105 105 3
Width: 260
Flags: HW
LayerCount: 2
Back
SplineSet
-215 562 m 0
 -215 590 -190 616 -162 616 c 0
 -142 616 -127 600 -127 578 c 0
 -127 550 -152 524 -180 524 c 0
 -200 524 -215 540 -215 562 c 0
-173 350 m 2
 -229 70 l 1
 -140 145 l 1
 -115 125 l 1
 -215 20 -243 -10 -278 -10 c 0
 -305 -10 -307 20 -300 55 c 2
 -246 325 l 1
 -328 260 l 1
 -348 287 l 1
 -243 382 -223 400 -195 400 c 0
 -175 400 -167 380 -173 350 c 2
130 562 m 0
 130 590 155 616 183 616 c 0
 203 616 218 600 218 578 c 0
 218 550 193 524 165 524 c 0
 145 524 130 540 130 562 c 0
183 330 m 2
 192 375 183 401 155 401 c 0
 110 401 64 370 -1 290 c 1
 24 270 l 1
 56 305 82 329 102 329 c 3
 112 329 112 315 109 300 c 2
 70 105 l 2
 55 30 63 -10 105 -10 c 0
 150 -10 205 45 255 125 c 1
 230 145 l 1
 210 114 167 65 145 65 c 3
 137 65 133 80 138 105 c 2
 183 330 l 2
-618 388 m 1
 -550 388 l 1
 -631 64 l 1
 -599 74 -562 105 -535 140 c 1
 -510 118 l 1
 -580 23 -630 -5 -675 -5 c 1
 -705 -5 l 1
 -705 40 l 1
 -618 388 l 1
121 570 m 0
 125 595 148 616 172 616 c 0
 196 616 211 595 207 570 c 0
 203 545 180 524 156 524 c 0
 132 524 117 545 121 570 c 0
890 390 m 1
 826 70 l 1
 915 145 l 1
 940 125 l 1
 840 20 812 -10 777 -10 c 0
 750 -10 748 20 755 55 c 2
 822 390 l 1
 890 390 l 1
-795 390 m 1
 -860 65 l 1
 -770 140 l 1
 -745 120 l 1
 -835 25 -868 -10 -908 -10 c 0
 -935 -10 -937 20 -929 60 c 2
 -863 390 l 1
 -795 390 l 1
372 388 m 1
 440 388 l 1
 359 64 l 1
 391 74 428 105 455 140 c 1
 480 118 l 1
 410 23 360 -10 325 -10 c 0
 293 -10 281 24 295 80 c 2
 372 388 l 1
602 390 m 1
 670 390 l 1
 608 80 l 1
 618 70 l 1
 698 140 l 1
 723 115 l 1
 628 20 603 -10 568 -10 c 3
 538 -10 529 25 540 80 c 10
 602 390 l 1
-1280 390 m 1
 -1210 390 l 1
 -1285 90 l 1
 -1275 80 l 1
 -1195 150 l 1
 -1170 125 l 1
 -1265 30 -1290 0 -1325 0 c 3
 -1355 0 -1366 35 -1355 90 c 10
 -1280 390 l 1
-1080 390 m 1
 -1010 390 l 1
 -1072 80 l 1
 -1062 70 l 1
 -982 140 l 1
 -957 115 l 1
 -1052 20 -1077 -10 -1112 -10 c 3
 -1142 -10 -1153 25 -1142 80 c 10
 -1080 390 l 1
-2490 390 m 1
 -2420 390 l 1
 -2513 80 l 1
 -2503 70 l 1
 -2423 140 l 1
 -2398 115 l 1
 -2493 20 -2518 -10 -2553 -10 c 3
 -2583 -10 -2594 25 -2583 80 c 10
 -2490 390 l 1
-1580 390 m 1
 -1510 390 l 1
 -1575 80 l 1
 -1565 70 l 1
 -1485 140 l 1
 -1460 115 l 1
 -1555 20 -1580 -10 -1615 -10 c 3
 -1645 -10 -1657 25 -1645 80 c 10
 -1580 390 l 1
-2280 390 m 1
 -2210 390 l 1
 -2285 115 l 2
 -2291 93 -2295 65 -2280 65 c 3
 -2255 65 -2220 105 -2195 150 c 9
 -2170 135 l 1
 -2210 55 -2270 -10 -2325 -10 c 3
 -2360 -10 -2378 30 -2360 95 c 10
 -2280 390 l 1
-2060 390 m 1
 -1990 390 l 1
 -2055 80 l 1
 -2045 70 l 1
 -1965 140 l 1
 -1940 115 l 1
 -2035 20 -2060 -10 -2095 -10 c 3
 -2125 -10 -2137 25 -2125 80 c 10
 -2060 390 l 1
-1810 390 m 1
 -1740 390 l 1
 -1790 65 l 1
 -1710 135 l 1
 -1688 113 l 1
 -1773 18 -1800 -10 -1830 -10 c 0
 -1860 -10 -1866 20 -1860 60 c 2
 -1810 390 l 1
-2 570 m 0
 -2 595 19 616 44 616 c 0
 69 616 90 595 90 570 c 0
 90 545 69 524 44 524 c 0
 19 524 -2 545 -2 570 c 0
EndSplineSet
Fore
SplineSet
145 562 m 0
 145 590 170 616 198 616 c 0
 218 616 233 600 233 578 c 0
 233 550 208 524 180 524 c 0
 160 524 145 540 145 562 c 0
187 350 m 2
 130 65 l 1
 220 130 l 1
 240 105 l 1
 145 15 117 -10 82 -10 c 0
 57 -10 53 20 60 55 c 2
 115 330 l 1
 32 275 l 1
 17 305 l 1
 117 385 138 400 165 400 c 0
 183 400 193 380 187 350 c 2
EndSplineSet
EndChar

StartChar: l
Encoding: 108 108 4
Width: 225
Flags: HW
LayerCount: 2
Back
SplineSet
213 640 m 1
 114 60 l 1
 202 127 l 1
 222 101 l 1
 132 16 102 -10 68 -10 c 0
 45 -10 38 13 45 55 c 2
 130 565 l 1
 81 595 l 1
 81 605 l 1
 203 640 l 1
 213 640 l 1
-170 562 m 0
 -170 590 -145 616 -117 616 c 0
 -97 616 -82 600 -82 578 c 0
 -82 550 -107 524 -135 524 c 0
 -155 524 -170 540 -170 562 c 0
-128 350 m 2
 -185 65 l 1
 -95 130 l 1
 -75 105 l 1
 -170 15 -198 -10 -233 -10 c 0
 -258 -10 -262 20 -255 55 c 2
 -200 330 l 1
 -283 275 l 1
 -298 305 l 1
 -198 385 -177 400 -150 400 c 0
 -132 400 -122 380 -128 350 c 2
-545 562 m 0
 -545 590 -520 616 -492 616 c 0
 -472 616 -457 600 -457 578 c 0
 -457 550 -482 524 -510 524 c 0
 -530 524 -545 540 -545 562 c 0
-503 350 m 2
 -560 65 l 1
 -470 130 l 1
 -450 105 l 1
 -545 15 -573 -10 -608 -10 c 0
 -633 -10 -637 20 -630 55 c 2
 -575 330 l 1
 -658 275 l 1
 -673 305 l 1
 -573 385 -552 400 -525 400 c 0
 -507 400 -497 380 -503 350 c 2
-67 655 m 1
 -185 65 l 1
 -95 140 l 1
 -70 120 l 1
 -170 20 -198 -10 -233 -10 c 0
 -260 -10 -262 20 -255 55 c 2
 -150 580 l 1
 -199 610 l 1
 -199 620 l 1
 -77 655 l 1
 -67 655 l 1
EndSplineSet
Fore
SplineSet
213 640 m 1
 113 59 l 1
 202 127 l 1
 222 101 l 1
 132 16 102 -10 68 -10 c 0
 45 -10 38 13 45 55 c 2
 129 560 l 1
 85 590 l 1
 85 600 l 1
 203 640 l 1
 213 640 l 1
EndSplineSet
EndChar

StartChar: j
Encoding: 106 106 5
Width: 230
Flags: HW
LayerCount: 2
Back
SplineSet
135 562 m 0
 135 590 160 616 188 616 c 0
 208 616 223 600 223 578 c 0
 223 550 198 524 170 524 c 0
 150 524 135 540 135 562 c 0
85 -140 m 1
 50 -195 2 -230 -68 -260 c 1
 -80 -233 l 1
 -15 -198 15 -145 25 -90 c 2
 105 330 l 1
 22 275 l 1
 7 305 l 1
 107 385 128 400 155 400 c 0
 173 400 183 380 177 350 c 2
 85 -140 l 1
-93 350 m 2
 -150 65 l 1
 -220 55 l 1
 -165 330 l 1
 -248 275 l 1
 -263 305 l 1
 -163 385 -142 400 -115 400 c 0
 -97 400 -87 380 -93 350 c 2
-182 570 m 0
 -182 595 -161 616 -136 616 c 0
 -111 616 -90 595 -90 570 c 0
 -90 545 -111 524 -136 524 c 0
 -161 524 -182 545 -182 570 c 0
-180 0 m 1
 -106 0 l 25
 -106 -120 l 17
 -126 -180 -180 -235 -245 -260 c 1
 -260 -235 l 1
 -200 -200 -180 -155 -180 -90 c 1
 -180 0 l 1
-234 350 m 1
 -116 404 l 1
 -106 404 l 1
 -106 0 l 1
 -180 0 l 1
 -180 300 l 1
 -234 340 l 1
 -234 350 l 1
EndSplineSet
Fore
SplineSet
145 562 m 0
 145 590 170 616 198 616 c 0
 218 616 233 600 233 578 c 0
 233 550 208 524 180 524 c 0
 160 524 145 540 145 562 c 0
100 -140 m 1
 65 -195 17 -230 -53 -260 c 1
 -65 -233 l 1
 0 -198 30 -145 40 -90 c 2
 115 330 l 1
 32 275 l 1
 17 305 l 1
 117 385 138 400 165 400 c 0
 183 400 192 380 187 350 c 2
 100 -140 l 1
EndSplineSet
EndChar

StartChar: h
Encoding: 104 104 6
Width: 460
Flags: HW
LayerCount: 2
Back
SplineSet
384 285 m 2
 330 65 l 1
 420 130 l 1
 440 105 l 1
 345 15 317 -10 282 -10 c 0
 257 -10 252 22 260 57 c 2
 317 292 l 18
 323 317 314 335 300 335 c 1
 258 335 145 243 122 103 c 1
 139 234 l 1
 195 334 282 400 342 400 c 0
 382 400 401 355 384 285 c 2
384 285 m 2
 330 65 l 1
 420 130 l 1
 440 105 l 1
 345 15 317 -10 282 -10 c 0
 257 -10 252 22 260 57 c 2
 317 292 l 18
 322 314 314 337 300 337 c 1
 263 337 152 245 126 115 c 1
 132 219 l 1
 182 329 280 400 340 400 c 0
 380 400 401 355 384 285 c 2
37 0 m 1
 130 565 l 1
 81 595 l 1
 81 605 l 1
 203 640 l 1
 213 640 l 1
 105 0 l 1
 37 0 l 1
EndSplineSet
Fore
SplineSet
383 281 m 2
 330 65 l 1
 420 130 l 1
 440 105 l 1
 345 15 317 -10 282 -10 c 0
 257 -10 252 22 260 57 c 2
 317 292 l 18
 322 314 314 337 300 337 c 1
 258 337 147 247 122 105 c 1
 140 240 l 1
 197 338 280 400 340 400 c 0
 380 400 400 351 383 281 c 2
37 0 m 1
 129 560 l 1
 85 590 l 1
 85 600 l 1
 203 640 l 1
 213 640 l 1
 140 240 l 1
 144 232 l 1
 104 0 l 1
 37 0 l 1
EndSplineSet
EndChar

StartChar: r
Encoding: 114 114 7
Width: 325
Flags: HW
LayerCount: 2
Back
SplineSet
298 308 m 3
 284 308 275 315 265 315 c 1
 235 315 188 255 168 155 c 1
 162 250 l 1
 202 345 255 400 305 400 c 1
 325 400 345 385 345 362 c 1
 345 335 320 308 298 308 c 3
70 0 m 1
 108 190 l 1
 90 338 l 1
 27 297 l 1
 12 325 l 1
 90 390 104 400 128 400 c 0
 146 400 153 380 155 350 c 2
 162 250 l 1
 180 217 l 1
 138 0 l 1
 70 0 l 1
-72 310 m 3
 -86 310 -95 316 -105 316 c 1
 -135 316 -182 255 -202 155 c 1
 -210 248 l 1
 -170 343 -115 400 -65 400 c 1
 -45 400 -25 385 -25 362 c 1
 -25 337 -52 310 -72 310 c 3
-300 0 m 1
 -264 180 l 1
 -280 337 l 1
 -343 297 l 1
 -358 325 l 1
 -278 390 -259 400 -235 400 c 0
 -217 400 -210 380 -210 350 c 2
 -210 248 l 1
 -190 217 l 1
 -232 0 l 1
 -300 0 l 1
-460 310 m 3
 -474 310 -482 316 -492 316 c 1
 -522 316 -584 245 -602 155 c 1
 -600 250 l 1
 -565 335 -505 400 -455 400 c 1
 -435 400 -415 385 -415 362 c 1
 -415 337 -440 310 -460 310 c 3
-700 0 m 1
 -655 225 l 1
 -665 340 l 1
 -733 297 l 1
 -748 325 l 1
 -668 390 -649 400 -625 400 c 0
 -607 400 -600 380 -600 350 c 2
 -600 250 l 1
 -590 217 l 1
 -632 0 l 1
 -700 0 l 1
-825 307 m 3
 -840 307 -855 317 -865 317 c 1
 -890 317 -921 295 -946 253 c 1
 -946 298 l 1
 -906 353 -866 400 -816 400 c 1
 -793 400 -775 385 -775 360 c 1
 -775 330 -805 307 -825 307 c 3
-1082 35 m 1
 -860 35 l 1
 -860 0 l 1
 -1082 0 l 1
 -1082 35 l 1
-1071 345 m 1
 -956 404 l 1
 -946 404 l 1
 -946 0 l 1
 -1020 0 l 1
 -1020 295 l 1
 -1071 335 l 1
 -1071 345 l 1
EndSplineSet
Fore
SplineSet
293 308 m 3
 279 308 270 315 260 315 c 1
 230 315 183 255 163 155 c 1
 160 252 l 1
 200 347 250 400 300 400 c 1
 320 400 340 385 340 362 c 1
 340 335 315 308 293 308 c 3
65 0 m 1
 103 190 l 1
 85 335 l 1
 25 295 l 1
 10 323 l 1
 90 390 105 400 129 400 c 0
 146 400 151 385 153 355 c 2
 160 252 l 1
 175 217 l 1
 133 0 l 1
 65 0 l 1
EndSplineSet
EndChar

StartChar: k
Encoding: 107 107 8
Width: 415
Flags: HW
LayerCount: 2
Back
SplineSet
315 304 m 0
 315 321 302 337 285 337 c 1
 243 337 143 242 122 107 c 1
 142 250 l 1
 202 355 270 400 320 400 c 0
 357 400 390 365 390 320 c 0
 390 262 325 207 240 172 c 1
 314 53 l 1
 381 102 l 1
 402 77 l 1
 332 7 315 -9 290 -9 c 1
 268 -9 255 5 238 35 c 2
 160 168 l 1
 160 178 l 1
 265 206 315 254 315 304 c 0
37 0 m 1
 130 565 l 1
 81 595 l 1
 81 605 l 1
 203 640 l 1
 213 640 l 1
 142 250 l 1
 142 235 l 1
 105 0 l 1
 37 0 l 1
-160 304 m 0
 -160 321 -173 337 -190 337 c 1
 -230 337 -328 238 -348 108 c 1
 -328 250 l 1
 -271 355 -204 400 -155 400 c 0
 -120 400 -85 367 -85 322 c 0
 -85 262 -145 208 -230 173 c 1
 -155 50 l 1
 -91 95 l 1
 -71 70 l 1
 -126 15 -155 -8 -180 -8 c 1
 -200 -8 -215 5 -232 35 c 2
 -310 170 l 1
 -310 180 l 1
 -205 207 -160 254 -160 304 c 0
-433 0 m 1
 -340 565 l 1
 -389 595 l 1
 -389 605 l 1
 -267 640 l 1
 -257 640 l 1
 -328 250 l 1
 -328 235 l 1
 -365 0 l 1
 -433 0 l 1
-580 305 m 0
 -580 322 -593 338 -610 338 c 1
 -652 338 -747 230 -771 85 c 1
 -752 229 l 1
 -702 344 -630 400 -575 400 c 0
 -540 400 -510 370 -510 325 c 0
 -510 265 -565 205 -650 175 c 1
 -575 50 l 1
 -505 95 l 1
 -485 70 l 1
 -540 15 -570 -8 -595 -8 c 1
 -615 -8 -633 5 -650 35 c 2
 -730 175 l 1
 -730 185 l 1
 -625 210 -580 250 -580 305 c 0
-853 0 m 1
 -760 565 l 1
 -809 595 l 1
 -809 605 l 1
 -687 640 l 1
 -677 640 l 1
 -752 229 l 1
 -748 229 l 1
 -785 0 l 1
 -853 0 l 1
-1030 305 m 0
 -1030 323 -1043 338 -1060 338 c 1
 -1102 338 -1206 235 -1231 85 c 1
 -1213 224 l 1
 -1158 334 -1080 400 -1025 400 c 0
 -990 400 -960 370 -960 325 c 0
 -960 265 -1023 205 -1108 177 c 1
 -1022 50 l 1
 -960 95 l 1
 -940 70 l 1
 -995 15 -1021 -8 -1043 -8 c 1
 -1063 -8 -1075 0 -1095 30 c 2
 -1190 175 l 1
 -1190 185 l 1
 -1085 210 -1030 250 -1030 305 c 0
-1313 0 m 1
 -1220 565 l 1
 -1269 595 l 1
 -1269 605 l 1
 -1147 640 l 1
 -1137 640 l 1
 -1213 224 l 1
 -1208 222 l 1
 -1245 0 l 1
 -1313 0 l 1
-1480 305 m 0
 -1480 323 -1493 338 -1510 338 c 1
 -1552 338 -1656 235 -1681 85 c 1
 -1663 224 l 1
 -1608 334 -1530 400 -1475 400 c 0
 -1440 400 -1410 370 -1410 325 c 0
 -1410 265 -1470 205 -1560 175 c 1
 -1472 50 l 1
 -1410 95 l 1
 -1390 70 l 1
 -1445 15 -1468 -8 -1490 -8 c 1
 -1510 -8 -1519 0 -1540 30 c 2
 -1640 175 l 1
 -1640 185 l 1
 -1535 210 -1480 250 -1480 305 c 0
-1763 0 m 1
 -1670 565 l 1
 -1719 595 l 1
 -1719 605 l 1
 -1597 640 l 1
 -1587 640 l 1
 -1663 224 l 1
 -1658 222 l 1
 -1695 0 l 1
 -1763 0 l 1
820 305 m 0
 820 323 807 338 790 338 c 1
 748 338 644 235 619 85 c 1
 637 224 l 1
 692 334 770 400 825 400 c 0
 860 400 890 370 890 325 c 0
 890 265 830 210 745 178 c 1
 845 45 l 2
 865 18 888 -5 910 -20 c 1
 890 -50 l 1
 785 0 l 1
 660 175 l 1
 660 185 l 1
 765 210 820 250 820 305 c 0
537 0 m 1
 630 565 l 1
 581 595 l 1
 581 605 l 1
 703 640 l 1
 713 640 l 1
 637 224 l 1
 642 222 l 1
 605 0 l 1
 537 0 l 1
-1930 305 m 0
 -1930 323 -1943 338 -1960 338 c 1
 -2002 338 -2106 235 -2131 85 c 1
 -2113 224 l 1
 -2058 334 -1980 400 -1925 400 c 0
 -1890 400 -1860 370 -1860 325 c 0
 -1860 265 -1920 205 -2010 175 c 1
 -1905 45 l 1
 -1850 95 l 1
 -1830 70 l 1
 -1880 11 -1895 -10 -1920 -10 c 1
 -1940 -10 -1956 9 -1980 40 c 2
 -2085 175 l 1
 -2085 185 l 1
 -1985 210 -1930 251 -1930 305 c 0
-2213 0 m 1
 -2120 565 l 1
 -2169 595 l 1
 -2169 605 l 1
 -2047 640 l 1
 -2037 640 l 1
 -2113 224 l 1
 -2108 222 l 1
 -2145 0 l 1
 -2213 0 l 1
-2360 305 m 0
 -2360 323 -2373 338 -2390 338 c 1
 -2432 338 -2536 235 -2561 85 c 1
 -2543 224 l 1
 -2488 334 -2410 400 -2355 400 c 0
 -2320 400 -2290 370 -2290 325 c 0
 -2290 265 -2350 205 -2440 175 c 1
 -2300 0 l 1
 -2380 0 l 1
 -2515 175 l 1
 -2515 185 l 1
 -2415 210 -2360 251 -2360 305 c 0
-2643 0 m 1
 -2550 565 l 1
 -2599 595 l 1
 -2599 605 l 1
 -2477 640 l 1
 -2467 640 l 1
 -2543 224 l 1
 -2538 222 l 1
 -2575 0 l 1
 -2643 0 l 1
EndSplineSet
Fore
SplineSet
315 304 m 0
 315 321 302 337 285 337 c 1
 243 337 144 243 125 128 c 1
 145 262 l 1
 205 354 270 400 320 400 c 0
 357 400 390 365 390 320 c 0
 390 262 325 207 240 172 c 1
 314 53 l 1
 381 102 l 1
 402 77 l 1
 332 7 315 -9 290 -9 c 1
 268 -9 255 5 238 35 c 2
 160 168 l 1
 160 178 l 1
 265 206 315 254 315 304 c 0
37 0 m 1
 130 565 l 1
 85 595 l 1
 85 605 l 1
 203 640 l 1
 213 640 l 1
 145 262 l 1
 145 255 l 1
 105 0 l 1
 37 0 l 1
EndSplineSet
EndChar

StartChar: u
Encoding: 117 117 9
Width: 468
Flags: HW
LayerCount: 2
Back
SplineSet
60 95 m 2
 113 325 l 1
 23 260 l 1
 3 285 l 1
 98 375 126 400 161 400 c 0
 186 400 191 368 183 333 c 2
 130 100 l 18
 124 75 128 57 142 57 c 1
 184 57 297 175 323 305 c 1
 309 180 l 1
 252 70 165 -10 105 -10 c 0
 68 -10 45 30 60 95 c 2
408 390 m 1
 343 65 l 1
 432 114 l 1
 448 86 l 1
 353 11 322 -10 295 -10 c 0
 265 -10 266 27 290 112 c 2
 309 180 l 1
 299 185 l 1
 340 390 l 1
 408 390 l 1
-480 95 m 2
 -427 325 l 1
 -517 260 l 1
 -537 285 l 1
 -442 375 -414 400 -379 400 c 0
 -354 400 -349 368 -357 333 c 2
 -410 100 l 18
 -416 75 -414 55 -400 55 c 1
 -360 55 -246 160 -220 290 c 1
 -230 180 l 1
 -280 75 -375 -10 -440 -10 c 0
 -482 -10 -495 30 -480 95 c 2
-132 390 m 1
 -197 65 l 1
 -108 114 l 1
 -92 86 l 1
 -187 11 -218 -10 -245 -10 c 0
 -275 -10 -267 40 -250 105 c 2
 -230 180 l 1
 -243 175 l 1
 -200 390 l 1
 -132 390 l 1
-717 65 m 1
 -627 115 l 1
 -610 88 l 1
 -700 13 -732 -10 -762 -10 c 0
 -792 -10 -802 18 -772 128 c 1025
-1001 105 m 2
 -947 325 l 1
 -1037 260 l 1
 -1057 285 l 1
 -962 375 -934 400 -899 400 c 0
 -874 400 -869 368 -877 333 c 2
 -934 98 l 18
 -940 73 -931 55 -917 55 c 1
 -882 55 -768 150 -742 280 c 1
 -748 175 l 1
 -798 65 -897 -10 -962 -10 c 0
 -1002 -10 -1018 35 -1001 105 c 2
-652 390 m 1
 -717 65 l 1
 -707 65 l 1
 -637 102 l 1
 -624 72 l 1
 -712 7 -742 -10 -767 -10 c 0
 -785 -10 -790 10 -782 40 c 2
 -748 175 l 1
 -763 175 l 1
 -720 390 l 1
 -652 390 l 1
1369 285 m 2
 1315 65 l 1
 1405 130 l 1
 1425 105 l 1
 1330 15 1302 -10 1267 -10 c 0
 1242 -10 1237 22 1245 57 c 2
 1302 292 l 18
 1308 317 1299 335 1285 335 c 1
 1250 335 1136 240 1110 110 c 1
 1116 215 l 1
 1166 325 1265 400 1330 400 c 0
 1370 400 1386 355 1369 285 c 2
1020 0 m 1
 1085 325 l 1
 1075 325 l 1
 1005 288 l 1
 992 318 l 1
 1080 383 1110 400 1135 400 c 0
 1153 400 1158 380 1150 350 c 2
 1116 215 l 1
 1131 215 l 1
 1088 0 l 1
 1020 0 l 1
884 285 m 2
 840 65 l 1
 930 130 l 1
 950 105 l 1
 855 15 827 -10 792 -10 c 0
 767 -10 763 20 770 55 c 2
 815 280 l 2
 822 315 815 335 795 335 c 3
 755 335 657 245 630 110 c 1
 637 220 l 1
 682 330 780 400 845 400 c 0
 885 400 898 355 884 285 c 2
540 0 m 1
 605 325 l 1
 595 325 l 1
 525 285 l 1
 510 315 l 1
 600 385 630 400 655 400 c 0
 673 400 678 380 670 350 c 2
 637 220 l 1
 652 220 l 1
 608 0 l 1
 540 0 l 1
EndSplineSet
Fore
SplineSet
65 95 m 2
 118 325 l 1
 28 260 l 1
 8 285 l 1
 103 375 131 400 166 400 c 0
 191 400 196 368 188 333 c 2
 135 100 l 18
 129 75 133 57 147 57 c 1
 192 57 303 180 330 315 c 1
 314 180 l 1
 259 70 165 -10 105 -10 c 0
 65 -10 50.0205078125 29.9951171875 65 95 c 2
413 390 m 1
 348 65 l 1
 437 114 l 1
 453 86 l 1
 358 11 327 -10 300 -10 c 0
 270 -10 271 27 295 112 c 2
 314 180 l 1
 304 185 l 1
 345 390 l 1
 413 390 l 1
EndSplineSet
EndChar

StartChar: b
Encoding: 98 98 10
Width: 400
Flags: HW
LayerCount: 2
Back
SplineSet
49 75 m 2
 129 565 l 1
 80 595 l 1
 80 605 l 1
 202 640 l 1
 212 640 l 1
 145 260 l 1
 200 352 265 400 315 400 c 0
 362 400 387 355 387 305 c 0
 387 165 263 -10 141 -10 c 0
 86 -10 42 30 49 75 c 2
122 90 m 2
 118 62 136 32 163 32 c 0
 238 32 312 175 312 285 c 0
 312 315 300 338 280 338 c 0
 230 338 141 220 127 125 c 2
 122 90 l 2
-412 70 m 2
 -331 565 l 1
 -380 595 l 1
 -380 605 l 1
 -258 640 l 1
 -248 640 l 1
 -314 265 l 1
 -259 350 -195 400 -140 400 c 0
 -95 400 -70 355 -70 305 c 0
 -70 165 -200 -10 -320 -10 c 0
 -370 -10 -419 30 -412 70 c 2
-339 85 m 0
 -341 65 -320 34 -298 34 c 0
 -223 34 -145 170 -145 285 c 0
 -145 317 -158 340 -178 340 c 0
 -243 340 -327 205 -339 85 c 0
-781 85 m 2
 -784 65 -765 34 -740 34 c 0
 -665 34 -595 176 -595 291 c 0
 -595 319 -608 340 -630 340 c 0
 -675 340 -752 263 -777 108 c 9
 -781 85 l 2
-852 70 m 2
 -760 631 l 1
 -690 631 l 1
 -753 270 l 1
 -705 350 -645 400 -590 400 c 0
 -545 400 -520 363 -520 311 c 0
 -520 171 -645 -10 -765 -10 c 0
 -815 -10 -859 30 -852 70 c 2
-1256 51 m 1
 -1248 41 -1237 36 -1222 36 c 0
 -1147 36 -1063 176 -1063 291 c 0
 -1063 319 -1076 339 -1098 339 c 0
 -1144 339 -1222 256 -1247 106 c 2
 -1256 51 l 1
-1336 -14 m 1
 -1230 631 l 1
 -1160 631 l 1
 -1221 277 l 1
 -1173 357 -1113 400 -1058 400 c 0
 -1016 400 -988 363 -988 311 c 0
 -988 171 -1123 -10 -1243 -10 c 0
 -1258 -10 -1277 -4 -1288 3 c 1
 -1316 -14 l 1
 -1336 -14 l 1
-1157 640 m 1
 -1256 60 l 1
 -1168 127 l 1
 -1148 101 l 1
 -1238 16 -1268 -10 -1302 -10 c 0
 -1325 -10 -1332 13 -1325 55 c 2
 -1240 565 l 1
 -1289 595 l 1
 -1289 605 l 1
 -1167 640 l 1
 -1157 640 l 1
EndSplineSet
Fore
SplineSet
44 75 m 2
 124 565 l 1
 75 595 l 1
 75 605 l 1
 197 640 l 1
 207 640 l 1
 140 260 l 1
 192 350 260 400 310 400 c 0
 356 400 383 355 383 305 c 0
 383 165 261 -10 141 -10 c 0
 86 -10 37 30 44 75 c 2
117 90 m 2
 113 62 136 32 163 32 c 0
 238 32 305 175 305 285 c 0
 305 313 293 337 273 337 c 0
 223 337 136 223 122 125 c 2
 117 90 l 2
EndSplineSet
EndChar

StartChar: period
Encoding: 46 46 12
Width: 230
Flags: HW
LayerCount: 2
Back
SplineSet
65 45 m 0
 70 77 100 103 130 103 c 0
 160 103 180 77 175 45 c 0
 170 13 140 -13 110 -13 c 0
 80 -13 60 13 65 45 c 0
EndSplineSet
Fore
SplineSet
59 37 m 0
 59 72 91 103 125 103 c 0
 153 103 171 81 171 53 c 0
 171 18 139 -13 105 -13 c 0
 77 -13 59 9 59 37 c 0
EndSplineSet
EndChar

StartChar: d
Encoding: 100 100 13
Width: 410
Flags: HW
LayerCount: 2
Back
SplineSet
398 640 m 1
 300 65 l 1
 390 115 l 1
 407 88 l 1
 317 13 285 -10 255 -10 c 0
 225 -10 215 18 245 128 c 1
 200 46 133 -10 78 -10 c 0
 33 -10 10 25 10 80 c 0
 10 215 130 385 250 385 c 3
 262 385 276 383 285 381 c 1
 314 560 l 1
 255 590 l 1
 255 600 l 1
 388 640 l 1
 398 640 l 1
277 330 m 1
 268 339 256 346 238 346 c 3
 170 346 85 215 85 110 c 3
 85 75 97 55 117 55 c 3
 163 55 252 145 277 330 c 1
-32 640 m 1
 -130 65 l 1
 -40 115 l 1
 -23 88 l 1
 -113 13 -145 -10 -175 -10 c 0
 -205 -10 -215 20 -185 130 c 1
 -240 45 -303 -10 -358 -10 c 0
 -398 -10 -420 25 -420 70 c 0
 -420 215 -300 385 -180 385 c 3
 -168 385 -156 383 -146 380 c 1
 -115 565 l 1
 -164 595 l 1
 -164 605 l 1
 -42 640 l 1
 -32 640 l 1
-153 330 m 1
 -163 339 -177 345 -195 345 c 3
 -265 345 -345 210 -345 105 c 3
 -345 77 -333 60 -315 60 c 3
 -270 60 -178 140 -153 330 c 1
-492 640 m 1
 -590 65 l 1
 -500 115 l 1
 -483 88 l 1
 -573 13 -605 -10 -635 -10 c 0
 -665 -10 -675 20 -645 130 c 1
 -700 45 -763 -10 -818 -10 c 0
 -858 -10 -880 25 -880 70 c 0
 -880 195 -755 385 -645 385 c 3
 -633 385 -616 383 -606 380 c 1
 -575 565 l 1
 -624 595 l 1
 -624 605 l 1
 -502 640 l 1
 -492 640 l 1
-615 320 m 1
 -629 331 -643 335 -665 335 c 3
 -725 335 -805 210 -805 100 c 3
 -805 75 -795 60 -780 60 c 3
 -735 60 -640 125 -615 320 c 1
-982 405 m 1
 -1049 70 l 1
 -960 140 l 1
 -935 120 l 1
 -1020 30 -1060 -10 -1095 -10 c 0
 -1130 -10 -1135 20 -1100 140 c 1
 -1160 45 -1218 -10 -1273 -10 c 0
 -1305 -10 -1330 22 -1330 60 c 0
 -1330 190 -1145 380 -1035 385 c 1
 -1022 405 l 1
 -982 405 l 1
-1070 305 m 1
 -1074 308 -1083 310 -1090 310 c 3
 -1160 310 -1253 190 -1253 100 c 3
 -1253 80 -1244 65 -1232 65 c 3
 -1187 65 -1095 160 -1070 305 c 1
-942 640 m 1
 -1041 60 l 1
 -953 127 l 1
 -933 101 l 1
 -1023 16 -1053 -10 -1087 -10 c 0
 -1110 -10 -1117 13 -1110 55 c 2
 -1025 565 l 1
 -1074 595 l 1
 -1074 605 l 1
 -952 640 l 1
 -942 640 l 1
EndSplineSet
Fore
SplineSet
398 640 m 1
 300 65 l 1
 390 115 l 1
 407 88 l 1
 317 13 285 -10 255 -10 c 0
 225 -10 215 18 245 128 c 1
 200 48 133 -10 78 -10 c 0
 36 -10 12 25 12 80 c 0
 12 215 130 385 250 385 c 3
 262 385 276 383 285 381 c 1
 314 560 l 1
 260 590 l 1
 260 600 l 1
 388 640 l 1
 398 640 l 1
278 330 m 1
 269 339 256 346 238 346 c 3
 170 346 85 215 85 110 c 3
 85 75 97 55 117 55 c 3
 162 55 251 142 276 316 c 2
 278 330 l 1
EndSplineSet
EndChar

StartChar: a
Encoding: 97 97 14
Width: 410
Flags: HW
LayerCount: 2
Back
SplineSet
358 405 m 1
 291 70 l 1
 380 140 l 1
 405 120 l 1
 320 30 280 -10 245 -10 c 0
 210 -10 205 20 240 138 c 1
 183 45 122 -10 67 -10 c 0
 35 -10 10 22 10 60 c 0
 10 190 195 380 305 385 c 1
 318 405 l 1
 358 405 l 1
270 305 m 1
 266 308 257 310 250 310 c 3
 180 310 87 190 87 100 c 3
 87 82 94 65 108 65 c 3
 153 65 245 160 270 305 c 1
-82 405 m 1
 -149 70 l 1
 -60 140 l 1
 -35 120 l 1
 -120 30 -160 -10 -195 -10 c 0
 -230 -10 -235 20 -200 140 c 1
 -260 45 -318 -10 -373 -10 c 0
 -405 -10 -430 22 -430 60 c 0
 -430 190 -245 380 -135 385 c 1
 -122 405 l 1
 -82 405 l 1
-170 305 m 1
 -174 308 -183 310 -190 310 c 3
 -260 310 -353 190 -353 100 c 3
 -353 80 -344 65 -332 65 c 3
 -287 65 -195 160 -170 305 c 1
-572 405 m 1
 -630 115 l 2
 -637 80 -635 65 -625 65 c 3
 -605 65 -562 114 -545 140 c 1
 -520 120 l 1
 -570 40 -620 -10 -665 -10 c 0
 -705 -10 -728 25 -690 140 c 1
 -750 45 -808 -10 -863 -10 c 0
 -895 -10 -920 22 -920 60 c 0
 -920 225 -740 380 -625 385 c 1
 -612 405 l 1
 -572 405 l 1
-660 305 m 1
 -664 308 -673 310 -680 310 c 3
 -755 310 -843 220 -843 105 c 3
 -843 80 -834 65 -822 65 c 3
 -777 65 -683 160 -660 305 c 1
766 310 m 1
 762 313 753 315 746 315 c 3
 671 315 582 235 582 110 c 3
 582 80 591 65 605 65 c 3
 650 65 735 160 766 310 c 1
730 135 m 1
 670 45 615 -10 560 -10 c 0
 530 -10 505 20 505 60 c 0
 505 235 692 399 822 399 c 0
 832 399 844 397 851 395 c 1
 785 65 l 1
 880 140 l 1
 905 120 l 1
 815 25 777 -10 737 -10 c 0
 702 -10 705 35 730 135 c 1
-1062 405 m 1
 -1130 65 l 1
 -1105 70 -1065 100 -1035 145 c 1
 -1010 125 l 1
 -1060 45 -1115 -10 -1160 -10 c 0
 -1200 -10 -1220 25 -1180 140 c 1
 -1240 45 -1298 -10 -1353 -10 c 0
 -1385 -10 -1410 22 -1410 60 c 0
 -1410 225 -1230 380 -1115 385 c 1
 -1102 405 l 1
 -1062 405 l 1
-1150 305 m 1
 -1154 308 -1163 310 -1170 310 c 3
 -1245 310 -1333 220 -1333 105 c 3
 -1333 80 -1324 65 -1312 65 c 3
 -1267 65 -1173 160 -1150 305 c 1
813 -155 m 1
 745 -495 l 1
 770 -490 810 -460 840 -415 c 1
 865 -435 l 1
 815 -515 760 -570 715 -570 c 0
 675 -570 655 -535 695 -420 c 1
 635 -515 577 -570 522 -570 c 0
 490 -570 465 -538 465 -500 c 0
 465 -335 645 -180 760 -175 c 1
 773 -155 l 1
 813 -155 l 1
725 -255 m 1
 721 -252 712 -250 705 -250 c 3
 630 -250 542 -345 542 -455 c 3
 542 -480 551 -495 563 -495 c 3
 608 -495 705 -400 725 -255 c 1
363 -155 m 1
 295 -495 l 1
 320 -490 360 -460 390 -415 c 1
 415 -435 l 1
 365 -515 310 -570 265 -570 c 0
 225 -570 205 -535 245 -420 c 1
 185 -515 127 -570 72 -570 c 0
 40 -570 15 -538 15 -500 c 0
 15 -335 195 -180 310 -175 c 1
 323 -155 l 1
 363 -155 l 1
-212 -405 m 17
 -277 -520 -330 -570 -380 -570 c 3
 -410 -570 -435 -540 -435 -500 c 3
 -435 -380 -285 -181 -160 -181 c 3
 -148 -181 -132 -184 -123 -188 c 9
 -212 -405 l 17
-173 -258 m 1
 -179 -253 -190 -250 -200 -250 c 3
 -275 -250 -365 -370 -365 -465 c 3
 -365 -483 -357 -495 -345 -495 c 3
 -310 -495 -208 -388 -173 -258 c 1
-118 -170 m 1
 -80 -170 l 1
 -155 -445 l 2
 -161 -467 -165 -495 -150 -495 c 3
 -125 -495 -90 -455 -65 -410 c 9
 -40 -425 l 1
 -80 -505 -140 -570 -195 -570 c 3
 -230 -570 -248 -530 -230 -465 c 2
 -165 -225 l 1
 -118 -170 l 1
-1564 310 m 1
 -1568 313 -1577 315 -1584 315 c 3
 -1659 315 -1753 215 -1753 105 c 3
 -1753 80 -1744 65 -1732 65 c 3
 -1682 65 -1595 160 -1564 310 c 1
275 -255 m 1
 271 -252 262 -250 255 -250 c 3
 180 -250 92 -345 92 -455 c 3
 92 -480 101 -495 113 -495 c 3
 158 -495 255 -400 275 -255 c 1
-1600 135 m 1
 -1660 40 -1713 -10 -1768 -10 c 0
 -1800 -10 -1825 22 -1825 60 c 0
 -1825 235 -1630 398 -1500 398 c 0
 -1490 398 -1478 396 -1471 394 c 1
 -1553 66 l 1
 -1528 71 -1485 95 -1455 140 c 1
 -1430 120 l 1
 -1480 40 -1530 -10 -1575 -10 c 0
 -1615 -10 -1642 20 -1600 135 c 1
-1514 339 m 25
 -1492 357 l 1
 -1495 333 l 25
 -1498 334 l 25
 -1496 350 l 25
 -1506 340 l 25
 -1489 342 l 25
 -1489 339 l 25
 -1514 337 l 1
 -1514 339 l 25
-1472 390 m 1
 -1487 330 l 1
 -1527 330 l 1
 -1472 390 l 1
-2105 140 m 1
 -2165 45 -2223 -10 -2278 -10 c 0
 -2310 -10 -2335 22 -2335 60 c 0
 -2335 225 -2138 399 -2018 399 c 0
 -2008 399 -1996 397 -1989 395 c 1
 -2042 130 l 17
 -2055 65 l 1
 -2030 70 -1990 100 -1960 145 c 1
 -1935 125 l 1
 -1985 45 -2040 -10 -2085 -10 c 0
 -2125 -10 -2145 25 -2105 140 c 1
-2074 310 m 1
 -2078 313 -2087 315 -2094 315 c 3
 -2164 315 -2263 215 -2263 105 c 3
 -2263 80 -2254 65 -2242 65 c 3
 -2197 65 -2094 165 -2074 310 c 1
EndSplineSet
Fore
SplineSet
356 405 m 1
 297 110 l 1
 297 69 l 1
 385 140 l 1
 410 120 l 1
 325 30 286 -10 251 -10 c 0
 219 -10 209 22 239 140 c 1
 182 47 117 -10 65 -10 c 0
 33 -10 8 22 8 60 c 0
 8 190 193 380 303 385 c 1
 316 405 l 1
 356 405 l 1
268 305 m 1
 264 308 255 310 248 310 c 3
 178 310 85 190 85 100 c 3
 85 82 92 65 106 65 c 3
 151 65 243 155 268 305 c 1
EndSplineSet
EndChar

StartChar: q
Encoding: 113 113 15
Width: 410
Flags: HW
LayerCount: 2
Back
SplineSet
279 340 m 1
 271 350 259 355 245 355 c 0
 170 355 85 215 85 100 c 0
 85 75 97 53 117 53 c 0
 162 53 245 135 270 285 c 2
 279 340 l 1
358 405 m 1
 250 -240 l 1
 180 -240 l 1
 242 115 l 1
 192 38 134 -10 77 -10 c 0
 37 -10 10 25 10 80 c 0
 10 220 145 401 265 401 c 0
 280 401 299 395 310 388 c 1
 338 405 l 1
 358 405 l 1
120 -215 m 1
 335 -215 l 1
 330 -250 l 1
 115 -250 l 1
 120 -215 l 1
-113 330 m 1
 -122 339 -134 346 -152 346 c 0
 -220 346 -305 215 -305 110 c 0
 -305 75 -293 55 -273 55 c 0
 -228 55 -140 141 -115 316 c 2
 -113 330 l 1
-32 405 m 1
 -90 65 l 1
 -192 -125 l 1
 -145 128 l 1
 -190 48 -257 -10 -312 -10 c 0
 -354 -10 -378 25 -378 80 c 0
 -378 215 -260 385 -140 385 c 0
 -128 385 -114 383 -105 381 c 1
 -52 405 l 1
 -32 405 l 1
-270 -215 m 1
 -55 -215 l 1
 -60 -250 l 1
 -275 -250 l 1
 -270 -215 l 1
-270 -215 m 1
 -55 -215 l 1
 -60 -250 l 1
 -275 -250 l 1
 -270 -215 l 1
-90 60 m 1
 -140 -240 l 1
 -210 -240 l 1
 -90 430 l 1
 -25 445 l 1
 -90 60 l 1
EndSplineSet
Fore
SplineSet
278 340 m 1
 270 350 259 355 244 355 c 0
 169 355 85 215 85 100 c 0
 85 72 98 52 120 52 c 0
 166 52 244 135 269 285 c 2
 278 340 l 1
358 405 m 1
 252 -240 l 1
 182 -240 l 1
 243 114 l 1
 195 34 135 -9 80 -9 c 0
 38 -9 10 28 10 80 c 0
 10 220 145 401 265 401 c 0
 280 401 299 395 310 388 c 1
 338 405 l 1
 358 405 l 1
120 -215 m 1
 335 -215 l 1
 330 -250 l 1
 115 -250 l 1
 120 -215 l 1
EndSplineSet
EndChar

StartChar: p
Encoding: 112 112 16
Width: 400
Flags: HW
LayerCount: 2
Back
SplineSet
130 60 m 17
 142 46 167 35 189 35 c 0
 259 35 307 175 307 275 c 0
 307 310 289 335 257 335 c 0
 207 335 115 300 25 255 c 1
 10 285 l 1
 115 343 230 390 300 390 c 0
 352 390 385 353 385 295 c 0
 385 155 290 -5 175 -5 c 0
 160 -5 134 0 120 7 c 9
 130 60 l 17
-45 -215 m 1
 170 -215 l 1
 165 -250 l 1
 -50 -250 l 1
 -45 -215 l 1
135 60 m 1
 85 -240 l 1
 15 -240 l 1
 135 430 l 1
 200 445 l 1
 135 60 l 1
-310 60 m 17
 -298 46 -273 35 -251 35 c 0
 -181 35 -133 175 -133 275 c 0
 -133 310 -151 335 -183 335 c 0
 -233 335 -325 300 -415 255 c 1
 -430 285 l 1
 -325 343 -210 390 -140 390 c 0
 -88 390 -55 353 -55 295 c 0
 -55 155 -150 -5 -265 -5 c 0
 -280 -5 -306 0 -320 7 c 9
 -310 60 l 17
-490 -215 m 1
 -275 -215 l 1
 -280 -250 l 1
 -495 -250 l 1
 -490 -215 l 1
-310 60 m 1
 -360 -240 l 1
 -430 -240 l 1
 -310 430 l 1
 -245 445 l 1
 -310 60 l 1
607 60 m 1
 619 46 642 35 664 35 c 3
 739 35 792 175 792 285 c 3
 792 313 780 338 760 338 c 3
 712 338 641 265 617 120 c 2
 607 60 l 1
425 -215 m 1
 640 -215 l 1
 635 -250 l 1
 420 -250 l 1
 425 -215 l 1
635 270 m 1
 677 355 745 400 790 400 c 0
 836 400 870 360 870 300 c 0
 870 155 768 -5 650 -5 c 3
 636 -5 609 0 597 5 c 1
 555 -240 l 1
 485 -240 l 9
 586 334 l 1
 502 275 l 1
 487 305 l 1
 582 385 605 400 630 400 c 0
 660 400 659 371 635 270 c 1
-935 -215 m 1
 -720 -215 l 1
 -725 -250 l 1
 -940 -250 l 1
 -935 -215 l 1
-875 -240 m 9
 -775 330 l 1
 -858 275 l 1
 -873 305 l 1
 -773 385 -752 400 -725 400 c 0
 -707 400 -698 380 -703 350 c 2
 -805 -240 l 17
 -875 -240 l 9
-720 262 m 1
 -675 344 -608 400 -553 400 c 0
 -508 400 -485 365 -485 310 c 0
 -485 175 -605 5 -725 5 c 3
 -737 5 -751 7 -760 9 c 1025
-752 60 m 1
 -743 51 -731 44 -713 44 c 3
 -645 44 -560 175 -560 280 c 3
 -560 315 -572 335 -592 335 c 3
 -637 335 -727 240 -752 60 c 1
-855 -215 m 1
 -640 -215 l 1
 -640 -250 l 1
 -855 -250 l 1
 -855 -215 l 1
EndSplineSet
Fore
SplineSet
132 58 m 17
 145 44 169 35 189 35 c 0
 259 35 307 175 307 275 c 0
 307 310 289 335 257 335 c 0
 207 335 115 300 25 255 c 1
 10 285 l 1
 115 343 230 390 300 390 c 0
 352 390 385 353 385 295 c 0
 385 155 290 -5 175 -5 c 0
 163 -5 138 -1 125 5 c 9
 132 58 l 17
-45 -215 m 1
 170 -215 l 1
 165 -250 l 1
 -50 -250 l 1
 -45 -215 l 1
134 55 m 1
 85 -240 l 1
 15 -240 l 1
 135 430 l 1
 200 445 l 1
 134 55 l 1
EndSplineSet
EndChar

StartChar: f
Encoding: 102 102 17
Width: 260
Flags: HW
LayerCount: 2
Back
SplineSet
40 340 m 1
 40 370 l 1
 120 392 l 1
 145 390 l 1
 292 390 l 1
 280 340 l 1
 40 340 l 1
115 -85 m 2
 99 -190 20 -260 -45 -260 c 1
 -75 -260 -95 -245 -95 -225 c 1
 -95 -201 -74 -180 -50 -180 c 1
 -25 -180 -21 -198 1 -198 c 1
 21 -198 36 -170 47 -95 c 2
 129 455 l 2
 147 575 250 655 325 655 c 1
 350 655 370 640 370 620 c 1
 370 595 347 570 323 570 c 1
 296 570 289 592 265 592 c 1
 235 592 213 540 201 465 c 2
 115 -85 l 2
-335 -60 m 2
 -352 -180 -447 -260 -522 -260 c 1
 -547 -260 -567 -245 -567 -225 c 1
 -567 -200 -544 -175 -520 -175 c 1
 -493 -175 -486 -197 -462 -197 c 1
 -432 -197 -417 -150 -405 -75 c 1026
480 340 m 1
 480 370 l 1
 555 392 l 1
 580 390 l 1
 732 390 l 1
 720 340 l 1
 480 340 l 1
458 -260 m 1
 564 455 l 2
 581 575 685 655 760 655 c 1
 785 655 805 640 805 620 c 1
 805 595 782 570 758 570 c 1
 731 570 724 592 700 592 c 1
 670 592 648 540 636 465 c 2
 528 -235 l 1
 458 -260 l 1
-410 340 m 1
 -410 370 l 1
 -330 395 l 1
 -310 390 l 1
 -155 390 l 1
 -165 340 l 1
 -410 340 l 1
-393 0 m 1
 -326 455 l 2
 -308 575 -210 655 -135 655 c 1
 -110 655 -90 640 -90 620 c 1
 -90 595 -113 570 -137 570 c 1
 -164 570 -171 592 -195 592 c 1
 -225 592 -243 540 -254 465 c 2
 -325 0 l 1
 -393 0 l 1
-800 340 m 1
 -800 370 l 1
 -720 395 l 1
 -700 390 l 1
 -545 390 l 1
 -555 340 l 1
 -800 340 l 1
-783 0 m 1
 -715 462 l 2
 -698 577 -596 655 -530 655 c 1
 -505 655 -485 640 -485 620 c 1
 -485 595 -507 570 -532 570 c 1
 -559 570 -565 593 -590 593 c 1
 -620 593 -633 535 -644 465 c 2
 -715 0 l 1
 -783 0 l 1
-1193 0 m 1
 -1110 565 l 1
 -1159 595 l 1
 -1159 605 l 1
 -1037 640 l 1
 -1027 640 l 1
 -1125 0 l 1
 -1193 0 l 1
-1620 340 m 1
 -1620 370 l 1
 -1540 400 l 1
 -1510 390 l 1
 -1350 390 l 1
 -1360 340 l 1
 -1620 340 l 1
-1605 35 m 1
 -1385 35 l 1
 -1385 0 l 1
 -1605 0 l 1
 -1605 35 l 1
-1365 570 m 1
 -1390 570 -1401 594 -1426 594 c 1
 -1451 594 -1466 574 -1466 484 c 1
 -1466 0 l 1
 -1540 0 l 1
 -1540 460 l 1
 -1540 560 -1450 655 -1380 655 c 1
 -1340 655 -1320 635 -1320 615 c 1
 -1320 590 -1340 570 -1365 570 c 1
-1219 340 m 1
 -1215 370 l 1
 -1135 400 l 1
 -1108 390 l 1
 -958 390 l 1
 -975 340 l 1
 -1219 340 l 1
-1250 35 m 1
 -1044 35 l 1
 -1049 0 l 1
 -1256 0 l 1
 -1250 35 l 1
-945 570 m 1
 -969 570 -975 594 -999 594 c 1
 -1023 594 -1040 574 -1053 484 c 1
 -1125 0 l 1
 -1195 0 l 1
 -1126 460 l 1
 -1111 560 -1013 655 -947 655 c 1
 -909 655 -893 635 -896 615 c 1
 -900 590 -921 570 -945 570 c 1
EndSplineSet
Fore
SplineSet
40 340 m 1
 40 370 l 1
 120 392 l 1
 145 390 l 1
 292 390 l 1
 280 340 l 1
 40 340 l 1
115 -85 m 2
 99 -190 20 -260 -45 -260 c 1
 -75 -260 -95 -245 -95 -225 c 1
 -95 -201 -74 -180 -50 -180 c 1
 -25 -180 -21 -198 1 -198 c 1
 21 -198 36 -170 47 -95 c 2
 129 455 l 2
 147 577 245 655 320 655 c 1
 345 655 365 640 365 620 c 1
 365 595 342 570 318 570 c 1
 291 570 284 592 260 592 c 1
 231 592 213 540 201 465 c 2
 115 -85 l 2
EndSplineSet
EndChar

StartChar: O
Encoding: 79 79 18
Width: 240
Flags: HW
LayerCount: 2
Back
SplineSet
132 315 m 0
 132 155 225 29 355 29 c 0
 480 29 568 130 568 285 c 0
 568 445 475 572 345 572 c 0
 220 572 132 470 132 315 c 0
35 297 m 0
 35 469 180 612 352 612 c 0
 527 612 665 482 665 307 c 0
 665 135 520 -12 348 -12 c 0
 173 -12 35 122 35 297 c 0
EndSplineSet
Fore
SplineSet
62 45 m 0
 62 77 88 103 120 103 c 0
 152 103 178 77 178 45 c 0
 178 13 152 -13 120 -13 c 0
 88 -13 62 13 62 45 c 0
EndSplineSet
EndChar

StartChar: t
Encoding: 116 116 19
Width: 275
Flags: HW
LayerCount: 2
Back
SplineSet
177 350 m 2
 120 65 l 1
 210 130 l 1
 230 105 l 1
 135 15 107 -10 72 -10 c 0
 47 -10 43 20 50 55 c 2
 105 330 l 1
 22 275 l 1
 7 305 l 1
 107 385 128 400 155 400 c 0
 173 400 183 380 177 350 c 2
-295 370 m 1
 -176 460 l 1
 -161 460 l 1
 -161 105 l 1
 -235 80 l 1
 -235 335 l 1
 -295 350 l 1
 -295 370 l 1
-175 390 m 1
 -35 390 l 1
 -35 342 l 1
 -175 342 l 1
 -175 390 l 1
-161 105 m 1
 -161 72 -140 52 -115 52 c 0
 -85 52 -60 68 -45 93 c 1
 -25 72 l 1
 -50 27 -90 -10 -145 -10 c 0
 -200 -10 -235 30 -235 80 c 1
 -161 105 l 1
EndSplineSet
Fore
SplineSet
35 380 m 1
 105 390 l 1
 285 390 l 1
 280 345 l 1
 35 345 l 1
 35 380 l 1
207 500 m 1
 119 60 l 1
 230 115 l 1
 245 87 l 1
 135 12 105 -10 75 -10 c 0
 47 -10 43 20 52 65 c 2
 110 355 l 1
 157 500 l 1
 207 500 l 1
EndSplineSet
EndChar

StartChar: H
Encoding: 72 72 20
Width: 740
Flags: HW
LayerCount: 2
Back
SplineSet
165 340 m 1
 570 340 l 1
 570 295 l 1
 165 295 l 1
 165 340 l 1
475 600 m 1
 710 600 l 1
 710 560 l 1
 475 560 l 1
 475 600 l 1
475 40 m 1
 710 40 l 1
 710 0 l 1
 475 0 l 1
 475 40 l 1
635 590 m 1
 635 10 l 1
 550 10 l 1
 550 590 l 1
 635 590 l 1
25 600 m 1
 260 600 l 1
 260 560 l 1
 25 560 l 1
 25 600 l 1
25 40 m 1
 260 40 l 1
 260 0 l 1
 25 0 l 1
 25 40 l 1
185 590 m 1
 185 10 l 1
 100 10 l 1
 100 590 l 1
 185 590 l 1
EndSplineSet
Fore
SplineSet
175 340 m 1
 590 340 l 1
 590 295 l 1
 175 295 l 1
 175 340 l 1
535 600 m 1
 780 600 l 1
 775 560 l 1
 530 560 l 1
 535 600 l 1
430 40 m 1
 675 40 l 1
 670 0 l 1
 425 0 l 1
 430 40 l 1
700 590 m 1
 590 10 l 1
 505 10 l 1
 615 590 l 1
 700 590 l 1
95 600 m 1
 340 600 l 1
 335 560 l 1
 90 560 l 1
 95 600 l 1
-10 40 m 1
 235 40 l 1
 230 0 l 1
 -15 0 l 1
 -10 40 l 1
260 590 m 1
 150 10 l 1
 65 10 l 1
 175 590 l 1
 260 590 l 1
EndSplineSet
EndChar

StartChar: I
Encoding: 73 73 21
Width: 300
Flags: HW
LayerCount: 2
Back
SplineSet
20 600 m 1
 265 600 l 1
 265 560 l 1
 20 560 l 1
 20 600 l 1
20 40 m 1
 265 40 l 1
 265 0 l 1
 20 0 l 1
 20 40 l 1
185 590 m 1
 185 10 l 1
 100 10 l 1
 100 590 l 1
 185 590 l 1
20 600 m 1
 265 600 l 1
 265 560 l 1
 20 560 l 1
 20 600 l 1
20 40 m 1
 265 40 l 1
 265 0 l 1
 20 0 l 1
 20 40 l 1
185 590 m 1
 185 10 l 1
 100 10 l 1
 100 590 l 1
 185 590 l 1
EndSplineSet
Fore
SplineSet
95 600 m 1
 340 600 l 1
 335 560 l 1
 90 560 l 1
 95 600 l 1
-10 40 m 1
 235 40 l 1
 230 0 l 1
 -15 0 l 1
 -10 40 l 1
260 590 m 1
 150 10 l 1
 65 10 l 1
 175 590 l 1
 260 590 l 1
EndSplineSet
EndChar

StartChar: L
Encoding: 76 76 22
Width: 470
Flags: HW
LayerCount: 2
Back
SplineSet
95 600 m 1
 340 600 l 1
 335 560 l 1
 90 560 l 1
 95 600 l 1
-10 40 m 1
 90 40 l 1
 130 45 l 1
 295 45 l 1
 350 45 372 60 432 190 c 1
 467 190 l 1
 400 0 l 1
 -15 0 l 1
 -10 40 l 1
260 590 m 1
 150 10 l 1
 65 10 l 1
 175 590 l 1
 260 590 l 1
EndSplineSet
Fore
SplineSet
95 600 m 1
 340 600 l 1
 335 560 l 1
 90 560 l 1
 95 600 l 1
-10 40 m 1
 90 40 l 1
 130 45 l 1
 285 45 l 1
 340 45 367 60 432 175 c 1
 467 175 l 1
 390 0 l 1
 -15 0 l 1
 -10 40 l 1
260 590 m 1
 150 10 l 1
 65 10 l 1
 175 590 l 1
 260 590 l 1
EndSplineSet
EndChar

StartChar: E
Encoding: 69 69 23
Width: 490
Flags: HW
LayerCount: 2
Back
SplineSet
-11 0 m 1
 -4 40 l 1
 85 40 l 1
 152 75 l 1
 149 55 156 45 175 45 c 1
 307 45 l 1
 354 45 372 59 423 164 c 1
 456 164 l 1
 398 0 l 1
 -11 0 l 1
89 600 m 1
 493 600 l 1
 472 455 l 1
 439 455 l 1
 445 545 436 556 394 556 c 1
 213 556 l 9
 171 560 l 17
 82 560 l 1
 89 600 l 1
179 295 m 1
 186 338 l 1
 306 338 l 1
 334 338 343 346 350 388 c 1
 353 405 l 1
 385 405 l 1
 354 215 l 1
 321 215 l 1
 326 245 l 1
 333 287 327 295 299 295 c 1
 179 295 l 1
236 580 m 1
 143 20 l 1
 63 20 l 1
 156 580 l 1
 236 580 l 1
EndSplineSet
Fore
SplineSet
180 295 m 1
 185 338 l 1
 305 338 l 1
 333 338 343 346 350 388 c 2
 353 405 l 1
 385 405 l 1
 353 215 l 1
 320 215 l 1
 325 245 l 2
 332 287 325 295 297 295 c 1
 180 295 l 1
95 600 m 1
 495 600 l 1
 480 456 l 1
 445 456 l 1
 447 541 435 556 400 556 c 1
 210 556 l 1
 180 560 l 1
 90 560 l 1
 95 600 l 1
-10 40 m 1
 90 40 l 1
 130 45 l 1
 330 45 l 1
 380 45 397 60 447 165 c 1
 482 165 l 1
 425 0 l 1
 -15 0 l 1
 -10 40 l 1
260 590 m 1
 150 10 l 1
 65 10 l 1
 175 590 l 1
 260 590 l 1
EndSplineSet
EndChar

StartChar: g
Encoding: 103 103 24
Width: 400
Flags: HW
LayerCount: 2
Back
SplineSet
138 110 m 1
 165 105 l 1
 157 96 147 80 147 68 c 3
 147 46 175 32 235 2 c 0
 315 -38 355 -65 355 -110 c 3
 355 -195 245 -260 115 -260 c 3
 23 -260 -60 -215 -60 -155 c 3
 -60 -97 -5 -63 120 -15 c 1
 150 -35 l 1
 65 -70 15 -105 15 -145 c 3
 15 -190 65 -222 135 -222 c 3
 215 -222 280 -182 280 -135 c 3
 280 -100 240 -83 180 -53 c 0
 120 -23 80 -5 80 30 c 3
 80 52 108 85 138 110 c 1
275 375 m 1
 410 375 l 1
 410 329 l 1
 295 329 l 1
 275 375 l 1
115 230 m 0
 115 172 137 136 172 136 c 0
 222 136 265 198 265 270 c 0
 265 328 243 364 208 364 c 0
 158 364 115 302 115 230 c 0
40 226 m 0
 40 311 120 400 215 400 c 0
 287 400 340 346 340 274 c 0
 340 189 260 100 165 100 c 0
 93 100 40 154 40 226 c 0
-347 110 m 1
 -320 105 l 1
 -328 96 -338 80 -338 68 c 3
 -338 46 -315 32 -255 2 c 0
 -175 -38 -135 -65 -135 -110 c 3
 -135 -200 -250 -260 -380 -260 c 3
 -470 -260 -550 -215 -550 -155 c 3
 -550 -95 -495 -65 -370 -15 c 1
 -340 -35 l 1
 -430 -75 -475 -100 -475 -140 c 3
 -475 -185 -425 -225 -355 -225 c 3
 -275 -225 -210 -185 -210 -135 c 3
 -210 -100 -250 -83 -310 -53 c 0
 -370 -23 -405 -5 -405 30 c 3
 -405 52 -377 86 -347 110 c 1
-205 375 m 1
 -70 375 l 1
 -70 329 l 1
 -185 329 l 1
 -205 375 l 1
-369 231 m 0
 -369 169 -346 135 -308 135 c 0
 -256 135 -211 197 -211 269 c 0
 -211 331 -234 365 -272 365 c 0
 -324 365 -369 303 -369 231 c 0
-445 226 m 0
 -445 311 -360 400 -265 400 c 0
 -190 400 -135 347 -135 274 c 0
 -135 189 -220 100 -315 100 c 0
 -390 100 -445 153 -445 226 c 0
-805 105 m 1
 -780 100 l 1
 -788 90 -795 74 -795 60 c 3
 -795 40 -775 25 -715 -5 c 0
 -635 -45 -595 -70 -595 -115 c 3
 -595 -205 -720 -265 -850 -265 c 3
 -940 -265 -1020 -220 -1020 -160 c 3
 -1020 -100 -955 -70 -830 -20 c 1
 -805 -40 l 1
 -895 -80 -945 -105 -945 -145 c 3
 -945 -190 -895 -230 -825 -230 c 3
 -745 -230 -670 -190 -670 -140 c 3
 -670 -105 -710 -90 -770 -60 c 0
 -830 -30 -865 -10 -865 25 c 3
 -865 50 -835 85 -805 105 c 1
-665 375 m 1
 -530 375 l 1
 -530 329 l 1
 -645 329 l 1
 -665 375 l 1
-830 229 m 0
 -830 167 -806 131 -768 131 c 0
 -716 131 -670 195 -670 267 c 0
 -670 329 -694 365 -732 365 c 0
 -784 365 -830 301 -830 229 c 0
-906 224 m 0
 -906 309 -820 400 -725 400 c 0
 -647 400 -594 347 -594 272 c 0
 -594 187 -680 96 -775 96 c 0
 -853 96 -906 149 -906 224 c 0
-1335 105 m 1
 -1305 105 l 1
 -1313 95 -1320 79 -1320 65 c 3
 -1320 45 -1300 30 -1240 0 c 0
 -1160 -40 -1125 -65 -1125 -110 c 3
 -1125 -200 -1245 -260 -1375 -260 c 3
 -1455 -260 -1545 -215 -1545 -155 c 3
 -1545 -100 -1470 -60 -1350 -15 c 1
 -1325 -35 l 1
 -1415 -75 -1470 -105 -1470 -140 c 3
 -1470 -185 -1415 -225 -1350 -225 c 3
 -1270 -225 -1200 -185 -1200 -135 c 3
 -1200 -100 -1235 -85 -1295 -55 c 0
 -1355 -25 -1390 -5 -1390 30 c 3
 -1390 55 -1360 85 -1335 105 c 1
-1195 375 m 1
 -1060 375 l 1
 -1060 329 l 1
 -1175 329 l 1
 -1195 375 l 1
-1360 229 m 0
 -1360 167 -1336 131 -1298 131 c 0
 -1246 131 -1200 195 -1200 267 c 0
 -1200 329 -1224 365 -1262 365 c 0
 -1314 365 -1360 301 -1360 229 c 0
-1436 224 m 0
 -1436 309 -1350 400 -1255 400 c 0
 -1177 400 -1124 347 -1124 272 c 0
 -1124 187 -1210 96 -1305 96 c 0
 -1383 96 -1436 149 -1436 224 c 0
-1897 253 m 0
 -1910 181 -1890 128 -1839 128 c 0
 -1790 128 -1754 177 -1743 239 c 0
 -1730 311 -1750 364 -1801 364 c 0
 -1850 364 -1886 315 -1897 253 c 0
-1977 246 m 0
 -1961 331 -1879 400 -1791 400 c 0
 -1703 400 -1647 331 -1663 246 c 0
 -1679 161 -1761 92 -1849 92 c 0
 -1937 92 -1993 161 -1977 246 c 0
-2340 257 m 0
 -2340 187 -2309 135 -2257 135 c 0
 -2207 135 -2180 183 -2180 243 c 0
 -2180 313 -2211 365 -2263 365 c 0
 -2313 365 -2340 317 -2340 257 c 0
-2420 250 m 0
 -2420 333 -2350 400 -2260 400 c 0
 -2170 400 -2100 333 -2100 250 c 0
 -2100 167 -2170 100 -2260 100 c 0
 -2350 100 -2420 167 -2420 250 c 0
-970 667 m 0
 -970 597 -939 545 -887 545 c 0
 -837 545 -810 593 -810 653 c 0
 -810 723 -841 775 -893 775 c 0
 -943 775 -970 727 -970 667 c 0
-1050 660 m 0
 -1050 743 -980 810 -890 810 c 0
 -800 810 -730 743 -730 660 c 0
 -730 577 -800 510 -890 510 c 0
 -980 510 -1050 577 -1050 660 c 0
-1320 667 m 0
 -1320 597 -1289 545 -1237 545 c 0
 -1187 545 -1160 593 -1160 653 c 0
 -1160 723 -1191 775 -1243 775 c 0
 -1293 775 -1320 727 -1320 667 c 0
-1390 660 m 0
 -1390 743 -1323 810 -1240 810 c 0
 -1157 810 -1090 743 -1090 660 c 0
 -1090 577 -1157 510 -1240 510 c 0
 -1323 510 -1390 577 -1390 660 c 0
EndSplineSet
Fore
SplineSet
138 110 m 1
 165 105 l 1
 157 96 147 80 147 68 c 3
 147 46 171 33 235 1 c 0
 325 -44 352 -67 352 -112 c 3
 352 -194 245 -260 115 -260 c 3
 23 -260 -60 -215 -60 -155 c 3
 -60 -100 -3 -63 122 -15 c 1
 152 -35 l 1
 67 -70 15 -105 15 -145 c 3
 15 -190 65 -222 135 -222 c 3
 215 -222 280 -182 280 -135 c 3
 280 -100 240 -83 180 -53 c 0
 120 -23 80 -5 80 30 c 3
 80 52 108 85 138 110 c 1
275 375 m 1
 400 375 l 1
 400 329 l 1
 295 329 l 1
 275 375 l 1
115 230 m 0
 115 172 137 136 172 136 c 0
 222 136 265 198 265 270 c 0
 265 328 243 364 208 364 c 0
 158 364 115 302 115 230 c 0
40 226 m 0
 40 311 120 400 215 400 c 0
 287 400 340 346 340 274 c 0
 340 189 260 100 165 100 c 0
 93 100 40 154 40 226 c 0
EndSplineSet
EndChar

StartChar: e
Encoding: 101 101 25
Width: 315
Flags: HW
LayerCount: 2
Back
SplineSet
222 400 m 3
 267 400 307 370 307 325 c 3
 307 255 230 205 85 180 c 1
 90 212 l 1
 195 232 240 270 240 320 c 0
 240 340 223 358 203 358 c 3
 143 358 85 250 85 140 c 3
 85 85 115 55 150 55 c 3
 188 55 220 75 245 110 c 9
 268 90 l 1
 233 30 177 -10 120 -10 c 0
 60 -10 15 35 15 120 c 0
 15 260 122 400 222 400 c 3
-100 400 m 3
 -55 400 -15 370 -15 325 c 3
 -15 250 -90 205 -235 180 c 1
 -230 212 l 1
 -125 232 -80 270 -80 320 c 0
 -80 340 -95 360 -115 360 c 3
 -175 360 -235 245 -235 140 c 3
 -235 85 -205 55 -170 55 c 3
 -132 55 -100 75 -75 110 c 9
 -52 90 l 1
 -87 30 -143 -10 -200 -10 c 0
 -260 -10 -305 35 -305 120 c 0
 -305 255 -200 400 -100 400 c 3
-437 400 m 3
 -395 400 -365 377 -365 350 c 3
 -365 328 -383 310 -405 310 c 3
 -420 310 -429 321 -436 332 c 0
 -443 342 -451 350 -465 350 c 3
 -520 350 -581 235 -581 135 c 3
 -581 90 -555 54 -523 54 c 3
 -485 54 -457 71 -427 106 c 9
 -405 85 l 17
 -445 25 -495 -10 -555 -10 c 0
 -610 -10 -655 35 -655 120 c 0
 -655 255 -547 400 -437 400 c 3
EndSplineSet
Fore
SplineSet
227 400 m 3
 272 400 312 370 312 325 c 3
 312 255 235 205 90 180 c 1
 95 212 l 1
 200 232 245 270 245 320 c 0
 245 340 228 358 208 358 c 3
 148 358 90 250 90 140 c 3
 90 85 120 55 155 55 c 3
 193 55 225 75 250 110 c 9
 273 90 l 1
 238 30 182 -10 125 -10 c 0
 65 -10 20 35 20 120 c 0
 20 260 127 400 227 400 c 3
EndSplineSet
EndChar

StartChar: s
Encoding: 115 115 26
Width: 285
Flags: HW
LayerCount: 2
Back
SplineSet
705 280 m 3
 705 340 775 400 850 400 c 3
 900 400 930 383 930 355 c 3
 930 335 912 315 892 315 c 3
 862 315 857 352 815 352 c 3
 795 352 775 335 775 315 c 3
 775 260 885 187 885 117 c 3
 885 55 814 -10 730 -10 c 3
 672 -10 645 12 645 42 c 3
 645 62 665 80 685 80 c 3
 720 80 723 38 765 38 c 3
 789 38 810 58 810 80 c 3
 810 140 705 210 705 280 c 3
75 275 m 3
 75 339 150 400 215 400 c 3
 260 400 288 380 288 355 c 3
 288 335 270 315 250 315 c 3
 220 315 217 350 182 350 c 3
 160 350 141 330 141 308 c 3
 141 258 238 195 238 125 c 3
 238 55 163 -10 83 -10 c 3
 41 -10 10 12 10 42 c 3
 10 62 30 80 50 80 c 3
 80 80 85 42 120 42 c 3
 145 42 170 63 170 88 c 3
 170 140 75 203 75 275 c 3
730 -200 m 3
 730 -140 805 -80 875 -80 c 3
 925 -80 955 -99 955 -127 c 3
 955 -147 937 -165 915 -165 c 3
 885 -165 880 -128 840 -128 c 3
 820 -128 800 -145 800 -165 c 3
 800 -220 910 -293 910 -363 c 3
 910 -425 835 -490 755 -490 c 3
 700 -490 670 -470 670 -440 c 3
 670 -420 691 -400 715 -400 c 3
 750 -400 752 -443 790 -443 c 3
 815 -443 835 -422 835 -400 c 3
 835 -340 730 -270 730 -200 c 3
428 285 m 3
 428 340 494 400 559 400 c 3
 601 400 632 380 632 355 c 3
 632 335 615 315 595 315 c 3
 567 315 564 352 530 352 c 3
 510 352 495 336 495 318 c 3
 495 263 590 185 590 115 c 3
 590 55 523 -10 443 -10 c 3
 401 -10 370 12 370 42 c 3
 370 62 390 80 410 80 c 3
 440 80 445 42 480 42 c 3
 505 42 520 58 520 80 c 3
 520 137 428 215 428 285 c 3
732 -680 m 3
 732 -624 809 -560 876 -560 c 3
 920 -560 954 -579 954 -604 c 3
 954 -624 937 -640 915 -640 c 3
 887 -640 881 -604 843 -604 c 3
 819 -604 799 -623 799 -645 c 3
 799 -706 909 -773 909 -844 c 3
 909 -905 832 -970 754 -970 c 3
 704 -970 671 -950 671 -920 c 3
 671 -900 693 -881 715 -881 c 3
 748 -881 750 -927 788 -927 c 3
 816 -927 838 -904 838 -879 c 3
 838 -818 732 -751 732 -680 c 3
430 -200 m 3
 430 -145 499 -81 559 -81 c 3
 599 -81 630 -100 630 -125 c 3
 630 -145 615 -162 595 -162 c 3
 568 -162 565 -125 530 -125 c 3
 510 -125 493 -140 493 -160 c 3
 493 -220 588 -290 588 -360 c 3
 588 -420 518 -488 443 -488 c 3
 401 -488 372 -467 372 -440 c 3
 372 -420 392 -402 412 -402 c 3
 442 -402 445 -440 480 -440 c 3
 505 -440 520 -422 520 -400 c 3
 520 -340 430 -270 430 -200 c 3
-265 280 m 3
 -265 342 -197 400 -127 400 c 3
 -82 400 -55 380 -55 355 c 3
 -55 335 -73 315 -93 315 c 3
 -123 315 -120 350 -155 350 c 3
 -179 350 -200 335 -200 312 c 3
 -200 255 -102 190 -102 120 c 3
 -102 55 -172 -10 -252 -10 c 3
 -294 -10 -325 12 -325 42 c 3
 -325 62 -305 80 -285 80 c 3
 -255 80 -253 42 -218 42 c 3
 -193 42 -170 60 -170 85 c 3
 -170 142 -265 208 -265 280 c 3
-580 280 m 3
 -580 335 -511 399 -451 399 c 3
 -411 399 -380 380 -380 355 c 3
 -380 335 -395 320 -415 320 c 3
 -440 320 -445 355 -480 355 c 3
 -502 355 -520 337 -520 315 c 3
 -520 255 -422 185 -422 115 c 3
 -422 55 -490 -8 -560 -8 c 3
 -605 -8 -635 12 -635 42 c 3
 -635 62 -615 80 -595 80 c 3
 -565 80 -565 35 -530 35 c 3
 -505 35 -485 55 -485 80 c 3
 -485 140 -580 210 -580 280 c 3
-917 299 m 1
 -908 353 -852 401 -798 399 c 1
 -770 398 -738 386 -721 368 c 1
 -732 280 l 1
 -759 282 l 17
 -761 314 l 2
 -763 341 -777 362 -809 363 c 1
 -837 364 -858 342 -862 316 c 1
 -865 296 -859 278 -809 234 c 0
 -752 183 -742 152 -750 104 c 1
 -760 44 -818 -12 -882 -9 c 1
 -906 -8 -945 4 -962 21 c 1
 -953 120 l 1
 -927 119 l 25
 -923 82 l 2
 -920 52 -902 29 -872 28 c 1
 -840 27 -815 54 -809 89 c 1
 -805 111 -813 130 -863 174 c 0
 -916 221 -925 254 -917 299 c 1
EndSplineSet
Fore
SplineSet
62 283 m 3
 62 343 132 400 205 400 c 3
 255 400 285 383 285 355 c 3
 285 335 267 315 247 315 c 3
 217 315 212 352 170 352 c 3
 150 352 130 335 130 315 c 3
 130 260 237 183 237 115 c 3
 237 53 167 -10 85 -10 c 3
 27 -10 0 12 0 42 c 3
 0 62 20 80 40 80 c 3
 75 80 78 38 120 38 c 3
 144 38 165 58 165 80 c 3
 165 140 62 213 62 283 c 3
EndSplineSet
EndChar

StartChar: c
Encoding: 99 99 27
Width: 300
Flags: HW
LayerCount: 2
Back
SplineSet
238 400 m 3
 280 400 310 376 310 350 c 3
 310 328 292 310 270 310 c 3
 255 310 246 321 239 332 c 0
 232 342 224 351 210 351 c 3
 155 351 94 235 94 135 c 3
 94 90 120 54 152 54 c 3
 190 54 218 71 248 106 c 9
 270 85 l 17
 230 25 180 -10 120 -10 c 0
 65 -10 20 35 20 120 c 0
 20 255 128 400 238 400 c 3
-102 400 m 3
 -60 400 -30 377 -30 350 c 3
 -30 328 -48 310 -70 310 c 3
 -85 310 -93 321 -100 332 c 0
 -107 343 -115 350 -130 350 c 3
 -188 350 -246 235 -246 135 c 3
 -246 90 -220 54 -188 54 c 3
 -150 54 -122 71 -92 106 c 9
 -70 85 l 17
 -110 25 -160 -10 -220 -10 c 0
 -275 -10 -320 35 -320 120 c 0
 -320 255 -212 400 -102 400 c 3
-440 400 m 3
 -395 400 -367 378 -367 353 c 3
 -367 329 -386 310 -410 310 c 3
 -433 310 -431 350 -468 350 c 3
 -528 350 -591 235 -591 135 c 3
 -591 90 -567 54 -530 54 c 3
 -495 54 -467 71 -437 106 c 9
 -415 85 l 17
 -455 25 -505 -10 -565 -10 c 0
 -620 -10 -665 35 -665 120 c 0
 -665 255 -550 400 -440 400 c 3
-800 400 m 3
 -755 400 -722 380 -722 355 c 3
 -722 331 -741 312 -765 312 c 3
 -788 312 -786 355 -822 355 c 3
 -892 355 -951 235 -951 135 c 3
 -951 90 -927 54 -890 54 c 3
 -855 54 -827 71 -797 106 c 9
 -775 85 l 17
 -815 25 -865 -10 -925 -10 c 0
 -980 -10 -1025 40 -1025 125 c 0
 -1025 250 -910 400 -800 400 c 3
-1150 400 m 3
 -1105 400 -1072 380 -1072 350 c 3
 -1072 326 -1091 307 -1115 307 c 3
 -1138 307 -1136 350 -1172 350 c 3
 -1242 350 -1301 245 -1301 145 c 3
 -1301 90 -1273 54 -1233 54 c 3
 -1201 54 -1172 71 -1142 106 c 9
 -1120 85 l 17
 -1160 25 -1210 -10 -1270 -10 c 0
 -1325 -10 -1375 40 -1375 125 c 0
 -1375 250 -1260 400 -1150 400 c 3
EndSplineSet
Fore
SplineSet
238 400 m 3
 280 400 310 376 310 350 c 3
 310 328 292 310 270 310 c 3
 255 310 246 321 239 332 c 0
 232 342 224 352 210 352 c 3
 156 352 94 235 94 135 c 3
 94 90 120 54 152 54 c 3
 190 54 218 71 248 106 c 9
 270 85 l 17
 230 25 180 -10 120 -10 c 0
 65 -10 20 35 20 120 c 0
 20 255 128 400 238 400 c 3
EndSplineSet
EndChar

StartChar: v
Encoding: 118 118 28
Width: 385
Flags: HW
LayerCount: 2
Back
SplineSet
625 50 m 17
 710 135 750 188 750 268 c 3
 750 318 727 335 727 365 c 3
 727 385 747 410 775 410 c 3
 805 410 825 370 825 320 c 3
 825 195 755 125 615 -10 c 1
 625 50 l 17
590 -10 m 1
 530 329 l 1
 460 275 l 1
 442 305 l 1
 522 385 538 400 565 400 c 0
 585 400 597 383 600 355 c 2
 650 60 l 1
 615 -10 l 1
 590 -10 l 1
390 50 m 17
 475 135 520 195 520 275 c 3
 520 320 498 332 498 360 c 3
 498 380 517 405 545 405 c 3
 575 405 590 375 590 330 c 3
 590 200 520 125 380 -10 c 9
 390 50 l 17
155 50 m 17
 245 115 302 190 302 265 c 3
 302 315 280 335 280 365 c 3
 280 385 302 410 330 410 c 3
 360 410 380 370 380 325 c 3
 380 195 295 113 145 -12 c 9
 155 50 l 17
120 -12 m 1
 90 328 l 1
 20 275 l 1
 2 305 l 1
 87 385 108 400 135 400 c 0
 155 400 163 380 165 350 c 2
 185 60 l 1
 145 -12 l 1
 120 -12 l 1
-310 50 m 17
 -220 115 -160 190 -160 275 c 3
 -160 320 -185 338 -185 365 c 3
 -185 385 -163 410 -135 410 c 3
 -105 410 -85 370 -85 325 c 3
 -85 195 -175 108 -320 -12 c 9
 -310 50 l 17
-345 -12 m 1
 -360 328 l 1
 -432 275 l 1
 -450 305 l 1
 -365 385 -347 400 -320 400 c 0
 -300 400 -290 380 -290 350 c 2
 -280 60 l 1
 -320 -12 l 1
 -345 -12 l 1
-590 562 m 0
 -590 590 -565 616 -537 616 c 0
 -517 616 -502 600 -502 578 c 0
 -502 550 -527 524 -555 524 c 0
 -575 524 -590 540 -590 562 c 0
-778 350 m 2
 -835 65 l 1
 -745 130 l 1
 -725 105 l 1
 -820 15 -848 -10 -883 -10 c 0
 -908 -10 -912 20 -905 55 c 2
 -850 330 l 1
 -933 275 l 1
 -948 305 l 1
 -848 385 -827 400 -800 400 c 0
 -782 400 -772 380 -778 350 c 2
-581 350 m 2
 -577 65 l 1
 -501 130 l 1
 -476 105 l 1
 -552 15 -574 -10 -609 -10 c 0
 -634 -10 -645 20 -645 55 c 2
 -649 330 l 1
 -720 275 l 1
 -741 305 l 1
 -658 385 -641 400 -614 400 c 0
 -596 400 -581 380 -581 350 c 2
EndSplineSet
Fore
SplineSet
185 50 m 17
 270 135 311 188 311 268 c 3
 311 318 288 335 288 365 c 3
 288 385 307 410 335 410 c 3
 365 410 385 370 385 320 c 3
 385 195 315 125 175 -10 c 1
 185 50 l 17
150 -10 m 1
 95 329 l 1
 25 275 l 1
 7 305 l 1
 87 385 103 400 130 400 c 0
 150 400 160 383 165 353 c 2
 210 60 l 1
 175 -10 l 1
 150 -10 l 1
EndSplineSet
EndChar

StartChar: J
Encoding: 74 74 29
Width: 300
Flags: HW
LayerCount: 2
Back
SplineSet
95 600 m 1
 340 600 l 1
 335 560 l 1
 90 560 l 1
 95 600 l 1
128 -90 m 1
 93 -160 37 -217 -53 -257 c 1
 -65 -227 l 1
 5 -188 36 -135 50 -65 c 2
 185 590 l 1
 270 590 l 1
 128 -90 l 1
95 600 m 1
 340 600 l 1
 335 560 l 1
 90 560 l 1
 95 600 l 1
260 590 m 1
 150 10 l 1
 65 10 l 1
 175 590 l 1
 260 590 l 1
63 -65 m 1
 138 -95 l 1
 102 -170 31 -227 -44 -257 c 1
 -53 -227 l 1
 14 -192 51 -135 63 -65 c 1
98 600 m 1
 323 600 l 1
 317 560 l 1
 91 560 l 1
 98 600 l 1
251 590 m 1
 138 -95 l 1
 63 -65 l 1
 171 590 l 1
 251 590 l 1
EndSplineSet
Fore
SplineSet
95 600 m 1
 340 600 l 1
 335 560 l 1
 90 560 l 1
 95 600 l 1
124 -110 m 1
 89 -175 32 -222 -53 -257 c 1
 -65 -227 l 1
 5 -188 36 -135 50 -65 c 2
 185 590 l 1
 270 590 l 1
 124 -110 l 1
EndSplineSet
EndChar

StartChar: F
Encoding: 70 70 30
Width: 435
Flags: HW
LayerCount: 2
Back
SplineSet
25 600 m 1
 467 600 l 1
 465 450 l 1
 430 450 l 1
 423 542 410 556 365 556 c 1
 165 556 l 9
 120 560 l 17
 25 560 l 1
 25 600 l 1
175 275 m 1
 175 318 l 1
 313 318 l 1
 345 318 355 326 355 368 c 1
 355 390 l 1
 390 390 l 1
 390 190 l 1
 355 190 l 1
 355 225 l 1
 355 267 345 275 313 275 c 1
 175 275 l 1
25 40 m 1
 280 40 l 1
 280 0 l 1
 25 0 l 1
 25 40 l 1
185 580 m 1
 185 20 l 1
 100 20 l 1
 100 580 l 1
 185 580 l 1
EndSplineSet
Fore
SplineSet
-5 40 m 1
 255 40 l 1
 250 0 l 1
 -10 0 l 1
 -5 40 l 1
180 295 m 1
 185 338 l 1
 305 338 l 1
 333 338 343 346 350 388 c 2
 353 405 l 1
 385 405 l 1
 353 215 l 1
 320 215 l 1
 325 245 l 2
 332 287 325 295 297 295 c 1
 180 295 l 1
95 600 m 1
 495 600 l 1
 475 456 l 1
 440 456 l 1
 445 546 436 556 402 556 c 1
 210 556 l 1
 180 560 l 1
 90 560 l 1
 95 600 l 1
260 590 m 1
 150 10 l 1
 65 10 l 1
 175 590 l 1
 260 590 l 1
EndSplineSet
EndChar

StartChar: w
Encoding: 119 119 31
Width: 588
Flags: HW
LayerCount: 2
Back
SplineSet
147 -10 m 1
 94 329 l 1
 25 275 l 1
 7 305 l 1
 87 385 103 400 130 400 c 0
 150 400 161 383 165 353 c 2
 207 61 l 1
 172 -10 l 1
 147 -10 l 1
392 50 m 17
 477 135 516 185 516 263 c 3
 516 313 492 335 492 365 c 3
 492 385 511 410 539 410 c 3
 569 410 589 370 589 315 c 3
 589 193 522 125 382 -10 c 1
 392 50 l 17
366 390 m 1
 417 60 l 1
 382 -10 l 1
 357 -10 l 1
 331 165 l 1
 296 112 242 55 172 -10 c 1
 182 50 l 1
 290 155 320 220 306 305 c 2
 292 390 l 1
 366 390 l 1
-465 -10 m 1
 -516 329 l 1
 -585 275 l 1
 -603 305 l 1
 -523 385 -507 400 -480 400 c 0
 -460 400 -449 383 -445 353 c 2
 -405 62 l 1
 -440 -10 l 1
 -465 -10 l 1
-220 50 m 17
 -135 135 -98 185 -98 263 c 3
 -98 313 -122 335 -122 365 c 3
 -122 385 -103 410 -75 410 c 3
 -45 410 -25 370 -25 315 c 3
 -25 193 -90 125 -230 -10 c 1
 -220 50 l 17
-246 390 m 1
 -195 60 l 1
 -230 -10 l 1
 -255 -10 l 1
 -281 165 l 1
 -316 112 -370 55 -440 -10 c 1
 -430 50 l 1
 -322 155 -292 220 -306 305 c 2
 -320 390 l 1
 -246 390 l 1
-1055 50 m 1
 -955 150 -919 205 -937 310 c 9
 -880 205 l 1
 -905 145 -975 75 -1065 -10 c 9
 -1055 50 l 1
-876 390 m 1
 -825 60 l 1
 -860 -10 l 1
 -885 -10 l 1
 -950 390 l 1
 -876 390 l 1
-850 50 m 17
 -765 135 -725 188 -725 268 c 3
 -725 318 -748 335 -748 365 c 3
 -748 385 -728 410 -700 410 c 3
 -670 410 -650 370 -650 320 c 3
 -650 195 -720 125 -860 -10 c 1
 -850 50 l 17
-1055 50 m 17
 -970 135 -930 188 -930 268 c 3
 -930 318 -953 335 -953 365 c 3
 -953 385 -933 410 -905 410 c 3
 -875 410 -855 370 -855 320 c 3
 -855 195 -925 125 -1065 -10 c 1
 -1055 50 l 17
-1090 -10 m 1
 -1145 329 l 1
 -1215 275 l 1
 -1233 305 l 1
 -1153 385 -1137 400 -1110 400 c 0
 -1090 400 -1080 383 -1075 353 c 2
 -1030 60 l 1
 -1065 -10 l 1
 -1090 -10 l 1
EndSplineSet
Fore
SplineSet
146 -10 m 1
 93 329 l 1
 24 275 l 1
 6 305 l 1
 86 385 102 400 129 400 c 0
 149 400 160 383 164 353 c 2
 206 61 l 1
 171 -10 l 1
 146 -10 l 1
391 50 m 17
 476 135 513 187 513 265 c 3
 513 313 493 329 493 357 c 3
 493 377 513 402 541 402 c 3
 571 402 588 365 588 315 c 3
 588 193 521 125 381 -10 c 1
 391 50 l 17
365 390 m 1
 416 60 l 1
 381 -10 l 1
 356 -10 l 1
 330 165 l 1
 295 112 241 55 171 -10 c 1
 181 50 l 1
 289 155 319 220 305 305 c 2
 291 390 l 1
 365 390 l 1
EndSplineSet
EndChar

StartChar: x
Encoding: 120 120 32
Width: 445
Flags: HW
LayerCount: 2
Back
SplineSet
31 85 m 3
 49 85 54 68 68 68 c 1
 83 68 105 85 140 127 c 2
 204 204 l 1
 215 160 l 1
 160 93 l 2
 95 13 66 -10 26 -10 c 1
 2 -10 -16 8 -16 30 c 1
 -16 60 9 85 31 85 c 3
412 310 m 3
 398 310 390 323 375 323 c 1
 360 323 325 288 300 258 c 2
 243 190 l 1
 230 230 l 1
 295 310 l 2
 352 380 380 400 415 400 c 1
 437 400 454 383 454 360 c 1
 454 333 432 310 412 310 c 3
260 30 m 2
 132 332 l 1
 68 270 l 1
 50 300 l 1
 120 385 133 400 160 400 c 0
 180 400 189 385 200 360 c 2
 330 55 l 1
 402 127 l 1
 422 98 l 1
 352 13 332 -10 304 -10 c 0
 282 -10 271 5 260 30 c 2
-462 85 m 3
 -444 85 -439 68 -425 68 c 1
 -410 68 -390 85 -365 115 c 2
 -292 203 l 1
 -280 160 l 1
 -360 61 l 2
 -401 11 -433 -10 -468 -10 c 1
 -492 -10 -510 8 -510 30 c 1
 -510 60 -484 85 -462 85 c 3
-78 310 m 3
 -92 310 -100 323 -115 323 c 1
 -130 323 -151 305 -176 275 c 2
 -247 190 l 1
 -260 230 l 1
 -175 335 l 2
 -135 385 -106 400 -75 400 c 1
 -53 400 -36 383 -36 360 c 1
 -36 333 -58 310 -78 310 c 3
-230 30 m 2
 -358 332 l 1
 -422 270 l 1
 -440 300 l 1
 -370 385 -357 400 -330 400 c 0
 -310 400 -301 385 -290 360 c 2
 -160 55 l 1
 -88 127 l 1
 -68 98 l 1
 -138 13 -158 -10 -186 -10 c 0
 -208 -10 -219 5 -230 30 c 2
-927 90 m 3
 -909 90 -902 72 -890 72 c 1
 -878 72 -860 85 -835 115 c 2
 -762 203 l 1
 -750 160 l 1
 -835 55 l 2
 -875 5 -904 -10 -935 -10 c 1
 -960 -10 -978 7 -978 30 c 1
 -978 60 -949 90 -927 90 c 3
-548 305 m 3
 -562 305 -575 323 -585 323 c 1
 -597 323 -620 305 -645 275 c 2
 -717 190 l 1
 -730 230 l 1
 -645 335 l 2
 -605 385 -576 400 -545 400 c 1
 -520 400 -502 383 -502 360 c 1
 -502 330 -526 305 -548 305 c 3
-705 30 m 2
 -828 335 l 1
 -900 275 l 1
 -918 305 l 1
 -843 385 -827 400 -800 400 c 0
 -780 400 -770 385 -760 360 c 2
 -637 55 l 1
 -560 127 l 1
 -540 98 l 1
 -615 13 -637 -10 -665 -10 c 0
 -687 -10 -695 5 -705 30 c 2
-1347 90 m 3
 -1333 90 -1320 70 -1310 70 c 1
 -1295 70 -1280 85 -1200 205 c 1
 -1185 160 l 1
 -1275 25 -1300 -10 -1350 -10 c 1
 -1375 -10 -1393 7 -1393 30 c 1
 -1393 60 -1369 90 -1347 90 c 3
-978 300 m 3
 -992 300 -1005 320 -1015 320 c 1
 -1030 320 -1045 305 -1125 185 c 1
 -1140 230 l 1
 -1050 365 -1025 400 -975 400 c 1
 -950 400 -932 383 -932 360 c 1
 -932 330 -956 300 -978 300 c 3
-1140 30 m 2
 -1255 335 l 1
 -1325 275 l 1
 -1343 305 l 1
 -1268 385 -1252 400 -1225 400 c 0
 -1205 400 -1194 385 -1185 360 c 2
 -1070 55 l 1
 -995 127 l 1
 -975 98 l 1
 -1050 13 -1072 -10 -1100 -10 c 0
 -1122 -10 -1131 5 -1140 30 c 2
-1709 0 m 1
 -1864 0 l 1
 -1858 35 l 1
 -1703 35 l 1
 -1709 0 l 1
-1451 0 m 1
 -1634 0 l 1
 -1628 35 l 1
 -1445 35 l 1
 -1451 0 l 1
-1789 5 m 1
 -1840 5 l 1
 -1662 195 l 1
 -1634 170 l 1
 -1789 5 l 1
-1546 390 m 1
 -1395 390 l 1
 -1401 355 l 1
 -1551 355 l 1
 -1546 390 l 1
-1785 390 m 1
 -1607 390 l 1
 -1613 355 l 1
 -1791 355 l 1
 -1785 390 l 1
-1567 5 m 1
 -1767 385 l 1
 -1673 385 l 1
 -1473 5 l 1
 -1567 5 l 1
-1475 385 m 1
 -1424 385 l 1
 -1602 195 l 1
 -1630 220 l 1
 -1475 385 l 1
EndSplineSet
Fore
SplineSet
410 309 m 3
 394 309 388 323 373 323 c 1
 358 323 325 289 300 259 c 2
 243 190 l 1
 230 230 l 1
 295 310 l 2
 352 380 380 400 415 400 c 1
 437 400 452 384 452 362 c 1
 452 335 430 309 410 309 c 3
31 85 m 3
 49 85 54 68 68 68 c 1
 83 68 105 85 140 127 c 2
 204 204 l 1
 215 160 l 1
 160 92 l 2
 95 12 67 -10 27 -10 c 1
 3 -10 -15 8 -15 30 c 1
 -15 60 11 85 31 85 c 3
260 30 m 2
 132 332 l 1
 68 270 l 1
 50 300 l 1
 120 385 133 400 160 400 c 0
 180 400 189 385 200 360 c 2
 330 55 l 1
 400 127 l 1
 422 100 l 1
 352 10 331 -10 304 -10 c 0
 282 -10 271 5 260 30 c 2
EndSplineSet
EndChar

StartChar: y
Encoding: 121 121 33
Width: 390
Flags: HW
LayerCount: 2
Back
SplineSet
175 -10 m 1
 94 329 l 1
 25 275 l 1
 7 305 l 1
 87 385 103 400 130 400 c 0
 148 400 158 387 165 357 c 2
 235 60 l 1
 175 -10 l 1
5 -215 m 1
 220 -215 l 1
 215 -250 l 1
 0 -250 l 1
 5 -215 l 1
210 50 m 1
 288 138 322 225 322 295 c 3
 322 335 300 347 300 375 c 3
 300 395 322 420 350 420 c 3
 380 420 395 390 395 345 c 3
 395 247 325 137 265 50 c 0
 246 23 235 5 220 -30 c 2
 135 -235 l 1
 65 -225 l 1
 180 60 l 1
 210 50 l 1
450 -215 m 1
 665 -215 l 1
 660 -250 l 1
 445 -250 l 1
 450 -215 l 1
620 50 m 1
 698 135 740 197 740 270 c 3
 740 315 720 337 720 365 c 3
 720 385 742 410 770 410 c 3
 800 410 815 375 815 330 c 3
 815 220 745 137 675 52 c 0
 654 26 644 5 635 -30 c 2
 585 -230 l 1
 515 -235 l 1
 580 30 l 1
 620 50 l 1
585 -10 m 1
 520 330 l 1
 450 275 l 1
 432 305 l 1
 512 385 528 400 555 400 c 0
 575 400 585 382 590 352 c 2
 645 55 l 1
 585 -10 l 1
-390 -215 m 1
 -175 -215 l 1
 -180 -250 l 1
 -395 -250 l 1
 -390 -215 l 1
-220 50 m 1
 -140 135 -98 195 -98 270 c 3
 -98 315 -120 337 -120 365 c 3
 -120 385 -98 410 -70 410 c 3
 -40 410 -25 375 -25 330 c 3
 -25 220 -92 135 -165 50 c 0
 -187 25 -196 5 -205 -30 c 2
 -255 -230 l 1
 -325 -235 l 1
 -260 30 l 1
 -220 50 l 1
-255 -10 m 1
 -320 330 l 1
 -390 275 l 1
 -408 305 l 1
 -328 385 -312 400 -285 400 c 0
 -265 400 -255 382 -250 352 c 2
 -195 55 l 1
 -255 -10 l 1
-683 26 m 1
 -693 49 l 1
 -693 3 l 1
 -683 26 l 1
-675 -10 m 1
 -750 330 l 1
 -820 275 l 1
 -838 305 l 1
 -753 385 -742 400 -715 400 c 0
 -697 400 -687 385 -680 355 c 2
 -615 60 l 1
 -675 -10 l 1
-640 50 m 1
 -560 140 -528 225 -528 295 c 3
 -528 335 -550 347 -550 375 c 3
 -550 395 -528 420 -500 420 c 3
 -470 420 -455 390 -455 345 c 3
 -455 245 -525 135 -585 50 c 0
 -604 23 -615 5 -630 -30 c 2
 -715 -235 l 1
 -785 -235 l 1
 -670 60 l 1
 -640 50 l 1
-1205 50 m 1
 -1125 135 -1083 195 -1083 270 c 3
 -1083 315 -1103 332 -1103 360 c 3
 -1103 380 -1083 405 -1055 405 c 3
 -1025 405 -1010 375 -1010 330 c 3
 -1010 220 -1080 130 -1155 45 c 0
 -1180 17 -1185 -10 -1245 -230 c 1
 -1315 -230 l 1
 -1250 20 l 1
 -1205 50 l 1
-1210 50 m 17
 -1125 135 -1080 195 -1080 275 c 3
 -1080 320 -1102 332 -1102 360 c 3
 -1102 380 -1083 405 -1055 405 c 3
 -1025 405 -1010 375 -1010 330 c 3
 -1010 200 -1080 125 -1220 -10 c 9
 -1210 50 l 17
-1245 -10 m 1
 -1310 330 l 1
 -1380 275 l 1
 -1398 305 l 1
 -1313 385 -1302 400 -1275 400 c 0
 -1255 400 -1245 382 -1240 352 c 2
 -1185 55 l 1
 -1220 -10 l 1
 -1245 -10 l 1
EndSplineSet
Fore
SplineSet
175 -10 m 1
 94 329 l 1
 25 275 l 1
 7 305 l 1
 87 385 103 400 130 400 c 0
 148 400 158 387 165 357 c 2
 235 60 l 1
 175 -10 l 1
5 -215 m 1
 220 -215 l 1
 215 -250 l 1
 0 -250 l 1
 5 -215 l 1
210 50 m 1
 288 138 317 225 317 295 c 3
 317 335 295 347 295 375 c 3
 295 395 317 420 345 420 c 3
 375 420 390 390 390 345 c 3
 390 247 323 137 265 52 c 0
 246 25 230 2 217 -30 c 2
 133 -235 l 1
 65 -225 l 1
 180 60 l 1
 210 50 l 1
EndSplineSet
EndChar

StartChar: V
Encoding: 86 86 34
Width: 490
Flags: HW
LayerCount: 2
Back
SplineSet
1110 600 m 1
 1290 600 l 1
 1285 560 l 1
 1105 560 l 1
 1110 600 l 1
705 600 m 1
 940 600 l 1
 935 560 l 1
 700 560 l 1
 705 600 l 1
845 -18 m 1
 770 585 l 1
 858 585 l 1
 915 85 l 1
 845 -18 l 1
1184 590 m 1
 1242 590 l 1
 877 -18 l 1
 845 -18 l 1
 877 70 l 1
 1184 590 l 1
410 600 m 1
 590 600 l 1
 585 560 l 1
 405 560 l 1
 410 600 l 1
5 600 m 1
 240 600 l 1
 235 560 l 1
 0 560 l 1
 5 600 l 1
160 -18 m 1
 70 585 l 1
 160 585 l 1
 230 75 l 1
 160 -18 l 1
485 590 m 1
 545 590 l 1
 192 -18 l 1
 160 -18 l 1
 192 70 l 1
 485 590 l 1
-480 -18 m 1
 -575 590 l 1
 -482 585 l 1
 -410 75 l 1
 -480 -18 l 1
-615 600 m 1
 -408 600 l 1
 -416 560 l 1
 -623 560 l 1
 -615 600 l 1
-147 590 m 1
 -91 590 l 1
 -447 -18 l 1
 -480 -18 l 1
 -444 70 l 1
 -147 590 l 1
-220 600 m 1
 -46 600 l 1
 -54 560 l 1
 -228 560 l 1
 -220 600 l 1
EndSplineSet
Fore
SplineSet
410 600 m 1
 590 600 l 1
 585 560 l 1
 405 560 l 1
 410 600 l 1
5 600 m 1
 240 600 l 1
 235 560 l 1
 0 560 l 1
 5 600 l 1
155 -18 m 1
 70 585 l 1
 158 585 l 1
 225 80 l 1
 155 -18 l 1
485 590 m 1
 542 590 l 1
 187 -18 l 1
 155 -18 l 1
 187 70 l 1
 485 590 l 1
EndSplineSet
EndChar

StartChar: z
Encoding: 122 122 35
Width: 240
Flags: HW
LayerCount: 2
Back
SplineSet
272 327 m 17
 112 327 l 1
 92 327 87 307 77 272 c 1
 42 272 l 1
 57 390 l 1
 360 390 l 1
 360 360 l 9
 122 68 l 17
 290 68 l 1
 310 68 320 83 335 125 c 1
 370 125 l 1
 345 0 l 1
 30 0 l 1
 30 30 l 9
 272 327 l 17
EndSplineSet
Fore
SplineSet
62 45 m 0
 62 77 88 103 120 103 c 0
 152 103 178 77 178 45 c 0
 178 13 152 -13 120 -13 c 0
 88 -13 62 13 62 45 c 0
EndSplineSet
EndChar

StartChar: zero
Encoding: 48 48 36
Width: 240
Flags: HW
LayerCount: 2
Back
SplineSet
391 190 m 0
 391 260 325 315 225 315 c 0
 145 315 79 265 79 200 c 0
 79 130 145 75 245 75 c 0
 325 75 391 125 391 190 c 0
30 195 m 0
 30 310 120 400 235 400 c 0
 350 400 440 310 440 195 c 0
 440 80 350 -10 235 -10 c 0
 120 -10 30 80 30 195 c 0
EndSplineSet
Fore
SplineSet
62 45 m 0
 62 77 88 103 120 103 c 0
 152 103 178 77 178 45 c 0
 178 13 152 -13 120 -13 c 0
 88 -13 62 13 62 45 c 0
EndSplineSet
EndChar

StartChar: one
Encoding: 49 49 37
Width: 240
Flags: HW
LayerCount: 2
Back
SplineSet
40 38 m 1
 290 38 l 1
 290 0 l 1
 40 0 l 1
 40 38 l 1
36 340 m 1
 194 404 l 1
 204 404 l 1
 204 20 l 1
 130 20 l 1
 130 315 l 1
 36 310 l 1
 36 340 l 1
EndSplineSet
Fore
SplineSet
62 45 m 0
 62 77 88 103 120 103 c 0
 152 103 178 77 178 45 c 0
 178 13 152 -13 120 -13 c 0
 88 -13 62 13 62 45 c 0
EndSplineSet
EndChar

StartChar: hyphen
Encoding: 45 45 38
Width: 250
Flags: HW
LayerCount: 2
Back
SplineSet
30 240 m 1
 220 240 l 1
 220 180 l 1
 30 180 l 1
 30 240 l 1
EndSplineSet
Fore
SplineSet
30 220 m 1
 220 265 l 1
 220 205 l 1
 30 160 l 1
 30 220 l 1
EndSplineSet
EndChar

StartChar: A
Encoding: 65 65 39
Width: 495
Flags: HW
LayerCount: 2
Back
SplineSet
150 270 m 1
 361 270 l 1
 362 225 l 1
 131 225 l 1
 150 270 l 1
105 0 m 1
 -69 0 l 1
 -61 40 l 1
 113 40 l 1
 105 0 l 1
514 0 m 1
 302 0 l 1
 310 40 l 1
 522 40 l 1
 514 0 l 1
373 625 m 1
 469 10 l 1
 378 15 l 1
 303 542 l 1
 363 625 l 1
 373 625 l 1
32 10 m 1
 -25 10 l 1
 298 587 l 1
 363 625 l 1
 308 522 l 1
 32 10 l 1
EndSplineSet
Fore
SplineSet
130 259 m 1
 341 259 l 1
 342 215 l 1
 111 215 l 1
 130 259 l 1
90 0 m 1
 -90 0 l 1
 -85 40 l 1
 95 40 l 1
 90 0 l 1
490 0 m 1
 255 0 l 1
 260 40 l 1
 495 40 l 1
 490 0 l 1
357 617 m 1
 420 15 l 1
 335 15 l 1
 290 510 l 1
 357 617 l 1
15 10 m 1
 -40 10 l 1
 322 617 l 1
 357 617 l 1
 325 535 l 1
 15 10 l 1
EndSplineSet
EndChar

StartChar: T
Encoding: 84 84 40
Width: 240
Flags: HW
LayerCount: 2
Back
SplineSet
77 555 m 1
 45 555 29 540 17 455 c 1
 -20 455 l 1
 -10 625 l 1
 25 625 l 1
 25 605 35 600 55 600 c 1
 425 600 l 1
 450 600 465 605 465 625 c 1
 500 625 l 1
 505 455 l 1
 468 455 l 1
 461 545 445 555 410 555 c 1
 77 555 l 1
115 40 m 1
 370 40 l 1
 370 0 l 1
 115 0 l 1
 115 40 l 1
285 580 m 1
 285 20 l 1
 200 20 l 1
 200 580 l 1
 285 580 l 1
EndSplineSet
Fore
SplineSet
62 45 m 0
 62 77 88 103 120 103 c 0
 152 103 178 77 178 45 c 0
 178 13 152 -13 120 -13 c 0
 88 -13 62 13 62 45 c 0
EndSplineSet
EndChar

StartChar: U
Encoding: 85 85 41
Width: 240
Flags: HW
LayerCount: 2
Back
SplineSet
15 600 m 1
 250 600 l 1
 250 560 l 1
 15 560 l 1
 15 600 l 1
175 590 m 1
 175 200 l 2
 175 100 245 42 335 42 c 3
 440 42 508 99 508 200 c 2
 508 590 l 1
 555 590 l 1
 555 205 l 2
 555 80 455 -12 315 -12 c 3
 190 -12 90 70 90 180 c 2
 90 590 l 1
 175 590 l 1
435 600 m 1
 630 600 l 1
 630 560 l 1
 435 560 l 1
 435 600 l 1
EndSplineSet
Fore
SplineSet
62 45 m 0
 62 77 88 103 120 103 c 0
 152 103 178 77 178 45 c 0
 178 13 152 -13 120 -13 c 0
 88 -13 62 13 62 45 c 0
EndSplineSet
EndChar

StartChar: B
Encoding: 66 66 42
Width: 240
Flags: HW
LayerCount: 2
Back
SplineSet
240 605 m 3
 360 605 440 550 440 465 c 3
 440 405 405 360 350 340 c 1
 425 325 487 265 487 180 c 3
 487 85 410 0 275 0 c 1
 25 0 l 1
 25 40 l 1
 120 40 l 1
 185 90 l 1
 185 58 203 42 235 42 c 1
 265 42 l 1
 345 42 392 85 392 170 c 3
 392 245 338 306 258 306 c 1
 175 306 l 1
 175 348 l 1
 245 348 l 1
 320 348 352 395 352 455 c 3
 352 519 310 561 230 561 c 1
 165 561 l 1
 100 557 l 1
 25 555 l 1
 25 595 l 1
 85 599 185 605 240 605 c 3
185 580 m 1
 185 20 l 1
 100 20 l 1
 100 580 l 1
 185 580 l 1
EndSplineSet
Fore
SplineSet
62 45 m 0
 62 77 88 103 120 103 c 0
 152 103 178 77 178 45 c 0
 178 13 152 -13 120 -13 c 0
 88 -13 62 13 62 45 c 0
EndSplineSet
EndChar

StartChar: N
Encoding: 78 78 43
Width: 680
Flags: HW
LayerCount: 2
Back
SplineSet
78 600 m 1
 235 600 l 1
 570 10 l 25
 570 0 l 1
 482 0 l 1
 200 495 l 1
 165 530 l 1
 154 548 132 561 104 561 c 1
 75 561 l 1
 78 600 l 1
510 600 m 1
 720 600 l 1
 715 560 l 1
 505 560 l 1
 510 600 l 1
640 590 m 1
 530 20 l 1
 480 10 l 1
 590 590 l 1
 640 590 l 1
-10 40 m 1
 200 40 l 1
 195 0 l 1
 -15 0 l 1
 -10 40 l 1
225 590 m 1
 115 10 l 1
 65 10 l 1
 175 585 l 1
 225 590 l 1
-692 600 m 1
 -535 600 l 1
 -200 10 l 25
 -200 0 l 1
 -290 0 l 1
 -570 495 l 1
 -605 530 l 1
 -616 548 -638 561 -666 561 c 1
 -695 561 l 1
 -692 600 l 1
-260 600 m 1
 -50 600 l 1
 -55 560 l 1
 -265 560 l 1
 -260 600 l 1
-130 590 m 1
 -240 10 l 1
 -290 10 l 1
 -180 590 l 1
 -130 590 l 1
-780 40 m 1
 -570 40 l 1
 -575 0 l 1
 -785 0 l 1
 -780 40 l 1
-545 590 m 1
 -655 10 l 1
 -705 10 l 1
 -595 590 l 1
 -545 590 l 1
-1535 40 m 1
 -1340 40 l 1
 -1347 0 l 1
 -1542 0 l 1
 -1535 40 l 1
-1337 530 m 1
 -1422 20 l 1
 -1466 20 l 1
 -1378 550 l 1
 -1337 530 l 1
-1459 600 m 1
 -1301 600 l 1
 -990 110 l 25
 -1001 -12 l 1
 -1025 -12 l 1
 -1343 495 l 1
 -1381 530 l 1
 -1392 548 -1410 561 -1436 561 c 1
 -1466 561 l 1
 -1459 600 l 1
-1035 50 m 1
 -947 580 l 1
 -903 580 l 1
 -1001 -12 l 25
 -1035 50 l 1
-1017 600 m 1
 -827 600 l 1
 -834 560 l 1
 -1024 560 l 1
 -1017 600 l 1
-2232 40 m 1
 -2025 40 l 1
 -2025 0 l 1
 -2232 0 l 1
 -2232 40 l 1
-2108 530 m 1
 -2108 20 l 1
 -2155 20 l 1
 -2155 550 l 1
 -2108 530 l 1
-2250 600 m 1
 -2082 600 l 1
 -1665 110 l 25
 -1655 -12 l 1
 -1680 -12 l 1
 -2108 495 l 1
 -2155 530 l 1
 -2170 548 -2190 561 -2218 561 c 1
 -2250 561 l 1
 -2250 600 l 1
-1702 50 m 1
 -1702 580 l 1
 -1655 580 l 1
 -1655 -12 l 25
 -1702 50 l 1
-1780 600 m 1
 -1578 600 l 1
 -1578 560 l 1
 -1780 560 l 1
 -1780 600 l 1
EndSplineSet
Fore
SplineSet
78 600 m 1
 235 600 l 1
 525 105 l 1
 525 -12 l 1
 500 -12 l 1
 200 495 l 1
 165 530 l 1
 154 548 132 561 104 561 c 1
 75 561 l 1
 78 600 l 1
510 600 m 1
 720 600 l 1
 715 560 l 1
 505 560 l 1
 510 600 l 1
640 590 m 1
 525 -12 l 1
 485 30 l 1
 590 590 l 1
 640 590 l 1
-10 40 m 1
 200 40 l 1
 195 0 l 1
 -15 0 l 1
 -10 40 l 1
225 590 m 1
 115 10 l 1
 65 10 l 1
 175 585 l 1
 225 590 l 1
EndSplineSet
EndChar

StartChar: R
Encoding: 82 82 44
Width: 240
Flags: HW
LayerCount: 2
Back
SplineSet
235 564 m 1
 165 564 l 1
 100 557 l 1
 25 555 l 1
 25 595 l 1
 70 598 175 605 245 605 c 1
 370 605 450 545 450 450 c 3
 450 370 395 318 325 293 c 1
 352 243 386 192 425 140 c 0
 485 61 520 35 555 35 c 9
 570 35 l 1
 570 -5 l 1
 555 -7 535 -8 520 -8 c 0
 440 -8 404 27 370 70 c 0
 336 112 282 205 260 245 c 0
 249 265 240 275 220 275 c 1
 175 275 l 1
 175 315 l 1
 230 315 l 1
 300 315 360 360 360 440 c 3
 360 510 320 564 235 564 c 1
25 40 m 1
 260 40 l 1
 260 0 l 1
 25 0 l 1
 25 40 l 1
185 590 m 1
 185 10 l 1
 100 10 l 1
 100 590 l 1
 185 590 l 1
EndSplineSet
Fore
SplineSet
62 45 m 0
 62 77 88 103 120 103 c 0
 152 103 178 77 178 45 c 0
 178 13 152 -13 120 -13 c 0
 88 -13 62 13 62 45 c 0
EndSplineSet
EndChar

StartChar: P
Encoding: 80 80 45
Width: 240
Flags: HW
LayerCount: 2
Back
SplineSet
265 270 m 17
 345 270 395 325 395 415 c 3
 395 500 340 562 245 562 c 1
 165 562 l 1
 100 556 l 1
 25 554 l 1
 25 594 l 1
 70 597 185 605 255 605 c 1
 390 605 485 530 485 425 c 3
 485 305 394 227 284 227 c 3
 264 227 235 230 220 235 c 1
 225 270 l 25
 265 270 l 17
25 40 m 1
 275 40 l 1
 275 0 l 1
 25 0 l 1
 25 40 l 1
185 590 m 1
 185 10 l 1
 100 10 l 1
 100 590 l 1
 185 590 l 1
EndSplineSet
Fore
SplineSet
62 45 m 0
 62 77 88 103 120 103 c 0
 152 103 178 77 178 45 c 0
 178 13 152 -13 120 -13 c 0
 88 -13 62 13 62 45 c 0
EndSplineSet
EndChar

StartChar: Q
Encoding: 81 81 46
Width: 240
Flags: HW
LayerCount: 2
Back
SplineSet
296 -8 m 1
 296 4 l 1
 442 4 l 1
 557 -85 665 -157 765 -157 c 1
 810 -157 852 -150 885 -130 c 9
 900 -160 l 1
 852 -200 780 -220 710 -220 c 1
 600 -220 515 -155 415 -75 c 0
 363 -33 341 -15 296 -8 c 1
132 315 m 0
 132 155 225 29 355 29 c 0
 480 29 568 130 568 285 c 0
 568 445 475 572 345 572 c 0
 220 572 132 470 132 315 c 0
35 297 m 0
 35 469 180 612 352 612 c 0
 527 612 665 482 665 307 c 0
 665 135 520 -12 348 -12 c 0
 173 -12 35 122 35 297 c 0
EndSplineSet
Fore
SplineSet
62 45 m 0
 62 77 88 103 120 103 c 0
 152 103 178 77 178 45 c 0
 178 13 152 -13 120 -13 c 0
 88 -13 62 13 62 45 c 0
EndSplineSet
EndChar

StartChar: K
Encoding: 75 75 47
Width: 240
Flags: HW
LayerCount: 2
Back
SplineSet
360 40 m 1
 590 40 l 1
 590 0 l 1
 360 0 l 1
 360 40 l 1
200 315 m 1
 265 375 l 1
 545 30 l 1
 445 5 l 1
 200 315 l 1
430 590 m 1
 490 580 l 1
 185 260 l 1
 185 330 l 1
 430 590 l 1
345 600 m 1
 545 600 l 1
 545 560 l 1
 345 560 l 1
 345 600 l 1
25 600 m 1
 255 600 l 1
 255 560 l 1
 25 560 l 1
 25 600 l 1
25 40 m 1
 260 40 l 1
 260 0 l 1
 25 0 l 1
 25 40 l 1
185 590 m 1
 185 10 l 1
 100 10 l 1
 100 590 l 1
 185 590 l 1
EndSplineSet
Fore
SplineSet
62 45 m 0
 62 77 88 103 120 103 c 0
 152 103 178 77 178 45 c 0
 178 13 152 -13 120 -13 c 0
 88 -13 62 13 62 45 c 0
EndSplineSet
EndChar

StartChar: Y
Encoding: 89 89 48
Width: 240
Flags: HW
LayerCount: 2
Back
SplineSet
365 600 m 1
 555 600 l 1
 555 560 l 1
 365 560 l 1
 365 600 l 1
-35 600 m 1
 190 600 l 1
 190 560 l 1
 -35 560 l 1
 -35 600 l 1
215 280 m 1
 -5 590 l 1
 103 590 l 1
 275 342 l 1
 215 280 l 1
300 310 m 1
 300 10 l 1
 215 10 l 1
 215 310 l 1
 300 310 l 1
135 40 m 1
 380 40 l 1
 380 0 l 1
 135 0 l 1
 135 40 l 1
457 590 m 1
 520 590 l 1
 300 300 l 1
 215 280 l 1
 275 342 l 1
 457 590 l 1
EndSplineSet
Fore
SplineSet
62 45 m 0
 62 77 88 103 120 103 c 0
 152 103 178 77 178 45 c 0
 178 13 152 -13 120 -13 c 0
 88 -13 62 13 62 45 c 0
EndSplineSet
EndChar

StartChar: W
Encoding: 87 87 49
Width: 800
Flags: HW
LayerCount: 2
Back
SplineSet
730 600 m 1
 910 600 l 1
 905 560 l 1
 725 560 l 1
 730 600 l 1
350 600 m 1
 580 600 l 1
 575 560 l 1
 345 560 l 1
 350 600 l 1
500 -18 m 1
 410 585 l 1
 498 585 l 1
 570 75 l 1
 500 -18 l 1
805 590 m 1
 864 590 l 1
 532 -18 l 1
 500 -18 l 1
 530 75 l 1
 805 590 l 1
5 600 m 1
 240 600 l 1
 235 560 l 1
 0 560 l 1
 5 600 l 1
150 -18 m 1
 68 585 l 1
 158 585 l 1
 220 80 l 1
 150 -18 l 1
445 530 m 1
 475 480 l 1
 182 -18 l 1
 150 -18 l 1
 182 70 l 1
 445 530 l 1
-301 600 m 1
 -121 600 l 1
 -126 560 l 1
 -306 560 l 1
 -301 600 l 1
-706 600 m 1
 -471 600 l 1
 -476 560 l 1
 -711 560 l 1
 -706 600 l 1
-551 -18 m 1
 -641 585 l 1
 -551 585 l 1
 -481 75 l 1
 -551 -18 l 1
-226 590 m 1
 -166 590 l 1
 -519 -18 l 1
 -551 -18 l 1
 -519 70 l 1
 -226 590 l 1
-651 600 m 1
 -471 600 l 1
 -476 560 l 1
 -656 560 l 1
 -651 600 l 1
-1056 600 m 1
 -821 600 l 1
 -826 560 l 1
 -1061 560 l 1
 -1056 600 l 1
-901 -18 m 1
 -991 585 l 1
 -901 585 l 1
 -831 75 l 1
 -901 -18 l 1
-576 590 m 1
 -516 590 l 1
 -869 -18 l 1
 -901 -18 l 1
 -869 70 l 1
 -576 590 l 1
EndSplineSet
Fore
SplineSet
720 600 m 1
 900 600 l 1
 895 560 l 1
 715 560 l 1
 720 600 l 1
340 600 m 1
 570 600 l 1
 565 560 l 1
 335 560 l 1
 340 600 l 1
490 -18 m 1
 400 585 l 1
 488 585 l 1
 560 75 l 1
 490 -18 l 1
795 590 m 1
 854 590 l 1
 522 -18 l 1
 490 -18 l 1
 520 75 l 1
 795 590 l 1
5 600 m 1
 240 600 l 1
 235 560 l 1
 0 560 l 1
 5 600 l 1
150 -18 m 1
 68 585 l 1
 158 585 l 1
 220 80 l 1
 150 -18 l 1
445 525 m 1
 475 480 l 1
 182 -18 l 1
 150 -18 l 1
 182 70 l 1
 445 525 l 1
EndSplineSet
EndChar

StartChar: C
Encoding: 67 67 50
Width: 240
Flags: HW
LayerCount: 2
Back
SplineSet
364 -12 m 3
 174 -12 33 122 33 302 c 0
 33 474 188 612 383 612 c 3
 458 612 531 595 581 570 c 1
 591 430 l 25
 556 430 l 1
 546 480 531 505 511 525 c 0
 486 550 441 570 376 570 c 3
 231 570 134 470 134 310 c 0
 134 160 236 31 376 31 c 3
 466 31 521 70 547 125 c 10
 566 165 l 1
 604 165 l 25
 566 27 l 17
 514 0 429 -12 364 -12 c 3
EndSplineSet
Fore
SplineSet
62 45 m 0
 62 77 88 103 120 103 c 0
 152 103 178 77 178 45 c 0
 178 13 152 -13 120 -13 c 0
 88 -13 62 13 62 45 c 0
EndSplineSet
EndChar

StartChar: D
Encoding: 68 68 51
Width: 240
Flags: HW
LayerCount: 2
Back
SplineSet
290 43 m 0
 445 43 542 140 542 295 c 0
 542 460 435 565 270 565 c 1
 220 565 145 561 100 557 c 1
 25 554 l 1
 25 594 l 1
 95 600 207 607 282 607 c 3
 502 607 640 487 640 317 c 0
 640 145 517 0 285 0 c 0
 25 0 l 1
 25 40 l 1
 120 40 l 1
 185 93 l 1
 185 62 204 43 240 43 c 1
 290 43 l 0
185 580 m 1
 185 20 l 1
 100 20 l 1
 100 580 l 1
 185 580 l 1
EndSplineSet
Fore
SplineSet
62 45 m 0
 62 77 88 103 120 103 c 0
 152 103 178 77 178 45 c 0
 178 13 152 -13 120 -13 c 0
 88 -13 62 13 62 45 c 0
EndSplineSet
EndChar

StartChar: comma
Encoding: 44 44 52
Width: 220
Flags: HW
LayerCount: 2
Back
SplineSet
345 -35 m 3
 345 -70 302 -110 260 -125 c 1
 268 -160 l 1
 340 -137 420 -70 420 10 c 3
 420 60 395 98 355 98 c 0
 328 98 305 75 305 50 c 0
 305 10 345 15 345 -35 c 3
144.586914062 10 m 0
 124.586914062 19 112.586914062 30 112.586914062 50 c 0
 112.586914062 75 136.586914062 98 164.586914062 98 c 0
 204.586914062 98 244.586914062 60 244.586914062 0 c 3
 244.586914062 -70 189.586914062 -131 117.586914062 -154 c 1
 104.586914062 -122 l 1
 146.586914062 -107 176.586914062 -70 176.586914062 -35 c 3
 176.586914062 -15 166.586914062 0 144.586914062 10 c 0
EndSplineSet
Fore
SplineSet
85 -30 m 3
 85 -70 47 -110 5 -125 c 1
 13 -160 l 1
 85 -137 165 -70 165 12 c 3
 165 62 139 98 102 98 c 0
 75 98 50 75 50 50 c 0
 50 10 85 15 85 -30 c 3
EndSplineSet
EndChar

StartChar: exclam
Encoding: 33 33 53
Width: 230
Flags: HW
LayerCount: 2
Back
SplineSet
48 42 m 0
 53 70 79 93 105 93 c 0
 131 93 149 70 144 42 c 0
 139 14 114 -9 88 -9 c 0
 62 -9 43 14 48 42 c 0
202 620 m 17
 226 620 237 607 233 585 c 1
 226 545 176 340 134 170 c 9
 102 170 l 1
 116 340 132 545 139 585 c 1
 143 607 159 620 183 620 c 9
 202 620 l 17
EndSplineSet
Fore
SplineSet
44 34 m 0
 44 64 72 93 100 93 c 0
 124 93 141 75 141 50 c 0
 141 20 113 -9 85 -9 c 0
 61 -9 44 9 44 34 c 0
192 620 m 17
 212 620 223 610 223 595 c 3
 223 565 180 425 125 170 c 9
 90 170 l 1
 110 390 127 548 135 588 c 0
 139 608 150 620 175 620 c 9
 192 620 l 17
EndSplineSet
EndChar

StartChar: G
Encoding: 71 71 54
Width: 240
Flags: HW
LayerCount: 2
Back
SplineSet
585 270 m 1
 585 35 l 1
 502 60 l 1
 502 270 l 1
 585 270 l 1
415 280 m 1
 650 280 l 1
 650 240 l 1
 415 240 l 1
 415 280 l 1
357 -12 m 0
 176 -12 33 122 33 297 c 0
 33 474 188 612 383 612 c 0
 463 612 531 595 581 570 c 1
 585 432 l 1
 550 432 l 1
 545 477 530 505 510 525 c 0
 485 550 446 570 376 570 c 0
 236 570 132 465 132 305 c 0
 132 150 231 32 366 32 c 0
 421 32 467 45 502 65 c 1
 585 35 l 1
 525 5 429 -12 357 -12 c 0
EndSplineSet
Fore
SplineSet
62 45 m 0
 62 77 88 103 120 103 c 0
 152 103 178 77 178 45 c 0
 178 13 152 -13 120 -13 c 0
 88 -13 62 13 62 45 c 0
EndSplineSet
EndChar

StartChar: M
Encoding: 77 77 55
Width: 240
Flags: HW
LayerCount: 2
Back
SplineSet
520 40 m 1
 765 40 l 1
 765 0 l 1
 520 0 l 1
 520 40 l 1
660 590 m 1
 685 20 l 1
 600 20 l 1
 575 600 l 1
 660 590 l 1
10 40 m 1
 215 40 l 1
 215 0 l 1
 10 0 l 1
 10 40 l 1
163 535 m 1
 133 20 l 1
 85 20 l 1
 115 535 l 1
 163 535 l 1
345 -8 m 1
 145 495 l 1
 115 535 l 1
 105 550 88 560 58 560 c 1
 25 560 l 1
 25 600 l 1
 200 600 l 1
 405 75 l 1
 345 -8 l 1
575 600 m 1
 745 600 l 1
 745 560 l 1
 615 560 l 1
 380 -8 l 1
 345 -8 l 1
 370 80 l 1
 575 600 l 1
EndSplineSet
Fore
SplineSet
62 45 m 0
 62 77 88 103 120 103 c 0
 152 103 178 77 178 45 c 0
 178 13 152 -13 120 -13 c 0
 88 -13 62 13 62 45 c 0
EndSplineSet
EndChar

StartChar: S
Encoding: 83 83 56
Width: 240
Flags: HW
LayerCount: 2
Back
SplineSet
50 460 m 1
 50 540 130 614 230 614 c 1
 280 614 335 600 370 577 c 1
 375 462 l 1
 337 462 l 17
 330 495 l 2
 321 540 282 576 225 576 c 1
 170 576 128 538 128 493 c 1
 128 448 146 420 245 355 c 0
 362 278 393 235 393 165 c 1
 393 70 304 -14 195 -14 c 1
 140 -14 84 -2 42 25 c 1
 30 153 l 1
 68 153 l 25
 80 110 l 2
 94 60 136 25 200 25 c 1
 260 25 310 70 310 135 c 1
 310 185 279 215 178 283 c 0
 73 353 50 395 50 460 c 1
EndSplineSet
Fore
SplineSet
62 45 m 0
 62 77 88 103 120 103 c 0
 152 103 178 77 178 45 c 0
 178 13 152 -13 120 -13 c 0
 88 -13 62 13 62 45 c 0
EndSplineSet
EndChar

StartChar: slash
Encoding: 47 47 57
Width: 340
Flags: HW
LayerCount: 2
Fore
SplineSet
10 -40 m 1
 275 640 l 1
 330 640 l 1
 65 -40 l 1
 10 -40 l 1
EndSplineSet
EndChar

StartChar: quotesingle
Encoding: 39 39 58
Width: 240
Flags: HW
LayerCount: 2
Back
SplineSet
105 620 m 17
 130 620 140 610 140 595 c 1
 140 560 131 500 115 385 c 9
 85 385 l 1
 69 500 60 560 60 595 c 1
 60 610 70 620 95 620 c 9
 105 620 l 17
EndSplineSet
Fore
SplineSet
62 45 m 0
 62 77 88 103 120 103 c 0
 152 103 178 77 178 45 c 0
 178 13 152 -13 120 -13 c 0
 88 -13 62 13 62 45 c 0
EndSplineSet
EndChar

StartChar: X
Encoding: 88 88 59
Width: 240
Flags: HW
LayerCount: 2
Back
SplineSet
245 300 m 1
 290 275 l 1
 95 10 l 1
 30 10 l 1
 245 300 l 1
380 600 m 1
 580 600 l 1
 580 560 l 1
 380 560 l 1
 380 600 l 1
-5 600 m 1
 230 600 l 1
 230 560 l 1
 -5 560 l 1
 -5 600 l 1
430 10 m 1
 35 590 l 1
 145 590 l 1
 541 10 l 1
 430 10 l 1
340 40 m 1
 590 40 l 1
 590 0 l 1
 340 0 l 1
 340 40 l 1
-15 40 m 1
 190 40 l 1
 190 0 l 1
 -15 0 l 1
 -15 40 l 1
470 590 m 1
 535 590 l 1
 318 300 l 1
 273 325 l 1
 470 590 l 1
EndSplineSet
Fore
SplineSet
62 45 m 0
 62 77 88 103 120 103 c 0
 152 103 178 77 178 45 c 0
 178 13 152 -13 120 -13 c 0
 88 -13 62 13 62 45 c 0
EndSplineSet
EndChar

StartChar: Z
Encoding: 90 90 60
Width: 240
Flags: HW
LayerCount: 2
Back
SplineSet
410 556 m 17
 140 556 l 1
 105 556 90 535 75 460 c 1
 38 460 l 1
 50 600 l 1
 525 600 l 1
 525 570 l 9
 132 45 l 17
 405 45 l 1
 452 45 465 65 500 165 c 1
 537 165 l 1
 507 0 l 1
 15 0 l 1
 15 30 l 9
 410 556 l 17
EndSplineSet
Fore
SplineSet
62 45 m 0
 62 77 88 103 120 103 c 0
 152 103 178 77 178 45 c 0
 178 13 152 -13 120 -13 c 0
 88 -13 62 13 62 45 c 0
EndSplineSet
EndChar

StartChar: backslash
Encoding: 92 92 61
Width: 340
Flags: HW
LayerCount: 2
Back
SplineSet
310 -40 m 1
 260 -40 l 1
 10 640 l 1
 60 640 l 1
 310 -40 l 1
EndSplineSet
Fore
SplineSet
275 -40 m 1
 10 640 l 1
 65 640 l 1
 330 -40 l 1
 275 -40 l 1
EndSplineSet
EndChar

StartChar: quoteright
Encoding: 8217 8217 62
Width: 240
Flags: HW
LayerCount: 2
Back
SplineSet
87 537 m 0
 67 546 55 560 55 575 c 0
 55 600 79 625 107 625 c 0
 144 625 185 587 185 527 c 3
 185 457 135 400 65 375 c 1
 50 405 l 1
 90 420 117 455 117 492 c 3
 117 512 108 528 87 537 c 0
EndSplineSet
Fore
SplineSet
62 45 m 0
 62 77 88 103 120 103 c 0
 152 103 178 77 178 45 c 0
 178 13 152 -13 120 -13 c 0
 88 -13 62 13 62 45 c 0
EndSplineSet
EndChar

StartChar: endash
Encoding: 8211 8211 63
Width: 500
Flags: HW
LayerCount: 2
Fore
SplineSet
30 240 m 1
 470 240 l 1
 470 190 l 1
 30 190 l 1
 30 240 l 1
EndSplineSet
EndChar

StartChar: emdash
Encoding: 8212 8212 64
Width: 1000
Flags: HW
LayerCount: 2
Fore
SplineSet
30 240 m 1
 970 240 l 1
 970 190 l 1
 30 190 l 1
 30 240 l 1
EndSplineSet
EndChar

StartChar: quoteleft
Encoding: 8216 8216 65
Width: 240
Flags: HW
LayerCount: 2
Back
SplineSet
133 468 m 0
 153 459 165 445 165 430 c 0
 165 405 141 380 113 380 c 0
 76 380 35 418 35 478 c 3
 35 548 85 605 155 630 c 1
 170 600 l 1
 130 585 103 550 103 513 c 3
 103 493 112 477 133 468 c 0
EndSplineSet
Fore
SplineSet
62 45 m 0
 62 77 88 103 120 103 c 0
 152 103 178 77 178 45 c 0
 178 13 152 -13 120 -13 c 0
 88 -13 62 13 62 45 c 0
EndSplineSet
EndChar

StartChar: quotesinglbase
Encoding: 8218 8218 66
Width: 240
Flags: HW
LayerCount: 2
Back
Refer: 62 8217 N 1 0 0 1 0 -525 2
Fore
SplineSet
62 45 m 0
 62 77 88 103 120 103 c 0
 152 103 178 77 178 45 c 0
 178 13 152 -13 120 -13 c 0
 88 -13 62 13 62 45 c 0
EndSplineSet
EndChar

StartChar: quotedblleft
Encoding: 8220 8220 67
Width: 240
Flags: HW
LayerCount: 2
Back
SplineSet
303 468 m 0
 323 459 335 445 335 430 c 0
 335 405 311 380 283 380 c 0
 246 380 205 418 205 478 c 3
 205 548 255 605 325 630 c 1
 340 600 l 1
 300 585 273 550 273 513 c 3
 273 493 282 477 303 468 c 0
133 468 m 0
 153 459 165 445 165 430 c 0
 165 405 141 380 113 380 c 0
 76 380 35 418 35 478 c 3
 35 548 85 605 155 630 c 1
 170 600 l 1
 130 585 103 550 103 513 c 3
 103 493 112 477 133 468 c 0
EndSplineSet
Fore
SplineSet
62 45 m 0
 62 77 88 103 120 103 c 0
 152 103 178 77 178 45 c 0
 178 13 152 -13 120 -13 c 0
 88 -13 62 13 62 45 c 0
EndSplineSet
EndChar

StartChar: quotedblright
Encoding: 8221 8221 68
Width: 240
Flags: HW
LayerCount: 2
Back
SplineSet
257 537 m 0
 237 546 225 560 225 575 c 0
 225 600 249 625 277 625 c 0
 314 625 355 587 355 527 c 3
 355 457 305 400 235 375 c 1
 220 405 l 1
 260 420 287 455 287 492 c 3
 287 512 278 528 257 537 c 0
87 537 m 0
 67 546 55 560 55 575 c 0
 55 600 79 625 107 625 c 0
 144 625 185 587 185 527 c 3
 185 457 135 400 65 375 c 1
 50 405 l 1
 90 420 117 455 117 492 c 3
 117 512 108 528 87 537 c 0
EndSplineSet
Fore
SplineSet
62 45 m 0
 62 77 88 103 120 103 c 0
 152 103 178 77 178 45 c 0
 178 13 152 -13 120 -13 c 0
 88 -13 62 13 62 45 c 0
EndSplineSet
EndChar

StartChar: uni201F
Encoding: 8223 8223 69
Width: 1000
Flags: H
LayerCount: 2
Back
SplineSet
100 10 m 0
 80 19 68 30 68 50 c 0
 68 75 92 98 120 98 c 0
 160 98 200 60 200 0 c 3
 200 -70 145 -132 70 -155 c 1
 60 -122 l 1
 102 -107 132 -70 132 -35 c 3
 132 -15 122 0 100 10 c 0
EndSplineSet
EndChar

StartChar: dagger
Encoding: 8224 8224 70
Width: 240
Flags: HW
LayerCount: 2
Back
SplineSet
152 295 m 1
 169 325 177 369 180 424 c 1
 113 414 74 398 49 398 c 0
 28 398 12 416 12 437 c 0
 12 458 28 476 49 476 c 0
 74 476 112 460 182 450 c 1
 172 520 156 558 156 583 c 0
 156 604 174 620 195 620 c 0
 216 620 234 604 234 583 c 0
 234 558 218 520 208 450 c 1
 278 460 316 476 341 476 c 0
 362 476 378 458 378 437 c 0
 378 416 362 398 341 398 c 0
 316 398 277 414 210 424 c 1
 213 369 221 325 238 295 c 1
 220 250 212 160 211 50 c 1
 179 50 l 1
 176 160 170 250 152 295 c 1
EndSplineSet
Fore
SplineSet
62 45 m 0
 62 77 88 103 120 103 c 0
 152 103 178 77 178 45 c 0
 178 13 152 -13 120 -13 c 0
 88 -13 62 13 62 45 c 0
EndSplineSet
EndChar

StartChar: daggerdbl
Encoding: 8225 8225 71
Width: 240
Flags: HW
LayerCount: 2
Back
SplineSet
152 310 m 1
 169 340 178 374 181 424 c 1
 112 414 74 398 49 398 c 0
 28 398 12 416 12 437 c 0
 12 458 28 476 49 476 c 0
 74 476 112 460 182 450 c 1
 172 520 156 558 156 583 c 0
 156 604 174 620 195 620 c 0
 216 620 234 604 234 583 c 0
 234 558 218 520 208 450 c 1
 278 460 316 476 341 476 c 0
 362 476 378 458 378 437 c 0
 378 416 362 398 341 398 c 0
 316 398 278 414 209 424 c 1
 212 374 221 340 238 310 c 1
 221 280 212 246 209 196 c 1
 278 206 316 222 341 222 c 0
 362 222 378 204 378 183 c 0
 378 162 362 144 341 144 c 0
 316 144 278 160 208 170 c 1
 218 100 234 62 234 37 c 0
 234 16 216 0 195 0 c 0
 174 0 156 16 156 37 c 0
 156 62 172 100 182 170 c 1
 112 160 74 144 49 144 c 0
 28 144 12 162 12 183 c 0
 12 204 28 222 49 222 c 0
 74 222 112 206 181 196 c 1
 178 246 169 280 152 310 c 1
EndSplineSet
Fore
SplineSet
62 45 m 0
 62 77 88 103 120 103 c 0
 152 103 178 77 178 45 c 0
 178 13 152 -13 120 -13 c 0
 88 -13 62 13 62 45 c 0
EndSplineSet
EndChar

StartChar: bullet
Encoding: 8226 8226 72
Width: 240
Flags: HW
LayerCount: 2
Back
SplineSet
30 215 m 0
 30 273 77 320 135 320 c 0
 193 320 240 273 240 215 c 0
 240 157 193 110 135 110 c 0
 77 110 30 157 30 215 c 0
EndSplineSet
Fore
SplineSet
35 215 m 0
 35 262 73 300 120 300 c 0
 167 300 205 262 205 215 c 0
 205 168 167 130 120 130 c 0
 73 130 35 168 35 215 c 0
EndSplineSet
EndChar

StartChar: ellipsis
Encoding: 8230 8230 73
Width: 810
Flags: HW
LayerCount: 2
Fore
SplineSet
607 45 m 0
 607 77 633 103 665 103 c 0
 697 103 723 77 723 45 c 0
 723 13 697 -13 665 -13 c 0
 633 -13 607 13 607 45 c 0
347 45 m 0
 347 77 373 103 405 103 c 0
 437 103 463 77 463 45 c 0
 463 13 437 -13 405 -13 c 0
 373 -13 347 13 347 45 c 0
87 45 m 0
 87 77 113 103 145 103 c 0
 177 103 203 77 203 45 c 0
 203 13 177 -13 145 -13 c 0
 113 -13 87 13 87 45 c 0
EndSplineSet
Validated: 1
EndChar

StartChar: uniFB00
Encoding: 64256 64256 74
Width: 700
Flags: HW
LayerCount: 2
Fore
SplineSet
100 500 m 1
 600 500 l 1
 600 0 l 1
 100 0 l 1
 100 500 l 1
EndSplineSet
EndChar

StartChar: uniFB01
Encoding: 64257 64257 75
Width: 700
Flags: HW
LayerCount: 2
Fore
SplineSet
100 500 m 1
 600 500 l 1
 600 0 l 1
 100 0 l 1
 100 500 l 1
EndSplineSet
EndChar

StartChar: uniFB02
Encoding: 64258 64258 76
Width: 700
Flags: HW
LayerCount: 2
Fore
SplineSet
100 500 m 1
 600 500 l 1
 600 0 l 1
 100 0 l 1
 100 500 l 1
EndSplineSet
EndChar

StartChar: uniFB03
Encoding: 64259 64259 77
Width: 700
Flags: HW
LayerCount: 2
Fore
SplineSet
100 500 m 1
 600 500 l 1
 600 0 l 1
 100 0 l 1
 100 500 l 1
EndSplineSet
EndChar

StartChar: uniFB04
Encoding: 64260 64260 78
Width: 700
Flags: HW
LayerCount: 2
Fore
SplineSet
100 500 m 1
 600 500 l 1
 600 0 l 1
 100 0 l 1
 100 500 l 1
EndSplineSet
EndChar

StartChar: colon
Encoding: 58 58 79
Width: 240
Flags: HW
LayerCount: 2
Back
SplineSet
70 340 m 0
 70 370 95 395 125 395 c 0
 155 395 180 370 180 340 c 0
 180 310 155 285 125 285 c 0
 95 285 70 310 70 340 c 0
70 45 m 0
 70 75 95 100 125 100 c 0
 155 100 180 75 180 45 c 0
 180 15 155 -10 125 -10 c 0
 95 -10 70 15 70 45 c 0
EndSplineSet
Fore
SplineSet
62 45 m 0
 62 77 88 103 120 103 c 0
 152 103 178 77 178 45 c 0
 178 13 152 -13 120 -13 c 0
 88 -13 62 13 62 45 c 0
EndSplineSet
EndChar

StartChar: semicolon
Encoding: 59 59 80
Width: 240
Flags: HW
LayerCount: 2
Back
SplineSet
70 340 m 0
 70 370 95 395 125 395 c 0
 155 395 180 370 180 340 c 0
 180 310 155 285 125 285 c 0
 95 285 70 310 70 340 c 0
95 10 m 0
 75 19 63 30 63 50 c 0
 63 75 87 98 115 98 c 0
 155 98 195 60 195 0 c 3
 195 -70 140 -131 68 -154 c 1
 55 -122 l 1
 97 -107 127 -70 127 -35 c 3
 127 -15 117 0 95 10 c 0
EndSplineSet
Fore
SplineSet
62 45 m 0
 62 77 88 103 120 103 c 0
 152 103 178 77 178 45 c 0
 178 13 152 -13 120 -13 c 0
 88 -13 62 13 62 45 c 0
EndSplineSet
EndChar

StartChar: quotedbl
Encoding: 34 34 81
Width: 240
Flags: HW
LayerCount: 2
Back
SplineSet
245 620 m 17
 270 620 280 610 280 595 c 1
 280 560 271 500 255 385 c 9
 225 385 l 1
 209 500 200 560 200 595 c 1
 200 610 210 620 235 620 c 9
 245 620 l 17
105 620 m 17
 130 620 140 610 140 595 c 1
 140 560 131 500 115 385 c 9
 85 385 l 1
 69 500 60 560 60 595 c 1
 60 610 70 620 95 620 c 9
 105 620 l 17
EndSplineSet
Fore
SplineSet
62 45 m 0
 62 77 88 103 120 103 c 0
 152 103 178 77 178 45 c 0
 178 13 152 -13 120 -13 c 0
 88 -13 62 13 62 45 c 0
EndSplineSet
EndChar

StartChar: acute
Encoding: 180 180 82
Width: 250
Flags: HW
LayerCount: 2
Back
SplineSet
125 645 m 1
 200 630 l 1
 90 460 l 1
 55 460 l 1
 125 645 l 1
EndSplineSet
Fore
Refer: 139 769 N 1 0 0 1 125 0 2
EndChar

StartChar: two
Encoding: 50 50 83
Width: 240
Flags: HW
LayerCount: 2
Back
SplineSet
220 270 m 3
 220 307 190 335 155 335 c 3
 120 335 90 308 75 280 c 1
 45 300 l 1
 75 355 120 400 185 400 c 3
 250 400 305 350 305 290 c 3
 305 215 270 178 130 68 c 1
 310 68 l 1
 330 68 340 83 355 125 c 1
 390 125 l 1
 365 0 l 1
 30 0 l 1
 30 30 l 1
 170 150 220 200 220 270 c 3
EndSplineSet
Fore
SplineSet
62 45 m 0
 62 77 88 103 120 103 c 0
 152 103 178 77 178 45 c 0
 178 13 152 -13 120 -13 c 0
 88 -13 62 13 62 45 c 0
EndSplineSet
EndChar

StartChar: three
Encoding: 51 51 84
Width: 240
Flags: HW
LayerCount: 2
Back
SplineSet
75 80 m 1
 65 110 l 1
 175 170 198 215 198 265 c 3
 198 307 168 338 130 338 c 3
 95 338 65 310 50 282 c 1
 20 302 l 1
 50 357 95 400 160 400 c 3
 225 400 280 348 280 288 c 3
 280 233 245 193 180 148 c 1
 186 149 196 150 202 150 c 0
 267 150 320 95 320 15 c 3
 320 -120 190 -218 40 -250 c 1
 25 -220 l 17
 147 -185 240 -105 240 -5 c 3
 240 60 203 100 148 100 c 3
 120 100 100 92 75 80 c 1
EndSplineSet
Fore
SplineSet
62 45 m 0
 62 77 88 103 120 103 c 0
 152 103 178 77 178 45 c 0
 178 13 152 -13 120 -13 c 0
 88 -13 62 13 62 45 c 0
EndSplineSet
EndChar

StartChar: four
Encoding: 52 52 85
Width: 240
Flags: HW
LayerCount: 2
Back
SplineSet
10 55 m 1
 305 405 l 25
 335 405 l 1
 335 -175 l 1
 261 -175 l 1
 261 290 l 1
 95 90 l 1
 465 90 l 1
 465 25 l 1
 10 25 l 1
 10 55 l 1
EndSplineSet
Fore
SplineSet
62 45 m 0
 62 77 88 103 120 103 c 0
 152 103 178 77 178 45 c 0
 178 13 152 -13 120 -13 c 0
 88 -13 62 13 62 45 c 0
EndSplineSet
EndChar

StartChar: five
Encoding: 53 53 86
Width: 240
Flags: HW
LayerCount: 2
Back
SplineSet
65 390 m 25
 310 390 l 1
 300 320 l 25
 100 320 l 1
 93 280 l 1
 233 185 295 120 295 0 c 3
 295 -125 190 -225 40 -250 c 1
 30 -220 l 1
 150 -190 215 -110 215 -15 c 3
 215 80 150 145 35 215 c 1
 65 390 l 25
EndSplineSet
Fore
SplineSet
62 45 m 0
 62 77 88 103 120 103 c 0
 152 103 178 77 178 45 c 0
 178 13 152 -13 120 -13 c 0
 88 -13 62 13 62 45 c 0
EndSplineSet
EndChar

StartChar: parenright
Encoding: 41 41 87
Width: 350
Flags: HW
LayerCount: 2
Back
SplineSet
310 205 m 1
 310 25 207 -130 50 -225 c 1
 30 -197 l 1
 147 -107 220 20 220 200 c 1
 220 380 147 507 30 597 c 1
 50 625 l 1
 207 535 310 385 310 205 c 1
EndSplineSet
Fore
SplineSet
310 205 m 1
 310 25 207 -130 50 -225 c 1
 30 -197 l 1
 147 -107 220 20 220 200 c 1
 220 380 147 507 30 597 c 1
 50 625 l 1
 207 535 310 385 310 205 c 1
EndSplineSet
EndChar

StartChar: parenleft
Encoding: 40 40 88
Width: 350
Flags: HW
LayerCount: 2
Back
SplineSet
40 195 m 1
 40 375 143 530 300 625 c 1
 320 597 l 1
 203 507 130 380 130 200 c 1
 130 20 203 -107 320 -197 c 1
 300 -225 l 1
 143 -135 40 15 40 195 c 1
EndSplineSet
Fore
SplineSet
40 195 m 1
 40 375 143 530 300 625 c 1
 320 597 l 1
 203 507 130 380 130 200 c 1
 130 20 203 -107 320 -197 c 1
 300 -225 l 1
 143 -135 40 15 40 195 c 1
EndSplineSet
EndChar

StartChar: bracketright
Encoding: 93 93 89
Width: 340
Flags: HW
LayerCount: 2
Back
SplineSet
310 205 m 1
 310 25 207 -130 50 -225 c 1
 30 -197 l 1
 147 -107 220 20 220 200 c 1
 220 380 147 507 30 597 c 1
 50 625 l 1
 207 535 310 385 310 205 c 1
EndSplineSet
Fore
SplineSet
40 610 m 25
 270 610 l 1
 270 -210 l 1
 40 -210 l 1
 40 -160 l 1
 196 -160 l 1
 196 560 l 25
 40 560 l 1
 40 610 l 25
EndSplineSet
EndChar

StartChar: bracketleft
Encoding: 91 91 90
Width: 340
Flags: HW
LayerCount: 2
Back
SplineSet
40 610 m 25
 270 610 l 1
 270 -210 l 1
 40 -210 l 1
 40 -160 l 1
 196 -160 l 1
 196 560 l 25
 40 560 l 1
 40 610 l 25
EndSplineSet
Fore
SplineSet
300 -210 m 25
 70 -210 l 1
 70 610 l 1
 300 610 l 1
 300 560 l 1
 144 560 l 1
 144 -160 l 25
 300 -160 l 1
 300 -210 l 25
EndSplineSet
EndChar

StartChar: six
Encoding: 54 54 91
Width: 240
Flags: HW
LayerCount: 2
Back
SplineSet
385 630 m 1
 400 595 l 17
 240 520 120 385 120 208 c 3
 120 108 175 32 240 32 c 3
 300 32 345 88 345 160 c 3
 345 235 295 285 240 285 c 3
 220 285 197 280 177 272 c 9
 170 302 l 17
 200 327 240 347 280 347 c 3
 360 347 430 280 430 185 c 3
 430 75 345 -10 225 -10 c 3
 120 -10 35 75 35 195 c 3
 35 395 195 560 385 630 c 1
EndSplineSet
Fore
SplineSet
62 45 m 0
 62 77 88 103 120 103 c 0
 152 103 178 77 178 45 c 0
 178 13 152 -13 120 -13 c 0
 88 -13 62 13 62 45 c 0
EndSplineSet
EndChar

StartChar: nine
Encoding: 57 57 92
Width: 240
Flags: HW
LayerCount: 2
Back
SplineSet
80 -245 m 1
 65 -210 l 17
 235 -135 335 -3 335 177 c 3
 335 272 295 357 218 357 c 3
 155 357 115 300 115 230 c 3
 115 155 160 105 215 105 c 3
 235 105 262 109 280 117 c 9
 287 88 l 17
 261 65 217 45 175 45 c 3
 100 45 30 105 30 200 c 3
 30 310 115 400 235 400 c 3
 340 400 420 310 420 190 c 3
 420 -15 285 -170 80 -245 c 1
EndSplineSet
Fore
SplineSet
62 45 m 0
 62 77 88 103 120 103 c 0
 152 103 178 77 178 45 c 0
 178 13 152 -13 120 -13 c 0
 88 -13 62 13 62 45 c 0
EndSplineSet
EndChar

StartChar: seven
Encoding: 55 55 93
Width: 240
Flags: HW
LayerCount: 2
Back
SplineSet
20 260 m 1
 35 390 l 1
 380 390 l 1
 380 360 l 25
 155 -240 l 1
 95 -240 l 25
 320 322 l 1
 97 322 l 1
 75 322 65 305 55 260 c 1
 20 260 l 1
EndSplineSet
Fore
SplineSet
62 45 m 0
 62 77 88 103 120 103 c 0
 152 103 178 77 178 45 c 0
 178 13 152 -13 120 -13 c 0
 88 -13 62 13 62 45 c 0
EndSplineSet
EndChar

StartChar: eight
Encoding: 56 56 94
Width: 240
Flags: HW
LayerCount: 2
Back
SplineSet
220 611 m 3
 300 611 367 550 367 480 c 3
 367 416 325 370 250 325 c 1
 225 340 l 1
 270 375 290 413 290 465 c 3
 290 520 262 569 210 569 c 3
 163 569 128 530 128 480 c 3
 128 420 181 386 250 340 c 0
 325 290 388 245 388 155 c 3
 388 58 297 -11 205 -11 c 3
 115 -11 39 60 39 135 c 3
 39 204 85 252 165 300 c 1
 190 283 l 1
 142 248 118 210 118 150 c 3
 118 90 153 30 213 30 c 3
 271 30 310 77 310 135 c 3
 310 200 249 239 180 285 c 0
 105 335 55 380 55 455 c 3
 55 540 135 611 220 611 c 3
EndSplineSet
Fore
SplineSet
62 45 m 0
 62 77 88 103 120 103 c 0
 152 103 178 77 178 45 c 0
 178 13 152 -13 120 -13 c 0
 88 -13 62 13 62 45 c 0
EndSplineSet
EndChar

StartChar: thorn
Encoding: 254 254 95
Width: 240
Flags: HW
LayerCount: 2
Back
SplineSet
20 -215 m 1
 235 -215 l 1
 235 -250 l 1
 20 -250 l 1
 20 -215 l 1
159 316 m 1
 159 345 l 1
 194 375 245 400 290 400 c 3
 380 400 453 313 453 208 c 3
 453 86 349 -9 242 -9 c 3
 214 -9 179 -4 159 4 c 9
 159 72 l 1
 179 49 214 34 253 34 c 3
 320 34 377 93 377 180 c 3
 377 268 320 342 242 342 c 3
 215 342 184 331 159 316 c 1
31 610 m 1
 149 654 l 1
 159 654 l 1
 159 -230 l 1
 85 -230 l 1
 85 560 l 1
 31 600 l 1
 31 610 l 1
EndSplineSet
Fore
SplineSet
62 45 m 0
 62 77 88 103 120 103 c 0
 152 103 178 77 178 45 c 0
 178 13 152 -13 120 -13 c 0
 88 -13 62 13 62 45 c 0
EndSplineSet
EndChar

StartChar: Eth
Encoding: 208 208 96
Width: 240
Flags: HW
LayerCount: 2
Back
SplineSet
35 340 m 1
 290 340 l 1
 290 295 l 1
 35 295 l 1
 35 340 l 1
290 43 m 0
 445 43 542 140 542 295 c 0
 542 460 440 565 270 565 c 1
 220 565 145 561 100 557 c 1
 25 554 l 1
 25 594 l 1
 95 600 207 607 282 607 c 3
 502 607 640 487 640 317 c 0
 640 145 515 0 285 0 c 0
 25 0 l 1
 25 40 l 1
 120 40 l 1
 185 93 l 1
 185 62 204 43 240 43 c 1
 290 43 l 0
185 580 m 1
 185 20 l 1
 100 20 l 1
 100 580 l 1
 185 580 l 1
EndSplineSet
Fore
SplineSet
62 45 m 0
 62 77 88 103 120 103 c 0
 152 103 178 77 178 45 c 0
 178 13 152 -13 120 -13 c 0
 88 -13 62 13 62 45 c 0
EndSplineSet
EndChar

StartChar: numbersign
Encoding: 35 35 97
Width: 460
Flags: HW
LayerCount: 2
Back
SplineSet
55 340 m 1
 430 340 l 1
 430 285 l 1
 55 285 l 1
 55 340 l 1
25 150 m 1
 400 150 l 1
 400 95 l 1
 25 95 l 1
 25 150 l 1
235 -40 m 1
 335 470 l 1
 380 470 l 1
 280 -40 l 1
 235 -40 l 1
75 -40 m 1
 175 470 l 1
 220 470 l 1
 120 -40 l 1
 75 -40 l 1
-415 330 m 1
 -35 330 l 1
 -35 275 l 1
 -415 275 l 1
 -415 330 l 1
-455 150 m 1
 -75 150 l 1
 -75 95 l 1
 -455 95 l 1
 -455 150 l 1
-240 -40 m 1
 -140 465 l 1
 -95 465 l 1
 -195 -40 l 1
 -240 -40 l 1
-395 -40 m 1
 -295 465 l 1
 -250 465 l 1
 -350 -40 l 1
 -395 -40 l 1
-890 325 m 1
 -500 325 l 1
 -500 285 l 1
 -890 285 l 1
 -890 325 l 1
-930 135 m 1
 -540 135 l 1
 -540 95 l 1
 -930 95 l 1
 -930 135 l 1
-700 -45 m 1
 -600 465 l 1
 -550 465 l 1
 -650 -45 l 1
 -700 -45 l 1
-880 -45 m 1
 -780 465 l 1
 -730 465 l 1
 -830 -45 l 1
 -880 -45 l 1
EndSplineSet
Fore
SplineSet
45 355 m 1
 445 355 l 1
 445 298 l 1
 45 298 l 1
 45 355 l 1
15 142 m 1
 415 142 l 1
 415 85 l 1
 15 85 l 1
 15 142 l 1
250 -50 m 1
 350 485 l 1
 395 485 l 1
 295 -50 l 1
 250 -50 l 1
65 -50 m 1
 165 485 l 1
 210 485 l 1
 110 -50 l 1
 65 -50 l 1
EndSplineSet
EndChar

StartChar: guilsinglleft
Encoding: 8249 8249 98
Width: 260
Flags: HW
LayerCount: 2
Back
SplineSet
55 375 m 1
 225 215 l 1
 225 185 l 25
 55 25 l 1
 40 55 l 1
 140 200 l 1
 40 345 l 1
 55 375 l 1
EndSplineSet
Fore
SplineSet
205 25 m 1
 20 185 l 1
 20 215 l 25
 205 375 l 1
 222 345 l 1
 110 200 l 1
 222 55 l 1
 205 25 l 1
EndSplineSet
EndChar

StartChar: guilsinglright
Encoding: 8250 8250 99
Width: 260
Flags: HW
LayerCount: 2
Back
SplineSet
50 350 m 1
 230 220 l 1
 230 200 l 25
 50 70 l 1
 40 95 l 1
 160 210 l 1
 40 325 l 1
 50 350 l 1
EndSplineSet
Fore
SplineSet
55 375 m 1
 240 215 l 1
 240 185 l 25
 55 25 l 1
 38 55 l 1
 150 200 l 1
 38 345 l 1
 55 375 l 1
EndSplineSet
EndChar

StartChar: guillemotright
Encoding: 187 187 100
Width: 450
Flags: HW
LayerCount: 2
Back
SplineSet
245 375 m 1
 420 215 l 1
 420 185 l 25
 245 25 l 1
 228 55 l 1
 332 200 l 1
 228 345 l 1
 245 375 l 1
55 375 m 1
 230 215 l 1
 230 185 l 25
 55 25 l 1
 38 55 l 1
 142 200 l 1
 38 345 l 1
 55 375 l 1
-225 375 m 1
 -40 215 l 1
 -40 185 l 25
 -225 25 l 1
 -242 55 l 1
 -130 200 l 1
 -242 345 l 1
 -225 375 l 1
EndSplineSet
Fore
SplineSet
247 373 m 1
 420 215 l 1
 420 185 l 25
 247 27 l 1
 230 57 l 1
 332 200 l 1
 230 343 l 1
 247 373 l 1
55 375 m 1
 230 215 l 1
 230 185 l 25
 55 25 l 1
 38 55 l 1
 142 200 l 1
 38 345 l 1
 55 375 l 1
EndSplineSet
EndChar

StartChar: guillemotleft
Encoding: 171 171 101
Width: 450
Flags: HW
LayerCount: 2
Back
SplineSet
203 27 m 1
 30 185 l 1
 30 215 l 25
 203 373 l 1
 220 343 l 1
 118 200 l 1
 220 57 l 1
 203 27 l 1
395 25 m 1
 220 185 l 1
 220 215 l 25
 395 375 l 1
 412 345 l 1
 308 200 l 1
 412 55 l 1
 395 25 l 1
EndSplineSet
Fore
SplineSet
203 27 m 1
 30 185 l 1
 30 215 l 25
 203 373 l 1
 220 343 l 1
 118 200 l 1
 220 57 l 1
 203 27 l 1
395 25 m 1
 220 185 l 1
 220 215 l 25
 395 375 l 1
 412 345 l 1
 308 200 l 1
 412 55 l 1
 395 25 l 1
EndSplineSet
EndChar

StartChar: question
Encoding: 63 63 102
Width: 240
Flags: HW
LayerCount: 2
Back
SplineSet
117 170 m 1
 100 205 85 250 85 285 c 3
 85 320 103 338 148 353 c 2
 178 363 l 2
 238 383 244 402 244 432 c 3
 244 487 200 540 150 540 c 3
 123 540 107 528 87 528 c 3
 65 528 49 548 49 573 c 3
 49 595 73 612 103 612 c 3
 198 612 305 505 305 390 c 3
 305 340 282 315 222 295 c 2
 198 287 l 2
 156 273 142 259 142 230 c 3
 142 210 145 192 149 170 c 9
 117 170 l 1
84 42 m 0
 84 70 107 93 135 93 c 0
 163 93 186 70 186 42 c 0
 186 14 163 -9 135 -9 c 0
 107 -9 84 14 84 42 c 0
EndSplineSet
Fore
SplineSet
62 45 m 0
 62 77 88 103 120 103 c 0
 152 103 178 77 178 45 c 0
 178 13 152 -13 120 -13 c 0
 88 -13 62 13 62 45 c 0
EndSplineSet
EndChar

StartChar: percent
Encoding: 37 37 103
Width: 240
Flags: HW
LayerCount: 2
Back
SplineSet
99 450 m 0
 99 373 132 308 180 308 c 0
 222 308 251 358 251 430 c 0
 251 507 218 572 170 572 c 0
 128 572 99 522 99 450 c 0
30 440 m 0
 30 535 93 610 175 610 c 0
 257 610 320 535 320 440 c 0
 320 345 257 270 175 270 c 0
 93 270 30 345 30 440 c 0
499 170 m 0
 499 93 532 28 580 28 c 0
 622 28 651 78 651 150 c 0
 651 227 618 292 570 292 c 0
 528 292 499 242 499 170 c 0
430 160 m 0
 430 255 493 330 575 330 c 0
 657 330 720 255 720 160 c 0
 720 65 657 -10 575 -10 c 0
 493 -10 430 65 430 160 c 0
120 -40 m 1
 575 640 l 1
 630 640 l 1
 175 -40 l 1
 120 -40 l 1
EndSplineSet
Fore
SplineSet
62 45 m 0
 62 77 88 103 120 103 c 0
 152 103 178 77 178 45 c 0
 178 13 152 -13 120 -13 c 0
 88 -13 62 13 62 45 c 0
EndSplineSet
EndChar

StartChar: ampersand
Encoding: 38 38 104
Width: 240
Flags: HW
LayerCount: 2
Back
SplineSet
460 390 m 1
 640 390 l 1
 640 355 l 1
 460 355 l 1
 460 390 l 1
530 370 m 1
 585 370 l 1
 548 290 502 215 445 145 c 1
 413 170 l 1
 463 235 505 305 530 370 c 1
205 -10 m 3
 110 -10 35 70 35 165 c 3
 35 245 80 285 160 330 c 1
 185 308 l 1
 135 278 110 240 110 190 c 3
 110 120 168 57 235 57 c 3
 290 57 335 80 375 125 c 1
 405 100 l 17
 353 35 290 -10 205 -10 c 3
450 155 m 18
 500 108 550 57 600 57 c 3
 625 57 645 63 665 75 c 1
 685 55 l 1
 650 15 600 -10 550 -10 c 3
 480 -10 440 53 390 100 c 10
 190 300 l 18
 125 359 95 405 95 465 c 3
 95 545 165 611 245 611 c 3
 315 611 380 553 380 488 c 3
 380 423 327 377 257 342 c 1
 232 362 l 1
 277 394 305 425 305 475 c 3
 305 530 277 570 235 570 c 3
 197 570 165 535 165 490 c 3
 165 445 190 410 250 355 c 10
 450 155 l 18
EndSplineSet
Fore
SplineSet
62 45 m 0
 62 77 88 103 120 103 c 0
 152 103 178 77 178 45 c 0
 178 13 152 -13 120 -13 c 0
 88 -13 62 13 62 45 c 0
EndSplineSet
EndChar

StartChar: asterisk
Encoding: 42 42 105
Width: 240
Flags: HW
LayerCount: 2
Back
SplineSet
185 425 m 1
 163 369 147 332 134 314 c 0
 126 303 117 300 105 300 c 0
 87 300 67 317 67 337 c 0
 67 361 94 381 164 440 c 1
 104 444 63 448 42 455 c 0
 27 460 19 472 19 488 c 0
 19 511 36 527 54 527 c 0
 74 527 121 497 172 465 c 1
 157 523 148 563 148 585 c 0
 148 605 164 620 185 620 c 0
 206 620 222 605 222 585 c 0
 222 563 213 523 198 465 c 1
 249 497 296 527 316 527 c 0
 334 527 351 511 351 488 c 0
 351 472 343 460 328 455 c 0
 307 448 266 444 206 440 c 1
 276 381 303 361 303 337 c 0
 303 317 283 300 265 300 c 0
 253 300 244 303 236 314 c 0
 223 332 207 369 185 425 c 1
EndSplineSet
Fore
SplineSet
62 45 m 0
 62 77 88 103 120 103 c 0
 152 103 178 77 178 45 c 0
 178 13 152 -13 120 -13 c 0
 88 -13 62 13 62 45 c 0
EndSplineSet
EndChar

StartChar: uni00B2
Encoding: 178 178 106
Width: 240
Flags: HW
LayerCount: 2
Back
SplineSet
200 495 m 3
 200 532 175 558 145 558 c 3
 115 558 92 538 77 513 c 1
 55 535 l 1
 78 577 118 610 170 610 c 3
 222 610 268 567 268 512 c 3
 268 452 227 410 130 335 c 1
 235 335 l 1
 255 335 265 342 275 382 c 1
 305 382 l 1
 290 280 l 1
 45 280 l 1
 45 308 l 1
 145 390 200 435 200 495 c 3
EndSplineSet
Fore
SplineSet
62 45 m 0
 62 77 88 103 120 103 c 0
 152 103 178 77 178 45 c 0
 178 13 152 -13 120 -13 c 0
 88 -13 62 13 62 45 c 0
EndSplineSet
EndChar

StartChar: uni00B9
Encoding: 185 185 107
Width: 240
Flags: HW
LayerCount: 2
Back
SplineSet
73 316 m 1
 290 316 l 1
 290 280 l 1
 73 280 l 1
 73 316 l 1
76 565 m 1
 204 614 l 1
 214 614 l 1
 214 300 l 1
 152 300 l 1
 152 540 l 1
 76 538 l 1
 76 565 l 1
EndSplineSet
Fore
SplineSet
62 45 m 0
 62 77 88 103 120 103 c 0
 152 103 178 77 178 45 c 0
 178 13 152 -13 120 -13 c 0
 88 -13 62 13 62 45 c 0
EndSplineSet
EndChar

StartChar: uni00B3
Encoding: 179 179 108
Width: 240
Flags: HW
LayerCount: 2
Back
SplineSet
132 422 m 1
 124 450 l 1
 184 468 200 492 200 520 c 0
 200 542 179 564 154 564 c 0
 127 564 105 545 93 525 c 1
 70 545 l 1
 92 580 125 610 175 610 c 0
 222 610 260 578 260 538 c 0
 260 510 240 480 205 465 c 1
 255 464 288 430 288 390 c 0
 288 316 200 265 90 260 c 1
 85 289 l 1
 170 297 218 334 218 382 c 0
 218 412 195 432 170 432 c 0
 158 432 143 427 132 422 c 1
EndSplineSet
Fore
SplineSet
62 45 m 0
 62 77 88 103 120 103 c 0
 152 103 178 77 178 45 c 0
 178 13 152 -13 120 -13 c 0
 88 -13 62 13 62 45 c 0
EndSplineSet
EndChar

StartChar: plus
Encoding: 43 43 109
Width: 400
Flags: HW
LayerCount: 2
Back
SplineSet
24 204 m 0
 24 301 103 380 200 380 c 0
 297 380 376 301 376 204 c 0
 376 107 297 28 200 28 c 0
 103 28 24 107 24 204 c 0
10 -40 m 1
 275 640 l 1
 330 640 l 1
 65 -40 l 1
 10 -40 l 1
EndSplineSet
Fore
SplineSet
225 380 m 1
 225 30 l 1
 175 30 l 1
 175 380 l 1
 225 380 l 1
25 230 m 1
 375 230 l 1
 375 180 l 1
 25 180 l 1
 25 230 l 1
EndSplineSet
EndChar

StartChar: equal
Encoding: 61 61 110
Width: 400
Flags: HW
LayerCount: 2
Back
SplineSet
24 204 m 0
 24 301 103 380 200 380 c 0
 297 380 376 301 376 204 c 0
 376 107 297 28 200 28 c 0
 103 28 24 107 24 204 c 0
225 380 m 1
 225 30 l 1
 175 30 l 1
 175 380 l 1
 225 380 l 1
25 230 m 1
 375 230 l 1
 375 180 l 1
 25 180 l 1
 25 230 l 1
EndSplineSet
Fore
SplineSet
30 150 m 1
 370 150 l 1
 370 100 l 1
 30 100 l 1
 30 150 l 1
30 310 m 1
 370 310 l 1
 370 260 l 1
 30 260 l 1
 30 310 l 1
EndSplineSet
EndChar

StartChar: less
Encoding: 60 60 111
Width: 400
Flags: HW
LayerCount: 2
Back
SplineSet
45 225 m 1
 365 110 l 1
 365 55 l 1
 30 180 l 1
 30 230 l 1
 45 225 l 1
30 230 m 1
 365 355 l 1
 365 300 l 1
 45 185 l 1
 30 180 l 1
 30 230 l 1
225 380 m 1
 225 30 l 1
 175 30 l 1
 175 380 l 1
 225 380 l 1
25 230 m 1
 375 230 l 1
 375 180 l 1
 25 180 l 1
 25 230 l 1
35 150 m 1
 365 150 l 1
 365 100 l 1
 35 100 l 1
 35 150 l 1
35 310 m 1
 365 310 l 1
 365 260 l 1
 35 260 l 1
 35 310 l 1
EndSplineSet
Fore
SplineSet
96 215 m 1
 370 100 l 1
 370 45 l 1
 25 190 l 1
 25 220 l 1
 96 215 l 1
25 220 m 1
 370 365 l 1
 370 310 l 1
 96 195 l 1
 25 190 l 1
 25 220 l 1
EndSplineSet
EndChar

StartChar: greater
Encoding: 62 62 112
Width: 400
Flags: HW
LayerCount: 2
Back
SplineSet
302 195 m 1
 35 305 l 1
 35 360 l 1
 375 220 l 1
 375 190 l 1
 302 195 l 1
375 190 m 1
 35 50 l 1
 35 105 l 1
 302 215 l 1
 375 220 l 1
 375 190 l 1
-100 195 m 1
 -365 303 l 1
 -365 360 l 1
 -25 220 l 1
 -25 190 l 1
 -100 195 l 1
-25 190 m 1
 -365 50 l 1
 -365 107 l 1
 -100 215 l 1
 -25 220 l 1
 -25 190 l 1
-530 195 m 1
 -795 295 l 1
 -795 350 l 1
 -460 220 l 1
 -460 190 l 1
 -530 195 l 1
-460 190 m 1
 -795 60 l 1
 -795 115 l 1
 -530 215 l 1
 -460 220 l 1
 -460 190 l 1
EndSplineSet
Fore
SplineSet
304 195 m 1
 30 310 l 1
 30 365 l 1
 375 220 l 1
 375 190 l 1
 304 195 l 1
375 190 m 1
 30 45 l 1
 30 100 l 1
 304 215 l 1
 375 220 l 1
 375 190 l 1
EndSplineSet
EndChar

StartChar: underscore
Encoding: 95 95 113
Width: 450
Flags: HW
LayerCount: 2
Fore
SplineSet
-5 -80 m 1
 455 -80 l 1
 455 -130 l 1
 -5 -130 l 1
 -5 -80 l 1
EndSplineSet
EndChar

StartChar: dollar
Encoding: 36 36 114
Width: 240
Flags: HW
LayerCount: 2
Back
SplineSet
45 453 m 1
 45 531 119 600 211 600 c 1
 256 600 301 588 333 570 c 1
 344 465 l 1
 309 465 l 17
 303 487 l 2
 292 529 259 565 207 565 c 1
 154 565 115 528 115 483 c 1
 115 440 130 414 222 358 c 0
 340 286 375 240 375 170 c 1
 375 79 295 0 190 0 c 1
 140 0 96 10 59 32 c 1
 45 150 l 1
 80 150 l 25
 89 120 l 2
 104 70 135 36 200 36 c 1
 257 36 302 82 302 142 c 1
 302 189 277 217 182 275 c 0
 68 345 45 388 45 453 c 1
183 -40 m 1
 183 640 l 1
 223 640 l 1
 223 -40 l 1
 183 -40 l 1
EndSplineSet
Fore
SplineSet
62 45 m 0
 62 77 88 103 120 103 c 0
 152 103 178 77 178 45 c 0
 178 13 152 -13 120 -13 c 0
 88 -13 62 13 62 45 c 0
EndSplineSet
EndChar

StartChar: onehalf
Encoding: 189 189 115
Width: 750
Flags: HW
LayerCount: 2
Fore
SplineSet
120 -40 m 1
 575 640 l 1
 630 640 l 1
 175 -40 l 1
 120 -40 l 1
EndSplineSet
Refer: 106 178 N 1 0 0 1 400 -280 2
Refer: 107 185 N 1 0 0 1 0 0 2
EndChar

StartChar: onequarter
Encoding: 188 188 116
Width: 750
Flags: HW
LayerCount: 2
Back
SplineSet
425 100 m 1
 620 330 l 25
 645 330 l 1
 645 -20 l 1
 583 -20 l 1
 583 240 l 1
 485 125 l 1
 715 125 l 1
 715 75 l 1
 425 75 l 1
 425 100 l 1
600 215 m 3
 600 252 575 278 545 278 c 3
 515 278 492 258 477 233 c 1
 455 255 l 1
 478 297 518 330 570 330 c 3
 622 330 668 287 668 232 c 3
 668 172 627 130 530 55 c 1
 635 55 l 1
 655 55 665 62 675 102 c 1
 705 102 l 1
 690 0 l 1
 445 0 l 1
 445 28 l 1
 545 110 600 155 600 215 c 3
EndSplineSet
Fore
SplineSet
435 113 m 1
 620 335 l 25
 645 335 l 1
 645 -5 l 1
 585 -5 l 1
 585 235 l 1
 500 135 l 1
 715 135 l 1
 715 85 l 1
 435 85 l 1
 435 113 l 1
120 -40 m 1
 575 640 l 1
 630 640 l 1
 175 -40 l 1
 120 -40 l 1
EndSplineSet
Refer: 107 185 N 1 0 0 1 0 0 2
EndChar

StartChar: bar
Encoding: 124 124 117
Width: 215
Flags: HW
LayerCount: 2
Fore
SplineSet
80 -240 m 1
 80 640 l 1
 135 640 l 1
 135 -240 l 1
 80 -240 l 1
EndSplineSet
EndChar

StartChar: plusminus
Encoding: 177 177 118
Width: 400
Flags: HW
LayerCount: 2
Back
SplineSet
225 380 m 1
 225 30 l 1
 175 30 l 1
 175 380 l 1
 225 380 l 1
25 230 m 1
 375 230 l 1
 375 180 l 1
 25 180 l 1
 25 230 l 1
EndSplineSet
Fore
SplineSet
25 90 m 1
 375 90 l 1
 375 40 l 1
 25 40 l 1
 25 90 l 1
225 390 m 1
 225 140 l 1
 175 140 l 1
 175 390 l 1
 225 390 l 1
30 290 m 1
 370 290 l 1
 370 240 l 1
 30 240 l 1
 30 290 l 1
EndSplineSet
EndChar

StartChar: brokenbar
Encoding: 166 166 119
Width: 215
Flags: HW
LayerCount: 2
Back
SplineSet
80 -240 m 1
 80 640 l 1
 135 640 l 1
 135 -240 l 1
 80 -240 l 1
EndSplineSet
Fore
SplineSet
80 260 m 1
 80 640 l 1
 135 640 l 1
 135 260 l 1
 80 260 l 1
80 -240 m 1
 80 140 l 1
 135 140 l 1
 135 -240 l 1
 80 -240 l 1
EndSplineSet
EndChar

StartChar: periodcentered
Encoding: 183 183 120
Width: 240
Flags: HW
LayerCount: 2
Back
SplineSet
62 215 m 0
 62 247 88 273 120 273 c 0
 152 273 178 247 178 215 c 0
 178 183 152 157 120 157 c 0
 88 157 62 183 62 215 c 0
EndSplineSet
Fore
Refer: 12 46 N 1 0 0 1 0 170 2
EndChar

StartChar: exclamdown
Encoding: 161 161 121
Width: 230
Flags: HW
LayerCount: 2
Back
SplineSet
89 42 m 0
 89 70 112 93 140 93 c 0
 168 93 191 70 191 42 c 0
 191 14 168 -9 140 -9 c 0
 112 -9 89 14 89 42 c 0
150 620 m 17
 175 620 190 607 190 585 c 1
 190 545 172 340 157 170 c 9
 123 170 l 1
 108 340 90 545 90 585 c 1
 90 607 105 620 130 620 c 9
 150 620 l 17
EndSplineSet
Fore
Refer: 53 33 N -1 0 0 -1 230 389 2
EndChar

StartChar: cent
Encoding: 162 162 122
Width: 240
Flags: HW
LayerCount: 2
Back
SplineSet
210 -90 m 1
 210 490 l 1
 250 490 l 1
 250 -90 l 1
 210 -90 l 1
289 325 m 0
 273 344 254 355 222 355 c 3
 164 355 114 298 114 218 c 3
 114 128 181 55 255 55 c 3
 297 55 333 75 358 107 c 1
 380 90 l 1
 348 33 292 -10 220 -10 c 3
 125 -10 45 75 45 182 c 3
 45 307 140 400 245 400 c 3
 320 400 375 365 375 330 c 3
 375 308 356 289 334 289 c 3
 312 289 301 311 289 325 c 0
EndSplineSet
Fore
SplineSet
62 45 m 0
 62 77 88 103 120 103 c 0
 152 103 178 77 178 45 c 0
 178 13 152 -13 120 -13 c 0
 88 -13 62 13 62 45 c 0
EndSplineSet
EndChar

StartChar: sterling
Encoding: 163 163 123
Width: 500
Flags: HW
LayerCount: 2
Fore
SplineSet
65 385 m 1
 380 385 l 1
 380 345 l 1
 65 345 l 1
 65 385 l 1
137 265 m 2
 145 345 l 18
 161 505 255 600 355 600 c 0
 410 600 450 578 450 548 c 0
 450 525 430 505 407 505 c 0
 390 505 381 518 369 530 c 0
 357 542 342 550 320 550 c 0
 265 550 237 495 225 375 c 10
 215 275 l 2
 201 135 175 100 125 65 c 1
 365 65 l 2
 390 65 400 75 420 135 c 1
 455 135 l 1
 425 0 l 1
 40 0 l 1
 40 30 l 1
 115 80 120 95 137 265 c 2
55 275 m 1
 370 275 l 1
 370 235 l 1
 55 235 l 1
 55 275 l 1
EndSplineSet
EndChar

StartChar: yen
Encoding: 165 165 124
Width: 240
Flags: HW
LayerCount: 2
Back
SplineSet
60 380 m 1
 205 380 l 1
 205 340 l 1
 60 340 l 1
 60 380 l 1
70 255 m 1
 425 255 l 1
 425 215 l 1
 70 215 l 1
 70 255 l 1
290 380 m 1
 435 380 l 1
 435 340 l 1
 290 340 l 1
 290 380 l 1
335 600 m 1
 505 600 l 1
 505 560 l 1
 335 560 l 1
 335 600 l 1
-5 600 m 1
 200 600 l 1
 200 560 l 1
 -5 560 l 1
 -5 600 l 1
207 315 m 1
 25 590 l 1
 122 590 l 1
 265 370 l 1
 207 315 l 1
288 340 m 1
 288 10 l 1
 207 10 l 1
 207 340 l 1
 288 340 l 1
125 40 m 1
 370 40 l 1
 370 0 l 1
 125 0 l 1
 125 40 l 1
417 590 m 1
 475 590 l 1
 288 325 l 1
 207 315 l 1
 265 370 l 1
 417 590 l 1
EndSplineSet
Fore
SplineSet
62 45 m 0
 62 77 88 103 120 103 c 0
 152 103 178 77 178 45 c 0
 178 13 152 -13 120 -13 c 0
 88 -13 62 13 62 45 c 0
EndSplineSet
EndChar

StartChar: Thorn
Encoding: 222 222 125
Width: 240
Flags: HW
LayerCount: 2
Back
SplineSet
20 600 m 1
 265 600 l 1
 265 560 l 1
 20 560 l 1
 20 600 l 1
255 490 m 1
 387 490 480 415 480 315 c 3
 480 200 389 122 279 122 c 3
 259 122 230 125 215 130 c 1
 220 165 l 25
 260 165 l 17
 340 165 390 220 390 305 c 3
 390 385 335 447 240 447 c 1
 160 447 l 1
 160 490 l 1
 255 490 l 1
22 40 m 1
 270 40 l 1
 270 0 l 1
 22 0 l 1
 22 40 l 1
185 590 m 1
 185 10 l 1
 100 10 l 1
 100 590 l 1
 185 590 l 1
EndSplineSet
Fore
SplineSet
62 45 m 0
 62 77 88 103 120 103 c 0
 152 103 178 77 178 45 c 0
 178 13 152 -13 120 -13 c 0
 88 -13 62 13 62 45 c 0
EndSplineSet
EndChar

StartChar: ae
Encoding: 230 230 126
Width: 240
Flags: HW
LayerCount: 2
Back
SplineSet
257 80 m 1
 217 25 167 -10 112 -10 c 3
 65 -10 32 35 32 80 c 3
 32 133 82 162 228 210 c 1
 228 177 l 17
 132 144 109 125 109 95 c 3
 109 67 127 45 147 45 c 3
 177 45 210 63 242 105 c 1
 257 80 l 1
290 338 m 1
 318 373 361 400 412 400 c 0
 487 400 537 340 537 270 c 1
 292 197 l 1
 292 230 l 1
 419 273 l 2
 444 281 452 290 452 307 c 0
 452 334 432 359 397 359 c 0
 342 359 297 293 297 205 c 0
 297 120 350 57 420 57 c 0
 465 57 495 75 520 105 c 1
 540 85 l 1
 510 30 457 -10 392 -10 c 0
 302 -10 228 70 228 160 c 2
 228 285 l 2
 228 317 202 340 167 340 c 0
 149 340 127 336 109 328 c 1
 107 285 l 1
 36 264 l 1
 36 292 l 1
 76 347 142 400 202 400 c 0
 244 400 280 375 290 338 c 1
EndSplineSet
Fore
SplineSet
62 45 m 0
 62 77 88 103 120 103 c 0
 152 103 178 77 178 45 c 0
 178 13 152 -13 120 -13 c 0
 88 -13 62 13 62 45 c 0
EndSplineSet
EndChar

StartChar: grave
Encoding: 96 96 127
Width: 250
Flags: HW
LayerCount: 2
Back
SplineSet
125 645 m 1
 195 460 l 1
 160 460 l 1
 50 630 l 1
 125 645 l 1
EndSplineSet
Fore
Refer: 138 768 N 1 0 0 1 125 0 2
EndChar

StartChar: copyright
Encoding: 169 169 128
Width: 720
Flags: HW
LayerCount: 2
Back
SplineSet
-219 117 m 3
 -333 117 -418 199 -418 311 c 0
 -418 418 -325 503 -208 503 c 3
 -163 503 -119 493 -89 477 c 1
 -83 391 l 25
 -104 391 l 1
 -110 422 -119 438 -131 450 c 0
 -146 466 -173 477 -212 477 c 3
 -299 477 -357 415 -357 316 c 0
 -357 223 -296 143 -212 143 c 3
 -158 143 -125 168 -109 202 c 10
 -98 226 l 1
 -75 226 l 25
 -98 141 l 17
 -129 124 -180 117 -219 117 c 3
368 114 m 2
 254 114 169 196 169 308 c 2
 169 314 l 2
 169 421 262 506 379 506 c 2
 385 506 l 2
 430 506 474 496 504 480 c 1
 510 394 l 1
 510 388 l 1
 483 388 l 1
 477 419 468 435 456 447 c 0
 441.78176739 462.166114784 416.78176739 472.92861393 381 474 c 0
 295.771112884 474 238.301635777 414.498649974 236 319 c 0
 236 226 297 146 381 146 c 0
 431.456600789 147.786869632 462.601361369 172.277892909 478 205 c 2
 489 229 l 1
 518 229 l 1
 518 223 l 1
 495 138 l 1
 464 121 413 114 374 114 c 2
 368 114 l 2
EndSplineSet
Fore
SplineSet
368 105 m 3
 253 105 170 186 170 301 c 0
 170 411 260 495 380 495 c 3
 425 495 472 485 502 470 c 1
 511 378 l 25
 481 378 l 1
 476 406 468 423 456 435 c 0
 440 451 415 464 375 464 c 3
 293 464 235 396 235 306 c 0
 235 221 295 138 375 138 c 3
 427 138 462 159 478 194 c 10
 490 220 l 1
 520 220 l 25
 495 130 l 17
 463 112 408 105 368 105 c 3
93 300 m 0
 93 151 212 30 360 30 c 0
 508 30 627 151 627 300 c 0
 627 449 508 570 360 570 c 0
 212 570 93 449 93 300 c 0
50 300 m 0
 50 471 189 610 360 610 c 0
 531 610 670 471 670 300 c 0
 670 129 531 -10 360 -10 c 0
 189 -10 50 129 50 300 c 0
EndSplineSet
EndChar

StartChar: threequarters
Encoding: 190 190 130
Width: 750
Flags: HW
LayerCount: 2
Fore
SplineSet
435 113 m 1
 620 335 l 25
 645 335 l 1
 645 -5 l 1
 585 -5 l 1
 585 235 l 1
 500 135 l 1
 715 135 l 1
 715 85 l 1
 435 85 l 1
 435 113 l 1
120 -40 m 1
 575 640 l 1
 630 640 l 1
 175 -40 l 1
 120 -40 l 1
EndSplineSet
Refer: 108 179 N 1 0 0 1 0 0 2
EndChar

StartChar: dotlessi
Encoding: 305 305 131
Width: 240
Flags: HW
LayerCount: 2
Back
SplineSet
24 35 m 1
 234 35 l 1
 234 0 l 1
 24 0 l 1
 24 35 l 1
35 350 m 1
 154 404 l 1
 164 404 l 1
 164 0 l 1
 90 0 l 1
 90 300 l 1
 35 340 l 1
 35 350 l 1
EndSplineSet
Fore
SplineSet
62 45 m 0
 62 77 88 103 120 103 c 0
 152 103 178 77 178 45 c 0
 178 13 152 -13 120 -13 c 0
 88 -13 62 13 62 45 c 0
EndSplineSet
EndChar

StartChar: AE
Encoding: 198 198 132
Width: 240
Flags: HW
LayerCount: 2
Back
SplineSet
265 0 m 1
 265 40 l 1
 360 40 l 1
 425 75 l 1
 425 55 435 45 455 45 c 1
 565 45 l 1
 615 45 631 59 667 164 c 1
 703 164 l 1
 670 0 l 1
 265 0 l 1
230 600 m 1
 665 600 l 1
 668 455 l 1
 633 455 l 1
 623 545 613 556 568 556 c 1
 405 556 l 9
 360 560 l 17
 230 560 l 1
 230 600 l 1
415 265 m 1
 415 308 l 1
 532 308 l 1
 562 308 570 316 570 358 c 1
 570 375 l 1
 605 375 l 1
 605 185 l 1
 570 185 l 1
 570 215 l 1
 570 257 562 265 532 265 c 1
 415 265 l 1
425 580 m 1
 425 20 l 1
 340 20 l 1
 340 580 l 1
 425 580 l 1
185 308 m 1
 365 308 l 1
 365 265 l 1
 165 265 l 1
 185 308 l 1
140 0 m 1
 -45 0 l 1
 -45 40 l 1
 140 40 l 1
 140 0 l 1
60 10 m 1
 -2 10 l 1
 293 560 l 1
 340 570 l 1
 340 545 l 1
 60 10 l 1
EndSplineSet
Fore
SplineSet
62 45 m 0
 62 77 88 103 120 103 c 0
 152 103 178 77 178 45 c 0
 178 13 152 -13 120 -13 c 0
 88 -13 62 13 62 45 c 0
EndSplineSet
EndChar

StartChar: multiply
Encoding: 215 215 133
Width: 400
Flags: HW
LayerCount: 2
Back
SplineSet
94 346 m 1
 341 99 l 1
 306 64 l 1
 59 311 l 1
 94 346 l 1
59 99 m 1
 306 346 l 1
 341 311 l 1
 94 64 l 1
 59 99 l 1
225 380 m 1
 225 30 l 1
 175 30 l 1
 175 380 l 1
 225 380 l 1
25 230 m 1
 375 230 l 1
 375 180 l 1
 25 180 l 1
 25 230 l 1
EndSplineSet
Fore
SplineSet
85 355 m 1
 350 90 l 1
 315 55 l 1
 50 320 l 1
 85 355 l 1
50 90 m 1
 315 355 l 1
 350 320 l 1
 85 55 l 1
 50 90 l 1
EndSplineSet
EndChar

StartChar: at
Encoding: 64 64 134
Width: 790
Flags: HW
LayerCount: 2
Back
SplineSet
463 307 m 1
 458 312 450 315 440 315 c 3
 372 315 289 195 274 110 c 0
 270 85 276 70 288 70 c 3
 327 70 423 172 463 307 c 1
745 235 m 0
 720 90 578 -5 452 -5 c 0
 399 -5 366 30 409 140 c 1
 353 40 277 -5 238 -5 c 0
 209 -5 190 25 197 65 c 0
 219 195 387 385 489 385 c 0
 494 385 503 384 508 383 c 1
 517 395 l 1
 554 395 l 1
 471 135 l 2
 455 85 455 45 499 45 c 3
 590 45 668 125 686 230 c 0
 709 365 611 499 446 499 c 0
 281 499 136 360 107 190 c 0
 77 15 178 -127 348 -127 c 0
 445 -127 524 -90 588 -30 c 1
 609 -50 l 1
 543 -125 442 -175 330 -175 c 0
 141 -175 12 -25 47 180 c 0
 81 381 268 545 463 545 c 0
 655 545 772 390 745 235 c 0
-473 307 m 1
 -479 312 -488 315 -498 315 c 3
 -568 315 -633 195 -633 110 c 3
 -633 85 -624 70 -612 70 c 3
 -572 70 -490 172 -473 307 c 1
-170 235 m 0
 -170 90 -300 -5 -430 -5 c 0
 -485 -5 -525 30 -500 140 c 1
 -540 40 -610 -5 -650 -5 c 0
 -680 -5 -705 25 -705 65 c 0
 -705 195 -565 385 -460 385 c 0
 -455 385 -445 384 -440 383 c 1
 -433 395 l 1
 -395 395 l 1
 -435 135 l 2
 -443 85 -435 45 -390 45 c 3
 -296 45 -230 125 -230 230 c 0
 -230 365 -355 499 -525 499 c 0
 -695 499 -820 360 -820 190 c 0
 -820 15 -690 -127 -515 -127 c 0
 -415 -127 -340 -90 -285 -30 c 1
 -260 -50 l 1
 -315 -125 -410 -175 -525 -175 c 0
 -720 -175 -880 -25 -880 180 c 0
 -880 381 -716 545 -515 545 c 0
 -317 545 -170 390 -170 235 c 0
EndSplineSet
Fore
SplineSet
472 307 m 1
 466 312 457 315 447 315 c 3
 382 315 282 195 282 115 c 3
 282 90 291 75 303 75 c 3
 343 75 437 177 472 307 c 1
750 285 m 0
 750 140 625 -5 470 -5 c 0
 410 -5 387 35 422 140 c 1
 362 40 295 0 255 0 c 0
 225 0 205 20 205 60 c 0
 205 185 395 385 495 385 c 0
 500 385 510 384 515 383 c 1
 522 395 l 1
 555 395 l 1
 485 135 l 2
 470 80 475 45 520 45 c 3
 620 45 690 155 690 270 c 0
 690 395 590 499 440 499 c 0
 260 499 100 320 100 130 c 0
 100 -15 205 -127 350 -127 c 0
 445 -127 523 -90 588 -30 c 1
 610 -51 l 1
 540 -126 440 -175 335 -175 c 0
 165 -175 40 -60 40 115 c 0
 40 335 240 545 460 545 c 0
 630 545 750 425 750 285 c 0
EndSplineSet
EndChar

StartChar: OE
Encoding: 338 338 135
Width: 240
Flags: HW
LayerCount: 2
Back
SplineSet
485 32 m 17
 445 4 393 -7 343 -7 c 0
 170 -7 35 125 35 297 c 0
 35 466 177 607 347 607 c 0
 397 607 445 598 485 575 c 9
 485 470 l 17
 485 525 420 567 340 567 c 0
 217 567 132 467 132 315 c 0
 132 158 222 34 350 34 c 0
 425 34 485 70 485 125 c 9
 485 32 l 17
485 0 m 1
 570 75 l 1
 570 55 580 45 600 45 c 2
 735 45 l 2
 785 45 801 59 837 164 c 1
 873 164 l 1
 840 0 l 1
 485 0 l 1
570 580 m 1
 570 20 l 1
 485 0 l 1
 485 600 l 1
 570 580 l 1
560 295 m 1
 560 338 l 1
 687 338 l 1
 717 338 725 346 725 388 c 1
 725 405 l 1
 760 405 l 1
 760 215 l 1
 725 215 l 1
 725 245 l 1
 725 287 717 295 687 295 c 1
 560 295 l 1
485 600 m 1
 835 600 l 1
 838 455 l 1
 803 455 l 1
 793 545 783 556 738 556 c 2
 550 556 l 1
 485 600 l 1
EndSplineSet
Fore
SplineSet
62 45 m 0
 62 77 88 103 120 103 c 0
 152 103 178 77 178 45 c 0
 178 13 152 -13 120 -13 c 0
 88 -13 62 13 62 45 c 0
EndSplineSet
EndChar

StartChar: oe
Encoding: 339 339 136
Width: 240
Flags: HW
LayerCount: 2
Back
SplineSet
24 192 m 0
 24 305 117 400 230 400 c 0
 303 400 363 360 390 315 c 1
 420 370 480 400 535 400 c 0
 615 400 670 335 670 255 c 2
 670 237 l 1
 410 237 l 1
 410 274 l 1
 548 274 l 2
 573 274 584 285 584 305 c 0
 584 335 558 359 518 359 c 0
 457 359 420 295 420 212 c 0
 420 122 480 57 550 57 c 0
 595 57 625 75 650 105 c 1
 670 85 l 1
 640 30 585 -10 520 -10 c 0
 462 -10 413 25 383 70 c 1
 356 30 295 -10 222 -10 c 0
 110 -10 24 80 24 192 c 0
113 210 m 0
 113 105 161 28 230 28 c 0
 296 28 339 85 339 180 c 0
 339 285 291 362 222 362 c 0
 156 362 113 305 113 210 c 0
EndSplineSet
Fore
SplineSet
62 45 m 0
 62 77 88 103 120 103 c 0
 152 103 178 77 178 45 c 0
 178 13 152 -13 120 -13 c 0
 88 -13 62 13 62 45 c 0
EndSplineSet
EndChar

StartChar: germandbls
Encoding: 223 223 137
Width: 700
Flags: HW
LayerCount: 2
Fore
SplineSet
100 500 m 1
 600 500 l 1
 600 0 l 1
 100 0 l 1
 100 500 l 1
EndSplineSet
EndChar

StartChar: gravecomb
Encoding: 768 768 138
Width: 0
Flags: HW
AnchorPoint: "accent_above" 35 455 mark 0
LayerCount: 2
Fore
SplineSet
0 640 m 1
 70 455 l 1
 35 455 l 1
 -75 625 l 1
 0 640 l 1
EndSplineSet
EndChar

StartChar: acutecomb
Encoding: 769 769 139
Width: 0
Flags: HW
AnchorPoint: "accent_above" -35 455 mark 0
LayerCount: 2
Back
SplineSet
0 655 m 1
 75 640 l 1
 -35 460 l 1
 -70 460 l 1
 0 655 l 1
EndSplineSet
Fore
SplineSet
0 640 m 1
 75 625 l 1
 -35 455 l 1
 -70 455 l 1
 0 640 l 1
EndSplineSet
EndChar

StartChar: uni0302
Encoding: 770 770 140
Width: 0
Flags: HW
AnchorPoint: "accent_above" 0 455 mark 0
LayerCount: 2
Back
SplineSet
15 645 m 1
 125 460 l 1
 87 460 l 1
 0 555 l 1
 -87 460 l 1
 -125 460 l 1
 -15 645 l 1
 15 645 l 1
100 645 m 1
 175 630 l 1
 65 460 l 1
 30 460 l 1
 100 645 l 1
200 645 m 1
 270 460 l 1
 235 460 l 1
 125 630 l 1
 200 645 l 1
EndSplineSet
Fore
SplineSet
15 640 m 1
 125 455 l 1
 87 455 l 1
 0 550 l 1
 -87 455 l 1
 -125 455 l 1
 -15 640 l 1
 15 640 l 1
EndSplineSet
EndChar

StartChar: tildecomb
Encoding: 771 771 141
Width: 0
Flags: HW
AnchorPoint: "accent_above" 0 455 mark 0
LayerCount: 2
Back
SplineSet
311 540 m 0
 311 564 331 584 355 584 c 0
 379 584 399 564 399 540 c 0
 399 516 379 496 355 496 c 0
 331 496 311 516 311 540 c 0
161 540 m 0
 161 564 181 584 205 584 c 0
 229 584 249 564 249 540 c 0
 249 516 229 496 205 496 c 0
 181 496 161 516 161 540 c 0
140 548 m 17
 115 511 81 475 56 475 c 3
 36 475 16 485 -14 495 c 0
 -29 500 -49 507 -64 507 c 3
 -82 507 -98 490 -115 470 c 9
 -140 492 l 17
 -115 529 -81 565 -56 565 c 3
 -36 565 -16 555 14 545 c 0
 29 540 49 533 64 533 c 3
 82 533 98 550 115 570 c 9
 140 548 l 17
-170 540 m 17
 -195 505 -227 473 -252 473 c 3
 -272 473 -292 485 -322 495 c 0
 -337 500 -357 509 -372 509 c 3
 -392 509 -410 495 -425 475 c 9
 -450 500 l 17
 -425 535 -393 567 -368 567 c 3
 -348 567 -328 555 -298 545 c 0
 -283 540 -263 531 -248 531 c 3
 -228 531 -210 545 -195 565 c 9
 -170 540 l 17
EndSplineSet
Fore
SplineSet
140 563 m 17
 113 525 81 485 56 485 c 3
 36 485 15 495 -15 505 c 0
 -30 510 -49 517 -64 517 c 3
 -81 517 -98 500 -115 480 c 9
 -140 502 l 17
 -113 540 -81 580 -56 580 c 3
 -36 580 -15 570 15 560 c 0
 30 555 49 548 64 548 c 3
 81 548 98 565 115 585 c 9
 140 563 l 17
EndSplineSet
EndChar

StartChar: uni0304
Encoding: 772 772 142
Width: 0
Flags: HW
AnchorPoint: "accent_above" 0 455 mark 0
LayerCount: 2
Fore
SplineSet
-120 552 m 1
 120 552 l 1
 120 500 l 1
 -120 500 l 1
 -120 552 l 1
EndSplineSet
EndChar

StartChar: uni0306
Encoding: 774 774 143
Width: 700
Flags: HW
LayerCount: 2
Fore
SplineSet
100 500 m 1
 600 500 l 1
 600 0 l 1
 100 0 l 1
 100 500 l 1
EndSplineSet
EndChar

StartChar: uni0307
Encoding: 775 775 144
Width: 0
Flags: HW
AnchorPoint: "accent_above" 0 455 mark 0
LayerCount: 2
Back
SplineSet
31 540 m 0
 31 564 51 584 75 584 c 0
 99 584 119 564 119 540 c 0
 119 516 99 496 75 496 c 0
 51 496 31 516 31 540 c 0
-119 540 m 0
 -119 564 -99 584 -75 584 c 0
 -51 584 -31 564 -31 540 c 0
 -31 516 -51 496 -75 496 c 0
 -99 496 -119 516 -119 540 c 0
EndSplineSet
Fore
SplineSet
-45 540 m 0
 -45 565 -25 585 0 585 c 0
 25 585 45 565 45 540 c 0
 45 515 25 495 0 495 c 0
 -25 495 -45 515 -45 540 c 0
EndSplineSet
EndChar

StartChar: uni0308
Encoding: 776 776 145
Width: 0
Flags: HW
AnchorPoint: "accent_above" 0 455 mark 0
LayerCount: 2
Back
SplineSet
30 535 m 0
 30 560 50 580 75 580 c 0
 100 580 120 560 120 535 c 0
 120 510 100 490 75 490 c 0
 50 490 30 510 30 535 c 0
-120 535 m 0
 -120 560 -100 580 -75 580 c 0
 -50 580 -30 560 -30 535 c 0
 -30 510 -50 490 -75 490 c 0
 -100 490 -120 510 -120 535 c 0
EndSplineSet
Fore
SplineSet
31 540 m 0
 31 564 51 584 75 584 c 0
 99 584 119 564 119 540 c 0
 119 516 99 496 75 496 c 0
 51 496 31 516 31 540 c 0
-119 540 m 0
 -119 564 -99 584 -75 584 c 0
 -51 584 -31 564 -31 540 c 0
 -31 516 -51 496 -75 496 c 0
 -99 496 -119 516 -119 540 c 0
EndSplineSet
EndChar

StartChar: uni030A
Encoding: 778 778 146
Width: 0
Flags: HW
AnchorPoint: "accent_above" 0 455 mark 0
LayerCount: 2
Back
SplineSet
-92 551 m 0
 -92 601 -50 643 2 643 c 0
 53 643 92 603 92 553 c 0
 92 503 50 461 -2 461 c 0
 -53 461 -92 501 -92 551 c 0
-44 558 m 0
 -44 518 -23 492 2 492 c 0
 27 492 44 513 44 546 c 0
 44 586 23 612 -2 612 c 0
 -27 612 -44 591 -44 558 c 0
-530 555 m 0
 -530 511 -509 479 -480 479 c 0
 -452 479 -434 503 -434 543 c 0
 -434 587 -455 619 -484 619 c 0
 -512 619 -530 595 -530 555 c 0
-568 548 m 0
 -568 595 -527 635 -480 635 c 0
 -433 635 -396 597 -396 550 c 0
 -396 503 -437 463 -484 463 c 0
 -531 463 -568 501 -568 548 c 0
-313 548 m 0
 -313 597.876953125 -269.74609375 640 -220 640 c 0
 -170.1875 640 -131 599.67578125 -131 550 c 0
 -131 500.123046875 -174.25390625 458 -224 458 c 0
 -273.8125 458 -313 498.32421875 -313 548 c 0
-265 555 m 0
 -265 511.919921875 -244.631835938 484 -220 484 c 0
 -195.805664062 484 -179 504.240234375 -179 543 c 0
 -179 586.080078125 -199.368164062 614 -224 614 c 0
 -248.194335938 614 -265 593.759765625 -265 555 c 0
EndSplineSet
Fore
SplineSet
-92 545 m 0
 -92 595 -50 637 2 637 c 0
 53 637 92 597 92 547 c 0
 92 497 50 455 -2 455 c 0
 -53 455 -92 495 -92 545 c 0
-44 552 m 0
 -44 512 -23 486 2 486 c 0
 27 486 44 507 44 540 c 0
 44 580 23 606 -2 606 c 0
 -27 606 -44 585 -44 552 c 0
EndSplineSet
EndChar

StartChar: uni030B
Encoding: 779 779 147
Width: 700
Flags: HW
LayerCount: 2
Fore
SplineSet
100 500 m 1
 600 500 l 1
 600 0 l 1
 100 0 l 1
 100 500 l 1
EndSplineSet
EndChar

StartChar: uni030C
Encoding: 780 780 148
Width: 0
Flags: HW
AnchorPoint: "accent_above" 0 455 mark 0
LayerCount: 2
Back
SplineSet
15 640 m 1
 125 455 l 1
 87 455 l 1
 0 550 l 1
 -87 455 l 1
 -125 455 l 1
 -15 640 l 1
 15 640 l 1
EndSplineSet
Fore
SplineSet
-15 455 m 1
 -125 640 l 1
 -87 640 l 1
 0 545 l 1
 87 640 l 1
 125 640 l 1
 15 455 l 1
 -15 455 l 1
EndSplineSet
EndChar

StartChar: uni0327
Encoding: 807 807 149
Width: 0
Flags: HW
AnchorPoint: "accent_below" 0 25 mark 0
LayerCount: 2
Back
SplineSet
0 30 m 1
 40 30 l 25
 7 -36 l 1
 52 -48 90 -80 90 -125 c 3
 90 -190 15 -232 -80 -230 c 1
 -80 -195 l 1
 -15 -195 23 -167 23 -137 c 3
 23 -105 -13 -89 -55 -84 c 9
 -55 -80 l 1
 0 30 l 1
EndSplineSet
Fore
SplineSet
0 25 m 1
 40 25 l 25
 7 -41 l 1
 52 -53 90 -80 90 -125 c 3
 90 -190 15 -232 -80 -230 c 1
 -80 -195 l 1
 -15 -195 23 -170 23 -140 c 3
 23 -110 -15 -94 -55 -89 c 9
 -55 -85 l 1
 0 25 l 1
EndSplineSet
EndChar

StartChar: uni0328
Encoding: 808 808 150
Width: 700
Flags: HW
LayerCount: 2
Fore
SplineSet
100 500 m 1
 600 500 l 1
 600 0 l 1
 100 0 l 1
 100 500 l 1
EndSplineSet
EndChar

StartChar: trademark
Encoding: 8482 8482 151
Width: 515
Flags: HW
LayerCount: 2
Back
SplineSet
260 420 m 1
 260 415 l 1
 275 415 l 1
 275 420 l 1
 260 420 l 1
260 445 m 1
 260 440 l 1
 275 440 l 1
 275 445 l 1
 260 445 l 1
265 405 m 1
 265 380 l 1
 270 380 l 1
 270 405 l 1
 265 405 l 1
260 410 m 1
 260 405 l 1
 275 405 l 1
 275 410 l 1
 260 410 l 1
265 440 m 1
 265 420 l 1
 270 420 l 1
 270 440 l 1
 265 440 l 1
265 465 m 1
 265 460 l 1
 275 460 l 1
 275 465 l 1
 265 465 l 1
265 480 m 1
 265 475 l 1
 280 475 l 1
 280 480 l 1
 265 480 l 1
260 480 m 1
 260 450 l 1
 265 450 l 1
 265 480 l 1
 260 480 l 1
260 510 m 1
 260 490 l 1
 265 490 l 1
 265 510 l 1
 260 510 l 1
275 510 m 1
 275 490 l 1
 280 490 l 1
 280 510 l 1
 275 510 l 1
265 490 m 1
 265 485 l 1
 275 485 l 1
 275 490 l 1
 265 490 l 1
265 515 m 1
 265 510 l 1
 275 510 l 1
 275 515 l 1
 265 515 l 1
275 530 m 1
 275 520 l 1
 280 520 l 1
 280 530 l 1
 275 530 l 1
265 535 m 1
 265 530 l 1
 275 530 l 1
 275 535 l 1
 265 535 l 1
275 545 m 1
 275 535 l 1
 280 535 l 1
 280 545 l 1
 275 545 l 1
265 550 m 1
 265 545 l 1
 275 545 l 1
 275 550 l 1
 265 550 l 1
260 550 m 1
 260 520 l 1
 265 520 l 1
 265 550 l 1
 260 550 l 1
265 570 m 1
 265 565 l 1
 275 565 l 1
 275 570 l 1
 265 570 l 1
275 580 m 1
 275 570 l 1
 280 570 l 1
 280 580 l 1
 275 580 l 1
265 585 m 1
 265 580 l 1
 275 580 l 1
 275 585 l 1
 265 585 l 1
260 585 m 1
 260 555 l 1
 265 555 l 1
 265 585 l 1
 260 585 l 1
445 600 m 1
 495 600 l 1
 495 370 l 1
 445 370 l 1
 445 600 l 1
245 600 m 1
 295 600 l 1
 295 370 l 1
 245 370 l 1
 245 600 l 1
-50 445 m 1
 -50 440 l 1
 -35 440 l 1
 -35 445 l 1
 -50 445 l 1
-50 425 m 1
 -50 420 l 1
 -35 420 l 1
 -35 425 l 1
 -50 425 l 1
-45 440 m 1
 -45 425 l 1
 -40 425 l 1
 -40 440 l 1
 -45 440 l 1
-50 465 m 1
 -50 460 l 1
 -35 460 l 1
 -35 465 l 1
 -50 465 l 1
-50 475 m 1
 -50 470 l 1
 -30 470 l 1
 -30 475 l 1
 -50 475 l 1
-55 475 m 1
 -55 450 l 1
 -50 450 l 1
 -50 475 l 1
 -55 475 l 1
-55 500 m 1
 -55 485 l 1
 -50 485 l 1
 -50 500 l 1
 -55 500 l 1
-35 500 m 1
 -35 485 l 1
 -30 485 l 1
 -30 500 l 1
 -35 500 l 1
-50 485 m 1
 -50 480 l 1
 -35 480 l 1
 -35 485 l 1
 -50 485 l 1
-50 505 m 1
 -50 500 l 1
 -35 500 l 1
 -35 505 l 1
 -50 505 l 1
-35 515 m 1
 -35 510 l 1
 -30 510 l 1
 -30 515 l 1
 -35 515 l 1
-50 520 m 1
 -50 515 l 1
 -35 515 l 1
 -35 520 l 1
 -50 520 l 1
-35 530 m 1
 -35 520 l 1
 -30 520 l 1
 -30 530 l 1
 -35 530 l 1
-50 535 m 1
 -50 530 l 1
 -35 530 l 1
 -35 535 l 1
 -50 535 l 1
-55 535 m 1
 -55 510 l 1
 -50 510 l 1
 -50 535 l 1
 -55 535 l 1
-50 550 m 1
 -50 545 l 1
 -35 545 l 1
 -35 550 l 1
 -50 550 l 1
-35 560 m 1
 -35 550 l 1
 -30 550 l 1
 -30 560 l 1
 -35 560 l 1
-50 565 m 1
 -50 560 l 1
 -35 560 l 1
 -35 565 l 1
 -50 565 l 1
-55 565 m 1
 -55 540 l 1
 -50 540 l 1
 -50 565 l 1
 -55 565 l 1
-45 410 m 1
 -45 390 l 1
 -40 390 l 1
 -40 410 l 1
 -45 410 l 1
-55 415 m 1
 -55 410 l 1
 -30 410 l 1
 -30 415 l 1
 -55 415 l 1
80 700 m 1
 80 680 l 1
 85 680 l 1
 85 700 l 1
 80 700 l 1
95 700 m 1
 95 680 l 1
 100 680 l 1
 100 700 l 1
 95 700 l 1
85 680 m 1
 85 675 l 1
 95 675 l 1
 95 680 l 1
 85 680 l 1
85 705 m 1
 85 700 l 1
 95 700 l 1
 95 705 l 1
 85 705 l 1
70 685 m 1
 70 675 l 1
 75 675 l 1
 75 685 l 1
 70 685 l 1
-15 700 m 1
 -15 680 l 1
 -10 680 l 1
 -10 700 l 1
 -15 700 l 1
0 700 m 1
 0 680 l 1
 5 680 l 1
 5 700 l 1
 0 700 l 1
-10 680 m 1
 -10 675 l 1
 0 675 l 1
 0 680 l 1
 -10 680 l 1
-10 705 m 1
 -10 700 l 1
 0 700 l 1
 0 705 l 1
 -10 705 l 1
105 705 m 1
 105 675 l 1
 110 675 l 1
 110 705 l 1
 105 705 l 1
110 680 m 1
 110 675 l 1
 120 675 l 1
 120 680 l 1
 110 680 l 1
60 690 m 1
 60 685 l 1
 70 685 l 1
 70 690 l 1
 60 690 l 1
70 700 m 1
 70 690 l 1
 75 690 l 1
 75 700 l 1
 70 700 l 1
60 705 m 1
 60 700 l 1
 70 700 l 1
 70 705 l 1
 60 705 l 1
55 705 m 1
 55 675 l 1
 60 675 l 1
 60 705 l 1
 55 705 l 1
40 700 m 1
 40 675 l 1
 45 675 l 1
 45 700 l 1
 40 700 l 1
35 705 m 1
 35 700 l 1
 50 700 l 1
 50 705 l 1
 35 705 l 1
20 690 m 1
 20 680 l 1
 25 680 l 1
 25 690 l 1
 20 690 l 1
15 700 m 1
 15 690 l 1
 20 690 l 1
 20 700 l 1
 15 700 l 1
10 705 m 1
 10 675 l 1
 15 675 l 1
 15 705 l 1
 10 705 l 1
25 705 m 1
 25 675 l 1
 30 675 l 1
 30 705 l 1
 25 705 l 1
-40 700 m 1
 -40 680 l 1
 -35 680 l 1
 -35 700 l 1
 -40 700 l 1
-25 685 m 1
 -25 680 l 1
 -20 680 l 1
 -20 685 l 1
 -25 685 l 1
-25 700 m 1
 -25 695 l 1
 -20 695 l 1
 -20 700 l 1
 -25 700 l 1
-35 680 m 1
 -35 675 l 1
 -25 675 l 1
 -25 680 l 1
 -35 680 l 1
-35 705 m 1
 -35 700 l 1
 -25 700 l 1
 -25 705 l 1
 -35 705 l 1
-125 385 m 1
 -125 360 l 1
 -120 360 l 1
 -120 385 l 1
 -125 385 l 1
-120 365 m 1
 -120 360 l 1
 -100 360 l 1
 -100 365 l 1
 -120 365 l 1
-125 410 m 1
 -125 395 l 1
 -120 395 l 1
 -120 410 l 1
 -125 410 l 1
-105 410 m 1
 -105 395 l 1
 -100 395 l 1
 -100 410 l 1
 -105 410 l 1
-120 395 m 1
 -120 390 l 1
 -105 390 l 1
 -105 395 l 1
 -120 395 l 1
-120 415 m 1
 -120 410 l 1
 -105 410 l 1
 -105 415 l 1
 -120 415 l 1
-105 430 m 1
 -105 420 l 1
 -100 420 l 1
 -100 430 l 1
 -105 430 l 1
-120 435 m 1
 -120 430 l 1
 -105 430 l 1
 -105 435 l 1
 -120 435 l 1
-105 440 m 1
 -105 435 l 1
 -100 435 l 1
 -100 440 l 1
 -105 440 l 1
-120 445 m 1
 -120 440 l 1
 -105 440 l 1
 -105 445 l 1
 -120 445 l 1
-125 445 m 1
 -125 420 l 1
 -120 420 l 1
 -120 445 l 1
 -125 445 l 1
-115 470 m 1
 -115 450 l 1
 -110 450 l 1
 -110 470 l 1
 -115 470 l 1
-125 475 m 1
 -125 470 l 1
 -100 470 l 1
 -100 475 l 1
 -125 475 l 1
-115 495 m 1
 -115 490 l 1
 -110 490 l 1
 -110 495 l 1
 -115 495 l 1
-110 490 m 1
 -110 485 l 1
 -105 485 l 1
 -105 490 l 1
 -110 490 l 1
-120 500 m 1
 -120 495 l 1
 -115 495 l 1
 -115 500 l 1
 -120 500 l 1
-125 505 m 1
 -125 480 l 1
 -120 480 l 1
 -120 505 l 1
 -125 505 l 1
-105 505 m 1
 -105 480 l 1
 -100 480 l 1
 -100 505 l 1
 -105 505 l 1
-125 530 m 1
 -125 515 l 1
 -120 515 l 1
 -120 530 l 1
 -125 530 l 1
-105 530 m 1
 -105 515 l 1
 -100 515 l 1
 -100 530 l 1
 -105 530 l 1
-120 515 m 1
 -120 510 l 1
 -105 510 l 1
 -105 515 l 1
 -120 515 l 1
-120 535 m 1
 -120 530 l 1
 -105 530 l 1
 -105 535 l 1
 -120 535 l 1
-125 560 m 1
 -125 545 l 1
 -120 545 l 1
 -120 560 l 1
 -125 560 l 1
-105 550 m 1
 -105 545 l 1
 -100 545 l 1
 -100 550 l 1
 -105 550 l 1
-105 560 m 1
 -105 555 l 1
 -100 555 l 1
 -100 560 l 1
 -105 560 l 1
-120 545 m 1
 -120 540 l 1
 -105 540 l 1
 -105 545 l 1
 -120 545 l 1
-120 565 m 1
 -120 560 l 1
 -105 560 l 1
 -105 565 l 1
 -120 565 l 1
135 650 m 1
 135 625 l 1
 140 625 l 1
 140 650 l 1
 135 650 l 1
130 655 m 1
 130 650 l 1
 145 650 l 1
 145 655 l 1
 130 655 l 1
120 655 m 1
 120 625 l 1
 125 625 l 1
 125 655 l 1
 120 655 l 1
105 640 m 1
 105 635 l 1
 115 635 l 1
 115 640 l 1
 105 640 l 1
105 655 m 1
 105 650 l 1
 115 650 l 1
 115 655 l 1
 105 655 l 1
100 655 m 1
 100 625 l 1
 105 625 l 1
 105 655 l 1
 100 655 l 1
75 650 m 1
 75 630 l 1
 80 630 l 1
 80 650 l 1
 75 650 l 1
90 650 m 1
 90 630 l 1
 95 630 l 1
 95 650 l 1
 90 650 l 1
80 630 m 1
 80 625 l 1
 90 625 l 1
 90 630 l 1
 80 630 l 1
80 655 m 1
 80 650 l 1
 90 650 l 1
 90 655 l 1
 80 655 l 1
65 635 m 1
 65 625 l 1
 70 625 l 1
 70 635 l 1
 65 635 l 1
55 640 m 1
 55 635 l 1
 65 635 l 1
 65 640 l 1
 55 640 l 1
65 650 m 1
 65 640 l 1
 70 640 l 1
 70 650 l 1
 65 650 l 1
55 655 m 1
 55 650 l 1
 65 650 l 1
 65 655 l 1
 55 655 l 1
50 655 m 1
 50 625 l 1
 55 625 l 1
 55 655 l 1
 50 655 l 1
30 640 m 1
 30 635 l 1
 40 635 l 1
 40 640 l 1
 30 640 l 1
40 650 m 1
 40 640 l 1
 45 640 l 1
 45 650 l 1
 40 650 l 1
30 655 m 1
 30 650 l 1
 40 650 l 1
 40 655 l 1
 30 655 l 1
25 655 m 1
 25 625 l 1
 30 625 l 1
 30 655 l 1
 25 655 l 1
436 386 m 1
 534 386 l 1
 534 370 l 1
 436 370 l 1
 436 386 l 1
492 606 m 1
 502 378 l 1
 468 378 l 1
 458 610 l 1
 492 606 l 1
232 386 m 1
 314 386 l 1
 314 370 l 1
 232 370 l 1
 232 386 l 1
293 584 m 1
 281 378 l 1
 262 378 l 1
 274 584 l 1
 293 584 l 1
366 367 m 1
 286 568 l 1
 274 584 l 1
 270 590 263 594 251 594 c 1
 238 594 l 1
 238 610 l 1
 308 610 l 1
 390 400 l 1
 366 367 l 1
458 610 m 1
 526 610 l 1
 526 594 l 1
 474 594 l 1
 380 367 l 1
 366 367 l 1
 376 402 l 1
 458 610 l 1
51 592 m 1
 38 592 32 586 27 552 c 1
 12 552 l 1
 16 620 l 1
 30 620 l 1
 30 612 34 610 42 610 c 1
 190 610 l 1
 200 610 206 612 206 620 c 1
 220 620 l 1
 222 552 l 1
 207 552 l 1
 204 588 198 592 184 592 c 1
 51 592 l 1
66 386 m 1
 168 386 l 1
 168 370 l 1
 66 370 l 1
 66 386 l 1
134 602 m 1
 134 378 l 1
 100 378 l 1
 100 602 l 1
 134 602 l 1
EndSplineSet
Fore
SplineSet
254 426 m 1
 254 424 l 1
 260 424 l 1
 260 426 l 1
 254 426 l 1
254 436 m 1
 254 434 l 1
 260 434 l 1
 260 436 l 1
 254 436 l 1
256 399 m 1
 256 389 l 1
 258 389 l 1
 258 399 l 1
 256 399 l 1
254 401 m 1
 254 399 l 1
 260 399 l 1
 260 401 l 1
 254 401 l 1
256 434 m 1
 256 426 l 1
 258 426 l 1
 258 434 l 1
 256 434 l 1
258 465 m 1
 258 463 l 1
 262 463 l 1
 262 465 l 1
 258 465 l 1
258 471 m 1
 258 469 l 1
 264 469 l 1
 264 471 l 1
 258 471 l 1
256 471 m 1
 256 459 l 1
 258 459 l 1
 258 471 l 1
 256 471 l 1
256 504 m 1
 256 496 l 1
 258 496 l 1
 258 504 l 1
 256 504 l 1
262 504 m 1
 262 496 l 1
 264 496 l 1
 264 504 l 1
 262 504 l 1
258 496 m 1
 258 494 l 1
 262 494 l 1
 262 496 l 1
 258 496 l 1
258 506 m 1
 258 504 l 1
 262 504 l 1
 262 506 l 1
 258 506 l 1
262 533 m 1
 262 529 l 1
 264 529 l 1
 264 533 l 1
 262 533 l 1
258 535 m 1
 258 533 l 1
 262 533 l 1
 262 535 l 1
 258 535 l 1
262 539 m 1
 262 535 l 1
 264 535 l 1
 264 539 l 1
 262 539 l 1
258 541 m 1
 258 539 l 1
 262 539 l 1
 262 541 l 1
 258 541 l 1
256 541 m 1
 256 529 l 1
 258 529 l 1
 258 541 l 1
 256 541 l 1
258 570 m 1
 258 568 l 1
 262 568 l 1
 262 570 l 1
 258 570 l 1
262 574 m 1
 262 570 l 1
 264 570 l 1
 264 574 l 1
 262 574 l 1
258 576 m 1
 258 574 l 1
 262 574 l 1
 262 576 l 1
 258 576 l 1
256 576 m 1
 256 564 l 1
 258 564 l 1
 258 576 l 1
 256 576 l 1
235 600 m 1
 312 600 l 1
 366 460 l 1
 410 600 l 1
 485 600 l 1
 485 370 l 1
 435 370 l 1
 435 540 l 1
 380 370 l 1
 350 370 l 1
 285 540 l 1
 285 370 l 1
 235 370 l 1
 235 600 l 1
161 584 m 1
 161 576 l 1
 163 576 l 1
 163 584 l 1
 161 584 l 1
167 584 m 1
 167 576 l 1
 169 576 l 1
 169 584 l 1
 167 584 l 1
163 576 m 1
 163 574 l 1
 167 574 l 1
 167 576 l 1
 163 576 l 1
163 586 m 1
 163 584 l 1
 167 584 l 1
 167 586 l 1
 163 586 l 1
142 578 m 1
 142 574 l 1
 144 574 l 1
 144 578 l 1
 142 578 l 1
66 584 m 1
 66 576 l 1
 68 576 l 1
 68 584 l 1
 66 584 l 1
72 584 m 1
 72 576 l 1
 74 576 l 1
 74 584 l 1
 72 584 l 1
68 576 m 1
 68 574 l 1
 72 574 l 1
 72 576 l 1
 68 576 l 1
68 586 m 1
 68 584 l 1
 72 584 l 1
 72 586 l 1
 68 586 l 1
185 586 m 1
 185 574 l 1
 187 574 l 1
 187 586 l 1
 185 586 l 1
187 576 m 1
 187 574 l 1
 191 574 l 1
 191 576 l 1
 187 576 l 1
138 580 m 1
 138 578 l 1
 142 578 l 1
 142 580 l 1
 138 580 l 1
142 584 m 1
 142 580 l 1
 144 580 l 1
 144 584 l 1
 142 584 l 1
138 586 m 1
 138 584 l 1
 142 584 l 1
 142 586 l 1
 138 586 l 1
136 586 m 1
 136 574 l 1
 138 574 l 1
 138 586 l 1
 136 586 l 1
117 584 m 1
 117 574 l 1
 119 574 l 1
 119 584 l 1
 117 584 l 1
115 586 m 1
 115 584 l 1
 121 584 l 1
 121 586 l 1
 115 586 l 1
95 580 m 1
 95 576 l 1
 97 576 l 1
 97 580 l 1
 95 580 l 1
93 584 m 1
 93 580 l 1
 95 580 l 1
 95 584 l 1
 93 584 l 1
91 586 m 1
 91 574 l 1
 93 574 l 1
 93 586 l 1
 91 586 l 1
97 586 m 1
 97 574 l 1
 99 574 l 1
 99 586 l 1
 97 586 l 1
41 584 m 1
 41 576 l 1
 43 576 l 1
 43 584 l 1
 41 584 l 1
47 578 m 1
 47 576 l 1
 49 576 l 1
 49 578 l 1
 47 578 l 1
47 584 m 1
 47 582 l 1
 49 582 l 1
 49 584 l 1
 47 584 l 1
43 576 m 1
 43 574 l 1
 47 574 l 1
 47 576 l 1
 43 576 l 1
43 586 m 1
 43 584 l 1
 47 584 l 1
 47 586 l 1
 43 586 l 1
109 432 m 1
 109 430 l 1
 115 430 l 1
 115 432 l 1
 109 432 l 1
109 424 m 1
 109 422 l 1
 115 422 l 1
 115 424 l 1
 109 424 l 1
111 430 m 1
 111 424 l 1
 113 424 l 1
 113 430 l 1
 111 430 l 1
109 458 m 1
 109 456 l 1
 115 456 l 1
 115 458 l 1
 109 458 l 1
109 462 m 1
 109 460 l 1
 117 460 l 1
 117 462 l 1
 109 462 l 1
107 462 m 1
 107 452 l 1
 109 452 l 1
 109 462 l 1
 107 462 l 1
107 490 m 1
 107 484 l 1
 109 484 l 1
 109 490 l 1
 107 490 l 1
115 490 m 1
 115 484 l 1
 117 484 l 1
 117 490 l 1
 115 490 l 1
109 484 m 1
 109 482 l 1
 115 482 l 1
 115 484 l 1
 109 484 l 1
109 492 m 1
 109 490 l 1
 115 490 l 1
 115 492 l 1
 109 492 l 1
115 514 m 1
 115 512 l 1
 117 512 l 1
 117 514 l 1
 115 514 l 1
109 516 m 1
 109 514 l 1
 115 514 l 1
 115 516 l 1
 109 516 l 1
115 520 m 1
 115 516 l 1
 117 516 l 1
 117 520 l 1
 115 520 l 1
109 522 m 1
 109 520 l 1
 115 520 l 1
 115 522 l 1
 109 522 l 1
107 522 m 1
 107 512 l 1
 109 512 l 1
 109 522 l 1
 107 522 l 1
109 546 m 1
 109 544 l 1
 115 544 l 1
 115 546 l 1
 109 546 l 1
115 550 m 1
 115 546 l 1
 117 546 l 1
 117 550 l 1
 115 550 l 1
109 552 m 1
 109 550 l 1
 115 550 l 1
 115 552 l 1
 109 552 l 1
107 552 m 1
 107 542 l 1
 109 542 l 1
 109 552 l 1
 107 552 l 1
111 400 m 1
 111 392 l 1
 113 392 l 1
 113 400 l 1
 111 400 l 1
107 402 m 1
 107 400 l 1
 117 400 l 1
 117 402 l 1
 107 402 l 1
458 398 m 1
 458 388 l 1
 460 388 l 1
 460 398 l 1
 458 398 l 1
460 390 m 1
 460 388 l 1
 468 388 l 1
 468 390 l 1
 460 390 l 1
458 426 m 1
 458 420 l 1
 460 420 l 1
 460 426 l 1
 458 426 l 1
466 426 m 1
 466 420 l 1
 468 420 l 1
 468 426 l 1
 466 426 l 1
460 420 m 1
 460 418 l 1
 466 418 l 1
 466 420 l 1
 460 420 l 1
460 428 m 1
 460 426 l 1
 466 426 l 1
 466 428 l 1
 460 428 l 1
466 452 m 1
 466 448 l 1
 468 448 l 1
 468 452 l 1
 466 452 l 1
460 454 m 1
 460 452 l 1
 466 452 l 1
 466 454 l 1
 460 454 l 1
466 456 m 1
 466 454 l 1
 468 454 l 1
 468 456 l 1
 466 456 l 1
460 458 m 1
 460 456 l 1
 466 456 l 1
 466 458 l 1
 460 458 l 1
458 458 m 1
 458 448 l 1
 460 448 l 1
 460 458 l 1
 458 458 l 1
462 486 m 1
 462 478 l 1
 464 478 l 1
 464 486 l 1
 462 486 l 1
458 488 m 1
 458 486 l 1
 468 486 l 1
 468 488 l 1
 458 488 l 1
462 514 m 1
 462 512 l 1
 464 512 l 1
 464 514 l 1
 462 514 l 1
464 512 m 1
 464 510 l 1
 466 510 l 1
 466 512 l 1
 464 512 l 1
460 516 m 1
 460 514 l 1
 462 514 l 1
 462 516 l 1
 460 516 l 1
458 518 m 1
 458 508 l 1
 460 508 l 1
 460 518 l 1
 458 518 l 1
466 518 m 1
 466 508 l 1
 468 508 l 1
 468 518 l 1
 466 518 l 1
458 546 m 1
 458 540 l 1
 460 540 l 1
 460 546 l 1
 458 546 l 1
466 546 m 1
 466 540 l 1
 468 540 l 1
 468 546 l 1
 466 546 l 1
460 540 m 1
 460 538 l 1
 466 538 l 1
 466 540 l 1
 460 540 l 1
460 548 m 1
 460 546 l 1
 466 546 l 1
 466 548 l 1
 460 548 l 1
458 576 m 1
 458 570 l 1
 460 570 l 1
 460 576 l 1
 458 576 l 1
466 572 m 1
 466 570 l 1
 468 570 l 1
 468 572 l 1
 466 572 l 1
466 576 m 1
 466 574 l 1
 468 574 l 1
 468 576 l 1
 466 576 l 1
460 570 m 1
 460 568 l 1
 466 568 l 1
 466 570 l 1
 460 570 l 1
460 578 m 1
 460 576 l 1
 466 576 l 1
 466 578 l 1
 460 578 l 1
90 562 m 1
 140 562 l 1
 140 370 l 1
 90 370 l 1
 90 562 l 1
15 600 m 1
 215 600 l 1
 215 560 l 1
 15 560 l 1
 15 600 l 1
EndSplineSet
EndChar

StartChar: quotedblbase
Encoding: 8222 8222 152
Width: 240
Flags: HW
LayerCount: 2
Back
Refer: 68 8221 N 1 0 0 1 0 -525 2
Fore
SplineSet
62 45 m 0
 62 77 88 103 120 103 c 0
 152 103 178 77 178 45 c 0
 178 13 152 -13 120 -13 c 0
 88 -13 62 13 62 45 c 0
EndSplineSet
EndChar

StartChar: degree
Encoding: 176 176 155
Width: 280
Flags: HW
LayerCount: 2
Back
SplineSet
65 495 m 0
 65 454 99 420 140 420 c 0
 181 420 215 454 215 495 c 0
 215 536 181 570 140 570 c 0
 99 570 65 536 65 495 c 0
25 495 m 0
 25 558 77 610 140 610 c 0
 203 610 255 558 255 495 c 0
 255 432 203 380 140 380 c 0
 77 380 25 432 25 495 c 0
-200 500 m 0
 -200 461 -169 430 -130 430 c 0
 -91 430 -60 461 -60 500 c 0
 -60 539 -91 570 -130 570 c 0
 -169 570 -200 539 -200 500 c 0
-240 500 m 0
 -240 561 -191 610 -130 610 c 0
 -69 610 -20 561 -20 500 c 0
 -20 439 -69 390 -130 390 c 0
 -191 390 -240 439 -240 500 c 0
EndSplineSet
Fore
SplineSet
65 495 m 0
 65 453 99 419 140 419 c 0
 181 419 215 453 215 495 c 0
 215 537 181 571 140 571 c 0
 99 571 65 537 65 495 c 0
25 495 m 0
 25 558 77 610 140 610 c 0
 203 610 255 558 255 495 c 0
 255 432 203 380 140 380 c 0
 77 380 25 432 25 495 c 0
EndSplineSet
EndChar

StartChar: cedilla
Encoding: 184 184 156
Width: 250
Flags: HW
LayerCount: 2
Back
SplineSet
402 30 m 1
 445 30 l 25
 414 -32 l 1
 462 -47 495 -80 495 -125 c 3
 495 -195 415 -242 320 -240 c 1
 320 -205 l 1
 384 -205 425 -177 425 -142 c 3
 425 -107 389 -90 347 -85 c 9
 347 -80 l 1
 402 30 l 1
-185 30 m 1
 -145 30 l 25
 -177 -34 l 1
 -129 -49 -95 -83 -95 -125 c 3
 -95 -190 -160 -237 -255 -235 c 1
 -260 -200 l 1
 -195 -200 -160 -174 -160 -142 c 3
 -160 -107 -200 -90 -240 -85 c 9
 -240 -80 l 1
 -185 30 l 1
-420 25 m 1
 -380 25 l 25
 -410 -40 l 1
 -360 -55 -325 -85 -325 -130 c 3
 -325 -190 -390 -235 -485 -235 c 1
 -490 -200 l 1
 -425 -199 -390 -175 -390 -140 c 3
 -390 -110 -425 -90 -470 -85 c 9
 -470 -80 l 1
 -420 25 l 1
-670 25 m 1
 -630 25 l 25
 -665 -50 l 1
 -620 -55 -585 -83 -585 -125 c 3
 -585 -185 -645 -223 -740 -225 c 1
 -745 -190 l 1
 -680 -188 -645 -170 -645 -135 c 3
 -645 -105 -675 -85 -720 -85 c 9
 -720 -80 l 1
 -670 25 l 1
EndSplineSet
Fore
Refer: 149 807 N 1 0 0 1 120 0 2
EndChar

StartChar: asciicircum
Encoding: 94 94 157
Width: 360
Flags: HW
LayerCount: 2
Back
SplineSet
190 555 m 1
 75 330 l 1
 20 330 l 1
 165 615 l 1
 195 615 l 1
 190 555 l 1
195 615 m 1
 340 330 l 1
 285 330 l 1
 170 555 l 1
 165 615 l 1
 195 615 l 1
EndSplineSet
Fore
SplineSet
190 557 m 1
 77 350 l 1
 20 350 l 1
 165 615 l 1
 195 615 l 1
 190 557 l 1
195 615 m 1
 340 350 l 1
 283 350 l 1
 170 557 l 1
 165 615 l 1
 195 615 l 1
EndSplineSet
EndChar

StartChar: braceright
Encoding: 125 125 158
Width: 350
Flags: HW
LayerCount: 2
Back
SplineSet
316 222 m 1
 286 222 l 1
 236 222 220 250 220 305 c 2
 220 495 l 2
 220 560 165 610 100 610 c 2
 40 610 l 9
 40 565 l 1
 85 565 l 2
 125 565 150 535 150 480 c 2
 150 300 l 2
 150 255 180 215 220 200 c 1
 180 185 150 145 150 100 c 2
 150 -80 l 2
 150 -135 125 -165 85 -165 c 2
 40 -165 l 1
 40 -210 l 17
 95 -210 l 2
 155 -210 220 -160 220 -95 c 2
 220 95 l 2
 220 150 236 178 286 178 c 1
 316 178 l 1
 316 222 l 1
EndSplineSet
Fore
SplineSet
325 222 m 1
 325 178 l 1
 296 178 l 1
 246 178 225 150 225 90 c 2
 225 -90 l 2
 225 -160 160 -210 100 -210 c 2
 45 -210 l 9
 45 -165 l 1
 90 -165 l 2
 130 -165 155 -135 155 -80 c 2
 155 95 l 2
 155 140 185 185 225 200 c 1
 185 215 155 260 155 305 c 2
 155 480 l 2
 155 535 130 565 90 565 c 2
 45 565 l 1
 45 610 l 17
 105 610 l 2
 170 610 225 560 225 490 c 2
 225 310 l 2
 225 250 246 222 296 222 c 1
 325 222 l 1
EndSplineSet
EndChar

StartChar: braceleft
Encoding: 123 123 159
Width: 350
Flags: HW
LayerCount: 2
Back
SplineSet
325 222 m 1
 296 222 l 1
 246 222 225 250 225 310 c 2
 225 490 l 2
 225 560 170 610 105 610 c 2
 45 610 l 9
 45 565 l 1
 90 565 l 2
 130 565 155 535 155 480 c 2
 155 305 l 2
 155 260 185 215 225 200 c 1
 185 185 155 140 155 95 c 2
 155 -80 l 2
 155 -135 130 -165 90 -165 c 2
 45 -165 l 1
 45 -210 l 17
 100 -210 l 2
 160 -210 225 -160 225 -90 c 2
 225 90 l 2
 225 150 246 178 296 178 c 1
 325 178 l 1
 325 222 l 1
EndSplineSet
Fore
Refer: 158 125 N -1 0 0 -1 350 400 2
EndChar

StartChar: questiondown
Encoding: 191 191 160
Width: 340
Flags: HW
LayerCount: 2
Back
SplineSet
117 170 m 1
 100 205 85 250 85 285 c 3
 85 320 103 338 148 353 c 2
 178 363 l 2
 238 383 244 402 244 432 c 3
 244 487 200 540 150 540 c 3
 123 540 107 528 87 528 c 3
 65 528 49 548 49 573 c 3
 49 595 73 612 103 612 c 3
 198 612 305 505 305 390 c 3
 305 340 282 315 222 295 c 2
 198 287 l 2
 156 273 142 259 142 230 c 3
 142 210 145 192 149 170 c 9
 117 170 l 1
84 42 m 0
 84 70 107 93 135 93 c 0
 163 93 186 70 186 42 c 0
 186 14 163 -9 135 -9 c 0
 107 -9 84 14 84 42 c 0
EndSplineSet
Fore
Refer: 102 63 N -1 0 0 -1 340 389 2
EndChar

StartChar: asciitilde
Encoding: 126 126 161
Width: 400
Flags: HW
LayerCount: 2
Back
SplineSet
30 190 m 17
 50 220 85 245 115 245 c 3
 145 245 170 230 200 215 c 0
 230 200 255 185 285 185 c 3
 315 185 350 210 370 240 c 1033
EndSplineSet
Fore
SplineSet
380 210 m 17
 355 180 310 155 280 155 c 3
 250 155 225 169 193 185 c 0
 163 200 135 215 115 215 c 3
 92 215 67 202 45 180 c 9
 20 210 l 17
 45 240 90 265 120 265 c 3
 150 265 175 251 207 235 c 0
 237 220 265 205 285 205 c 3
 308 205 333 218 355 240 c 9
 380 210 l 17
EndSplineSet
EndChar

StartChar: eth
Encoding: 240 240 163
Width: 700
Flags: HW
LayerCount: 2
Fore
SplineSet
100 500 m 1
 600 500 l 1
 600 0 l 1
 100 0 l 1
 100 500 l 1
EndSplineSet
EndChar

StartChar: oslash
Encoding: 248 248 164
Width: 380
Flags: HW
LayerCount: 2
Back
SplineSet
27 16 m 1
 392 412 l 1
 420 384 l 1
 55 -12 l 1
 27 16 l 1
EndSplineSet
Refer: 2 111 N 1 0 0 1 0 0 2
Fore
SplineSet
62 45 m 0
 62 77 88 103 120 103 c 0
 152 103 178 77 178 45 c 0
 178 13 152 -13 120 -13 c 0
 88 -13 62 13 62 45 c 0
EndSplineSet
EndChar

StartChar: divide
Encoding: 247 247 165
Width: 400
Flags: HW
LayerCount: 2
Back
SplineSet
156 75 m 0
 156 100 176 120 201 120 c 0
 226 120 246 100 246 75 c 0
 246 50 226 30 201 30 c 0
 176 30 156 50 156 75 c 0
156 335 m 0
 156 360 176 380 201 380 c 0
 226 380 246 360 246 335 c 0
 246 310 226 290 201 290 c 0
 176 290 156 310 156 335 c 0
225 380 m 1
 225 30 l 1
 175 30 l 1
 175 380 l 1
 225 380 l 1
25 230 m 1
 375 230 l 1
 375 180 l 1
 25 180 l 1
 25 230 l 1
EndSplineSet
Fore
SplineSet
157 75 m 0
 157 99 177 119 201 119 c 0
 225 119 245 99 245 75 c 0
 245 51 225 31 201 31 c 0
 177 31 157 51 157 75 c 0
157 335 m 0
 157 359 177 379 201 379 c 0
 225 379 245 359 245 335 c 0
 245 311 225 291 201 291 c 0
 177 291 157 311 157 335 c 0
25 230 m 1
 375 230 l 1
 375 180 l 1
 25 180 l 1
 25 230 l 1
EndSplineSet
EndChar

StartChar: logicalnot
Encoding: 172 172 166
Width: 400
Flags: HW
LayerCount: 2
Back
SplineSet
225 380 m 1
 225 30 l 1
 175 30 l 1
 175 380 l 1
 225 380 l 1
25 230 m 1
 375 230 l 1
 375 180 l 1
 25 180 l 1
 25 230 l 1
EndSplineSet
Fore
SplineSet
345 280 m 1
 345 105 l 1
 295 105 l 1
 295 250 l 1
 345 280 l 1
30 280 m 1
 345 280 l 1
 315 230 l 1
 30 230 l 1
 30 280 l 1
EndSplineSet
EndChar

StartChar: gravecomb.cap
Encoding: 65536 -1 167
Width: 0
GlyphClass: 4
Flags: HW
AnchorPoint: "accent_above_cap" 35 650 mark 0
LayerCount: 2
Back
SplineSet
15 775 m 1
 85 750 l 1
 -40 650 l 1
 -80 650 l 1
 15 775 l 1
EndSplineSet
Fore
SplineSet
-15 775 m 1
 80 650 l 1
 40 650 l 1
 -85 745 l 1
 -15 775 l 1
EndSplineSet
EndChar

StartChar: acutecomb.cap
Encoding: 65537 -1 168
Width: 0
GlyphClass: 4
Flags: HW
AnchorPoint: "accent_above_cap" -35 650 mark 0
LayerCount: 2
Back
SplineSet
15 770 m 1
 85 745 l 1
 -40 645 l 1
 -80 645 l 1
 15 770 l 1
0 640 m 1
 75 625 l 1
 -35 455 l 1
 -70 455 l 1
 0 640 l 1
EndSplineSet
Fore
SplineSet
15 775 m 1
 85 745 l 1
 -40 650 l 1
 -80 650 l 1
 15 775 l 1
EndSplineSet
EndChar

StartChar: uni0302.cap
Encoding: 65538 -1 169
Width: 0
GlyphClass: 4
Flags: HW
AnchorPoint: "accent_above_cap" 0 650 mark 0
LayerCount: 2
Back
SplineSet
15 770 m 1
 125 585 l 1
 87 585 l 1
 0 680 l 1
 -87 585 l 1
 -125 585 l 1
 -15 770 l 1
 15 770 l 1
15 775 m 1
 85 750 l 1
 -40 650 l 1
 -80 650 l 1
 15 775 l 1
EndSplineSet
Fore
SplineSet
20 770 m 1
 125 650 l 1
 87 650 l 1
 0 710 l 1
 -87 650 l 1
 -125 650 l 1
 -20 770 l 1
 20 770 l 1
EndSplineSet
EndChar

StartChar: tildecomb.cap
Encoding: 65539 -1 170
Width: 0
GlyphClass: 4
Flags: HW
AnchorPoint: "accent_above_cap" 0 650 mark 0
LayerCount: 2
Back
SplineSet
168 725 m 17
 136 684 97 641 67 641 c 3
 43 641 18 652 -18 663 c 0
 -36 668 -59 676 -77 676 c 3
 -97 676 -118 658 -138 636 c 9
 -168 660 l 17
 -136 701 -97 744 -67 744 c 3
 -43 744 -18 733 18 722 c 0
 36 717 59 709 77 709 c 3
 97 709 118 727 138 749 c 9
 168 725 l 17
140 563 m 17
 113 525 81 485 56 485 c 3
 36 485 15 495 -15 505 c 0
 -30 510 -49 517 -64 517 c 3
 -81 517 -98 500 -115 480 c 9
 -140 502 l 17
 -113 540 -81 580 -56 580 c 3
 -36 580 -15 570 15 560 c 0
 30 555 49 548 64 548 c 3
 81 548 98 565 115 585 c 9
 140 563 l 17
EndSplineSet
Fore
SplineSet
162 747 m 17
 132 702 95 663 65 663 c 3
 45 663 19 672 -20 685 c 0
 -35 690 -60 697 -75 697 c 3
 -93 697 -117 680 -135 655 c 9
 -162 678 l 17
 -132 723 -95 762 -65 762 c 3
 -45 762 -16 752 20 740 c 0
 35 735 60 728 75 728 c 3
 93 728 117 745 135 770 c 9
 162 747 l 17
EndSplineSet
EndChar

StartChar: macroncomb.cap
Encoding: 65540 -1 171
Width: 0
GlyphClass: 4
Flags: HW
AnchorPoint: "accent_above_cap" 0 650 mark 0
LayerCount: 2
Back
SplineSet
20 770 m 1
 125 650 l 1
 87 650 l 1
 0 710 l 1
 -87 650 l 1
 -125 650 l 1
 -20 770 l 1
 20 770 l 1
EndSplineSet
Fore
SplineSet
-150 735 m 1
 150 735 l 1
 150 680 l 1
 -150 680 l 1
 -150 735 l 1
EndSplineSet
EndChar

StartChar: brevecomb.cap
Encoding: 65541 -1 172
Width: 700
GlyphClass: 4
Flags: HW
LayerCount: 2
Fore
SplineSet
100 500 m 1
 600 500 l 1
 600 0 l 1
 100 0 l 1
 100 500 l 1
EndSplineSet
EndChar

StartChar: uni0307.cap
Encoding: 65542 -1 173
Width: 0
GlyphClass: 4
Flags: HW
AnchorPoint: "accent_above_cap" 0 650 mark 0
LayerCount: 2
Back
SplineSet
-45 540 m 0
 -45 565 -25 585 0 585 c 0
 25 585 45 565 45 540 c 0
 45 515 25 495 0 495 c 0
 -25 495 -45 515 -45 540 c 0
EndSplineSet
Fore
SplineSet
-48 710 m 0
 -48 736 -26 758 0 758 c 0
 26 758 48 736 48 710 c 0
 48 684 26 662 0 662 c 0
 -26 662 -48 684 -48 710 c 0
EndSplineSet
EndChar

StartChar: uni0308.cap
Encoding: 65543 -1 174
Width: 0
GlyphClass: 4
Flags: HW
AnchorPoint: "accent_above_cap" 0 650 mark 0
LayerCount: 2
Back
SplineSet
31 540 m 0
 31 564 51 584 75 584 c 0
 99 584 119 564 119 540 c 0
 119 516 99 496 75 496 c 0
 51 496 31 516 31 540 c 0
-119 540 m 0
 -119 564 -99 584 -75 584 c 0
 -51 584 -31 564 -31 540 c 0
 -31 516 -51 496 -75 496 c 0
 -99 496 -119 516 -119 540 c 0
EndSplineSet
Fore
SplineSet
-132 710 m 0
 -132 735 -111 756 -86 756 c 0
 -61 756 -40 735 -40 710 c 0
 -40 685 -61 664 -86 664 c 0
 -111 664 -132 685 -132 710 c 0
40 710 m 0
 40 735 61 756 86 756 c 0
 111 756 132 735 132 710 c 0
 132 685 111 664 86 664 c 0
 61 664 40 685 40 710 c 0
EndSplineSet
EndChar

StartChar: uni030A.cap
Encoding: 65544 -1 175
Width: 0
GlyphClass: 4
Flags: HW
AnchorPoint: "accent_above_cap" 0 640 mark 0
LayerCount: 2
Back
SplineSet
-92 680 m 0
 -92 730 -50 772 2 772 c 0
 53 772 92 732 92 682 c 0
 92 632 50 590 -2 590 c 0
 -53 590 -92 630 -92 680 c 0
-44 687 m 0
 -44 647 -23 621 2 621 c 0
 27 621 44 642 44 675 c 0
 44 715 23 741 -2 741 c 0
 -27 741 -44 720 -44 687 c 0
EndSplineSet
Fore
SplineSet
-94 680 m 0
 -94 731 -51 773 2 773 c 0
 54 773 94 733 94 682 c 0
 94 631 51 589 -2 589 c 0
 -54 589 -94 629 -94 680 c 0
-44 687 m 0
 -44 647 -23 621 2 621 c 0
 27 621 44 642 44 675 c 0
 44 715 23 741 -2 741 c 0
 -27 741 -44 720 -44 687 c 0
EndSplineSet
EndChar

StartChar: uni030b.cap
Encoding: 65545 -1 176
Width: 700
GlyphClass: 4
Flags: HW
LayerCount: 2
Fore
SplineSet
100 500 m 1
 600 500 l 1
 600 0 l 1
 100 0 l 1
 100 500 l 1
EndSplineSet
EndChar

StartChar: uni030C.cap
Encoding: 65546 -1 177
Width: 0
GlyphClass: 4
Flags: HW
AnchorPoint: "accent_above_cap" 0 650 mark 0
LayerCount: 2
Back
SplineSet
20 770 m 1
 125 650 l 1
 87 650 l 1
 0 710 l 1
 -87 650 l 1
 -125 650 l 1
 -20 770 l 1
 20 770 l 1
EndSplineSet
Fore
SplineSet
-20 650 m 1
 -125 770 l 1
 -87 770 l 1
 0 710 l 1
 87 770 l 1
 125 770 l 1
 20 650 l 1
 -20 650 l 1
EndSplineSet
EndChar

StartChar: uni0327.cap
Encoding: 65547 -1 178
Width: 0
GlyphClass: 4
Flags: HW
AnchorPoint: "accent_below_cap" 0 30 mark 0
LayerCount: 2
Back
SplineSet
0 25 m 1
 40 25 l 25
 7 -41 l 1
 52 -53 90 -80 90 -125 c 3
 90 -190 15 -232 -80 -230 c 1
 -80 -195 l 1
 -15 -195 23 -170 23 -140 c 3
 23 -110 -15 -94 -55 -89 c 9
 -55 -85 l 1
 0 25 l 1
EndSplineSet
Fore
SplineSet
0 30 m 1
 43 30 l 25
 12 -32 l 1
 60 -47 93 -80 93 -125 c 3
 93 -195 13 -242 -82 -240 c 1
 -82 -205 l 1
 -18 -205 23 -177 23 -142 c 3
 23 -107 -13 -90 -55 -85 c 9
 -55 -80 l 1
 0 30 l 1
EndSplineSet
EndChar

StartChar: uni0328.cap
Encoding: 65548 -1 179
Width: 700
GlyphClass: 4
Flags: HW
LayerCount: 2
Fore
SplineSet
100 500 m 1
 600 500 l 1
 600 0 l 1
 100 0 l 1
 100 500 l 1
EndSplineSet
EndChar

StartChar: NameMe.65549
Encoding: 65549 -1 180
Width: 240
Flags: HW
LayerCount: 2
Fore
SplineSet
62 45 m 0
 62 77 88 103 120 103 c 0
 152 103 178 77 178 45 c 0
 178 13 152 -13 120 -13 c 0
 88 -13 62 13 62 45 c 0
EndSplineSet
EndChar

StartChar: longs
Encoding: 383 383 181
Width: 240
Flags: HW
LayerCount: 2
Back
SplineSet
265 570 m 1
 240 570 229 594 204 594 c 1
 179 594 164 574 164 484 c 1
 164 0 l 1
 90 0 l 1
 90 460 l 1
 90 560 180 655 250 655 c 1
 290 655 310 635 310 615 c 1
 310 590 290 570 265 570 c 1
25 35 m 1
 245 35 l 1
 245 0 l 1
 25 0 l 1
 25 35 l 1
10 340 m 1
 10 370 l 1
 90 400 l 1
 120 390 l 1
 120 340 l 1
 10 340 l 1
EndSplineSet
Fore
SplineSet
62 45 m 0
 62 77 88 103 120 103 c 0
 152 103 178 77 178 45 c 0
 178 13 152 -13 120 -13 c 0
 88 -13 62 13 62 45 c 0
EndSplineSet
EndChar

StartChar: Aring
Encoding: 197 197 182
Width: 1000
Flags: H
LayerCount: 2
Back
SplineSet
80 10 m 1
 20 10 l 1
 255 600 l 1
 302 625 l 1
 265 498 l 1
 80 10 l 1
595 0 m 1
 370 0 l 1
 370 40 l 1
 595 40 l 1
 595 0 l 1
160 0 m 1
 -25 0 l 1
 -25 40 l 1
 160 40 l 1
 160 0 l 1
150 270 m 1
 375 270 l 1
 385 225 l 1
 140 225 l 1
 150 270 l 1
236 687 m 0
 236 647 257 621 282 621 c 0
 307 621 324 642 324 675 c 0
 324 715 303 741 278 741 c 0
 253 741 236 720 236 687 c 0
186 680 m 0
 186 731 229 773 282 773 c 0
 334 773 374 733 374 682 c 0
 374 631 331 589 278 589 c 0
 226 589 186 629 186 680 c 0
302 625 m 1
 545 10 l 1
 447 17 l 1
 255 518 l 1
 302 625 l 1
EndSplineSet
EndChar

StartChar: Edieresis
Encoding: 203 203 183
Width: 525
Flags: HW
LayerCount: 2
Fore
SplineSet
100 500 m 1
 600 500 l 1
 600 0 l 1
 100 0 l 1
 100 500 l 1
EndSplineSet
EndChar

StartChar: Ucircumflex
Encoding: 219 219 184
Width: 645
Flags: HW
LayerCount: 2
Fore
SplineSet
100 500 m 1
 600 500 l 1
 600 0 l 1
 100 0 l 1
 100 500 l 1
EndSplineSet
EndChar

StartChar: Udieresis
Encoding: 220 220 185
Width: 645
Flags: HW
LayerCount: 2
Fore
SplineSet
100 500 m 1
 600 500 l 1
 600 0 l 1
 100 0 l 1
 100 500 l 1
EndSplineSet
EndChar

StartChar: Oslash
Encoding: 216 216 186
Width: 240
Flags: HW
LayerCount: 2
Back
SplineSet
60 15 m 1
 602 617 l 1
 632 587 l 1
 90 -15 l 1
 60 15 l 1
EndSplineSet
Refer: 18 79 N 1 0 0 1 0 0 2
Fore
SplineSet
62 45 m 0
 62 77 88 103 120 103 c 0
 152 103 178 77 178 45 c 0
 178 13 152 -13 120 -13 c 0
 88 -13 62 13 62 45 c 0
EndSplineSet
EndChar

StartChar: currency
Encoding: 164 164 187
Width: 240
Flags: HW
LayerCount: 2
Fore
SplineSet
62 45 m 0
 62 77 88 103 120 103 c 0
 152 103 178 77 178 45 c 0
 178 13 152 -13 120 -13 c 0
 88 -13 62 13 62 45 c 0
EndSplineSet
EndChar

StartChar: section
Encoding: 167 167 188
Width: 700
Flags: HW
LayerCount: 2
Fore
SplineSet
100 500 m 1
 600 500 l 1
 600 0 l 1
 100 0 l 1
 100 500 l 1
EndSplineSet
EndChar

StartChar: ordfeminine
Encoding: 170 170 189
Width: 700
Flags: HW
LayerCount: 2
Fore
SplineSet
100 500 m 1
 600 500 l 1
 600 0 l 1
 100 0 l 1
 100 500 l 1
EndSplineSet
EndChar

StartChar: registered
Encoding: 174 174 190
Width: 700
Flags: HW
LayerCount: 2
Fore
SplineSet
100 500 m 1
 600 500 l 1
 600 0 l 1
 100 0 l 1
 100 500 l 1
EndSplineSet
EndChar

StartChar: mu
Encoding: 181 181 191
Width: 700
Flags: HW
LayerCount: 2
Fore
SplineSet
100 500 m 1
 600 500 l 1
 600 0 l 1
 100 0 l 1
 100 500 l 1
EndSplineSet
EndChar

StartChar: paragraph
Encoding: 182 182 192
Width: 700
Flags: HW
LayerCount: 2
Fore
SplineSet
100 500 m 1
 600 500 l 1
 600 0 l 1
 100 0 l 1
 100 500 l 1
EndSplineSet
EndChar

StartChar: ordmasculine
Encoding: 186 186 193
Width: 700
Flags: HW
LayerCount: 2
Fore
SplineSet
100 500 m 1
 600 500 l 1
 600 0 l 1
 100 0 l 1
 100 500 l 1
EndSplineSet
EndChar
